<svg width="35" height="34" viewBox="0 0 35 34" fill="none" xmlns="http://www.w3.org/2000/svg">
<g clip-path="url(#clip0_2_53)">
<path d="M35 12.6063C34.9217 12.3714 34.7651 12.2148 34.5302 12.2148L23.0984 10.5705L18.0872 0.313199C18.0089 0.0782998 17.774 0 17.5391 0C17.3042 0 17.0693 0.1566 16.991 0.313199L11.9016 10.5705L0.548091 12.2148C0.313192 12.2148 0.0782928 12.4497 0.0782928 12.6063C0.0782928 12.7629 0.0782929 13.0761 0.234892 13.2327L8.45637 21.2192L6.42057 32.5727C6.34227 32.8076 6.49887 33.0425 6.65547 33.1991C6.81207 33.1991 6.96867 33.2774 7.04697 33.2774C7.12527 33.2774 7.28187 33.2774 7.36017 33.1991L17.4608 27.8747L27.5615 33.1991C27.7964 33.2774 28.0313 33.2774 28.1879 33.1208C28.3445 32.9642 28.5011 32.7293 28.4228 32.4944L26.6219 21.2975L34.8434 13.311C35 13.0761 35.0783 12.8412 35 12.6063ZM25.5257 20.5928C25.3691 20.7494 25.2908 20.906 25.3691 21.1409L27.17 31.4765L17.8523 26.6219C17.6957 26.5436 17.4608 26.5436 17.3042 26.6219L7.98657 31.4765L9.78746 21.1409C9.78746 20.906 9.78746 20.7494 9.63086 20.5928L2.11409 13.2327L12.528 11.745C12.7629 11.745 12.9195 11.5884 12.9978 11.4318L17.6174 2.03579L22.2371 11.4318C22.3154 11.5884 22.472 11.745 22.7069 11.745L33.1208 13.2327L25.5257 20.5928V20.5928Z" fill="#252525"/>
</g>
<defs>
<clipPath id="clip0_2_53">
<rect width="35" height="33.2774" fill="white"/>
</clipPath>
</defs>
</svg>
