<svg width="19" height="23" viewBox="0 0 19 23" fill="none" xmlns="http://www.w3.org/2000/svg">
<path d="M16.256 22.5824H3.20263C2.90423 22.5828 2.60887 22.5225 2.33452 22.4051C2.06017 22.2877 1.81257 22.1158 1.60677 21.8997C1.40098 21.6836 1.2413 21.4279 1.13744 21.1481C1.03357 20.8684 0.98771 20.5705 1.00263 20.2724L1.59663 7.62976C1.62121 7.06296 1.86381 6.52758 2.27375 6.1354C2.6837 5.74322 3.2293 5.52456 3.79663 5.52509H15.662C16.2293 5.52456 16.7749 5.74322 17.1848 6.1354C17.5948 6.52758 17.8374 7.06296 17.862 7.62976L18.456 20.2724C18.4709 20.5705 18.425 20.8684 18.3212 21.1481C18.2173 21.4279 18.0576 21.6836 17.8518 21.8997C17.646 22.1158 17.3984 22.2877 17.1241 22.4051C16.8497 22.5225 16.5544 22.5828 16.256 22.5824ZM3.79663 6.99909C3.60214 6.99909 3.41561 7.07636 3.27808 7.21388C3.14056 7.35141 3.0633 7.53794 3.0633 7.73243L2.4693 20.3458C2.46432 20.4451 2.47961 20.5444 2.51423 20.6377C2.54885 20.7309 2.60208 20.8161 2.67068 20.8882C2.73928 20.9602 2.82181 21.0175 2.91326 21.0566C3.00471 21.0958 3.10316 21.1159 3.20263 21.1158H16.256C16.3554 21.1159 16.4539 21.0958 16.5453 21.0566C16.6368 21.0175 16.7193 20.9602 16.7879 20.8882C16.8565 20.8161 16.9097 20.7309 16.9444 20.6377C16.979 20.5444 16.9943 20.4451 16.9893 20.3458L16.3953 7.70309C16.3953 7.5086 16.318 7.32208 16.1805 7.18455C16.043 7.04702 15.8565 6.96976 15.662 6.96976L3.79663 6.99909Z" fill="#212121" stroke="#212121" stroke-width="0.3"/>
<path d="M14.1295 6.26536H12.6628V4.98203C12.6628 4.20406 12.3538 3.45796 11.8036 2.90785C11.2535 2.35774 10.5074 2.0487 9.72947 2.0487C8.9515 2.0487 8.20539 2.35774 7.65529 2.90785C7.10518 3.45796 6.79613 4.20406 6.79613 4.98203V6.26536H5.32947V4.98203C5.32947 3.81508 5.79304 2.69592 6.6182 1.87076C7.44336 1.0456 8.56252 0.582031 9.72947 0.582031C10.8964 0.582031 12.0156 1.0456 12.8407 1.87076C13.6659 2.69592 14.1295 3.81508 14.1295 4.98203V6.26536Z" fill="#212121" stroke="#212121" stroke-width="0.3"/>
</svg>
