<svg width="113" height="33" viewBox="0 0 113 33" fill="none" xmlns="http://www.w3.org/2000/svg">
<path d="M112.157 17.694C111.979 17.4113 111.623 17.322 111.341 17.5006C109.279 18.7804 105.466 19.4352 104.22 19.6435C103.79 19.7179 103.701 19.7328 103.612 19.7626L102.974 20.0007L103.301 20.5959C103.716 21.3549 104.25 23.3341 103.642 24.48C103.345 25.0306 102.811 25.3431 101.995 25.4324C101.417 25.4919 101.194 25.2985 101.076 25.1348C100.334 24.1972 100.942 21.3102 101.535 19.5989C102.648 18.7804 103.731 18.0066 104.057 17.8875C104.339 17.8429 104.562 17.6048 104.562 17.3071C104.562 16.9797 104.295 16.7119 103.968 16.7119C103.597 16.7119 103.019 17.0244 100.719 18.7358C100.705 18.7506 100.675 18.7655 100.66 18.7804C100.082 19.212 99.3992 19.7328 98.5834 20.3429C98.2125 20.6257 97.8862 20.8787 97.6043 21.087C97.2038 21.3847 96.6549 21.7269 96.0319 22.1287C95.0677 22.724 93.9403 23.4383 92.7684 24.3461C92.7239 22.9026 92.5607 21.2656 92.2788 19.4649C91.8931 16.95 92.2047 15.1196 93.1689 14.1969C94.2518 13.1552 95.8984 13.4826 95.9429 13.4975C96.2544 13.5719 96.5807 13.3635 96.6401 13.051C96.7143 12.7385 96.5066 12.4111 96.1951 12.3516C96.106 12.3367 93.9254 11.8754 92.3678 13.3487C91.2701 14.3904 90.7954 16.0869 90.9586 18.4084C89.7273 19.1524 85.3512 21.8311 81.9097 24.5246C81.8652 23.0365 81.702 21.3549 81.4202 19.4947C81.0345 16.9797 81.346 15.1493 82.3102 14.2267C83.408 13.185 85.0546 13.5124 85.0842 13.5272C85.3958 13.6017 85.7221 13.3933 85.7814 13.0808C85.8556 12.7683 85.6479 12.4409 85.3364 12.3814C85.2474 12.3665 83.0668 11.9052 81.5092 13.3784C80.3818 14.435 79.9219 16.1761 80.1148 18.5572L79.9071 18.4232C79.9071 18.4232 79.9071 18.4084 79.9368 18.3935C79.9071 18.4232 79.2989 19.1822 74.3739 23.2299C73.4691 23.974 72.9498 24.0931 72.757 23.9889C72.6828 23.9443 72.0153 23.3936 72.5642 19.7626C72.8608 17.7536 73.38 15.8488 73.38 15.8339C73.469 15.5362 73.3059 15.2088 73.0092 15.1047C72.7125 15.0005 72.401 15.1196 72.2823 15.4023C72.2081 15.5362 71.3033 16.9351 66.0668 21.2507C64.8949 22.218 64.4053 22.3371 64.2718 22.3519C64.2273 22.1882 64.1087 21.4888 64.9245 19.1971C65.4437 17.7536 66.0668 16.4142 66.0668 16.3994C66.2003 16.1166 66.0964 15.7892 65.8146 15.6255C65.5476 15.4767 65.2064 15.5511 65.0284 15.819C64.9839 15.8785 60.6523 22.471 56.3949 28.5426C55.5642 29.7331 55.1636 29.8671 55.0895 29.882C55.0005 29.7927 54.4664 29.1081 54.7038 25.1645C54.8521 22.6645 55.2378 20.0751 55.401 19.212C55.49 18.7804 55.7867 17.7982 56.2169 16.5184C56.4097 16.2654 56.6174 16.0124 56.8251 15.7595C61.127 10.2236 63.6191 5.43173 64.2273 1.51791C64.2422 1.45839 64.2422 1.38398 64.2273 1.32445C64.0493 0.238107 63.5301 0.0148853 63.1296 3.8147e-06H63.1148C62.5807 3.8147e-06 61.8984 0.357159 60.5485 2.87212C59.7771 4.30074 58.8573 6.3395 57.8635 8.76518C56.8399 11.2653 55.8608 13.9142 55.1785 15.9232C52.5231 19.2417 50.12 21.6525 49.7788 21.9948C48.1916 23.0067 47.8207 22.7389 47.8207 22.7389C47.791 22.7091 47.1977 22.099 48.9333 17.8726C49.6898 16.0571 50.565 14.316 50.8914 13.6909C50.9507 13.6017 50.9952 13.5124 51.0249 13.4231C51.1584 13.1254 51.0546 12.7832 50.7579 12.6344C50.476 12.4855 50.12 12.6046 49.9717 12.8873C49.9717 12.8873 49.9272 12.9915 49.8382 13.1552C49.319 14.0779 48.147 15.5214 47.5092 16.2952C47.168 15.9678 46.723 15.6553 46.1444 15.5214C45.1654 15.2981 44.127 15.6404 43.0441 16.5482C42.3172 17.1583 41.6348 18.0363 41.1008 19.0036C41.0711 19.0185 41.0415 19.0334 41.0118 19.0631C39.647 19.9858 38.6383 20.3281 37.9114 20.09C37.2884 19.8816 36.8285 19.212 36.3539 18.5125C36.1758 18.2595 35.9978 17.9917 35.805 17.7387C35.627 17.5155 35.3303 17.4411 35.0781 17.575C32.853 18.6465 30.8207 22.3668 29.4263 25.2092C29.901 22.7537 30.7762 19.3608 32.2003 16.191C32.3189 15.9232 32.2299 15.5958 31.9778 15.447C31.7256 15.2833 31.3992 15.3428 31.2064 15.5809C27.8984 19.6138 25.0205 22.5008 22.6322 24.1377C20.8224 25.3878 19.3093 25.8788 18.5083 25.4622C17.8259 25.1199 17.5737 24.0633 17.7666 22.6347C17.7963 22.6198 17.8259 22.6198 17.8556 22.6049C17.9149 22.5752 19.3538 21.8757 20.8076 20.8192C22.8696 19.331 23.9376 17.9173 23.9673 16.6226C23.997 15.5958 23.4481 14.8666 22.5729 14.7475C21.6531 14.6136 20.4812 15.1791 19.4577 16.2505C18.6566 17.0839 17.5589 18.6167 16.8765 21.1614C16.1793 23.8103 16.5798 25.8342 17.9743 26.5485C18.3303 26.7271 18.7456 26.8313 19.1907 26.8313C21.6086 26.8313 25.2875 24.1377 29.8416 19.0483C28.3285 23.5127 27.7945 27.6349 27.7945 28.5575C27.7945 28.9593 28.0615 29.1528 28.284 29.2123C28.3434 29.2272 28.3879 29.2272 28.4324 29.2272C28.8329 29.2272 29.0258 28.8254 29.2038 28.5129C29.3373 28.245 29.5153 27.873 29.7378 27.3968C30.8207 25.0901 33.0162 20.4174 35.182 18.9441C35.2561 19.0483 35.3155 19.1524 35.3896 19.2417C36.3242 20.5959 37.4516 22.2478 40.2701 20.9233C39.9141 21.9353 39.7509 22.8877 39.8696 23.4978C40.0031 24.1377 40.3888 24.3461 40.6261 24.4205C40.7299 24.4502 40.8338 24.4651 40.9525 24.4651C41.531 24.4651 42.2134 24.0336 43.1183 23.1407C44.8687 21.3847 46.2928 19.9709 47.3163 18.959C47.0493 19.7179 46.8416 20.4025 46.7081 20.9829C46.4114 22.3519 46.5153 23.2151 47.0345 23.7062C47.9245 24.5395 49.4376 23.7359 50.4909 23.0514C50.5205 23.0365 50.5502 23.0067 50.5799 22.977C50.5947 22.9621 52.2116 21.3698 54.3032 18.9441C54.2884 18.9887 54.2884 19.0334 54.2736 19.0631C54.0956 19.9858 53.695 22.7091 53.5467 25.2985C53.2945 29.8671 54.0066 30.7748 54.6741 31.0576C54.8224 31.1171 54.9708 31.1469 55.1191 31.1469C55.9943 31.1469 56.8251 30.1201 57.4036 29.2867C59.5249 26.2658 61.6462 23.1258 63.2631 20.715C62.9219 22.1287 63.0258 22.9472 63.5598 23.3639C63.7675 23.5276 64.0048 23.5871 64.257 23.5871C65.0581 23.5871 66.0223 22.8877 66.8382 22.218C69.2413 20.2388 70.7544 18.8548 71.7334 17.8875C71.6296 18.4232 71.5109 19.0185 71.4219 19.6286C70.9621 22.7091 71.1846 24.4205 72.134 25.0455C73.2465 25.7747 74.6706 24.599 75.1305 24.2121C78.1122 21.7567 79.5659 20.4769 80.278 19.8072C80.6488 22.1734 80.7823 24.0633 80.7675 25.5663C79.7736 26.3997 78.9132 27.2182 78.3347 27.9623C77.5781 28.8998 77.1034 29.7331 76.8958 30.4326C76.6287 31.3552 76.9106 31.891 77.1924 32.1886C77.4743 32.4713 77.8748 32.6053 78.305 32.6053C78.8242 32.6053 79.3879 32.4118 79.8774 32.0398C80.7971 31.3255 81.4202 30.0605 81.7169 28.2896C81.8207 27.6497 81.8949 26.9206 81.9245 26.1467C85.0397 23.602 89.3862 20.8787 91.1218 19.8072C91.4778 22.099 91.6113 23.9443 91.6113 25.4175C90.7806 26.1467 89.9499 26.9801 89.1785 27.9623C88.4219 28.8998 87.9472 29.7331 87.7396 30.4326C87.4725 31.3552 87.7544 31.891 88.0362 32.1886C88.3181 32.4713 88.7186 32.6053 89.1488 32.6053C89.668 32.6053 90.2317 32.4118 90.7212 32.0398C91.641 31.3255 92.264 30.0605 92.5607 28.2896C92.6794 27.6051 92.7535 26.8313 92.7684 25.983C94.1479 24.8371 95.5275 23.974 96.6401 23.2597C97.2928 22.8579 97.8565 22.5008 98.2867 22.1734C98.5685 21.965 98.9097 21.712 99.2806 21.4293C99.4734 21.2805 99.7108 21.1019 99.9481 20.9233C99.8739 21.1912 99.8146 21.4888 99.7553 21.8013C99.3696 23.7954 99.4883 25.2092 100.126 26.0128C100.408 26.3699 100.912 26.7717 101.788 26.7717C101.891 26.7717 101.995 26.7717 102.099 26.7569C103.627 26.608 104.339 25.8193 104.665 25.1794C105.363 23.855 105.036 22.0543 104.636 20.9084C106.223 20.6406 109.798 19.9709 111.949 18.6465C112.246 18.334 112.335 17.9768 112.157 17.694ZM58.8425 9.50925C59.7919 7.18775 60.682 5.19363 61.4237 3.76501C62.2841 2.08341 62.7884 1.47327 63.0258 1.26493C63.0406 1.29469 63.0406 1.33933 63.0554 1.39886C62.5511 4.50908 60.6671 8.39314 57.5816 12.7385C57.9821 11.6671 58.3975 10.5807 58.8425 9.50925ZM22.3059 15.819C22.3504 15.819 22.3949 15.819 22.4245 15.8339C22.5284 15.8488 22.8251 15.8934 22.8102 16.5184C22.7954 17.3964 21.846 18.5572 20.1549 19.7775C19.4132 20.3132 18.6566 20.7596 18.1226 21.0721C19.161 17.4559 21.2675 15.819 22.3059 15.819ZM42.2579 22.1882C41.5607 22.8877 41.175 23.096 41.0118 23.1407C40.9525 22.8282 41.0415 21.965 41.5607 20.7299C42.1392 19.3459 42.9699 18.1107 43.8155 17.4113C44.4682 16.8756 45.0615 16.6077 45.5956 16.6077C45.6994 16.6077 45.8032 16.6226 45.9071 16.6375C46.4411 16.7565 46.812 17.1583 47.0196 17.4559C45.9664 18.4828 44.3495 20.09 42.2579 22.1882ZM79.1357 30.9683C78.6759 31.3255 78.1418 31.3701 78.0083 31.2213C77.8748 31.0874 77.8303 30.3284 79.2247 28.5724C79.5956 28.1111 80.0851 27.6051 80.6488 27.0842C80.4115 29.5099 79.6994 30.5367 79.1357 30.9683ZM89.9944 30.9683C89.5345 31.3255 89.0005 31.3701 88.867 31.2213C88.7334 31.0874 88.6889 30.3284 90.0834 28.5724C90.5432 27.992 91.0328 27.4563 91.5223 26.9801C91.2998 29.4802 90.5729 30.5367 89.9944 30.9683Z" fill="#212121"/>
<path d="M20.318 0.744078C20.0065 0.669671 19.6801 0.86313 19.6059 1.17564C18.7159 4.8216 15.5859 11.8308 11.8328 18.6018C7.44189 26.5188 4.25253 30.4326 3.03612 30.7897C3.00646 30.8046 2.94712 30.8195 2.91745 30.8046C-1.65149 23.602 4.22286 4.86624 4.29703 4.68766C4.40087 4.37515 4.22286 4.04776 3.91134 3.94359C3.59983 3.83942 3.27347 4.018 3.16963 4.33051C3.1548 4.37515 1.61204 9.25627 0.692319 14.9856C0.143454 18.3637 -0.0790596 21.3698 0.0247799 23.9443C0.158288 27.2182 0.810993 29.7778 1.99773 31.5636C2.0274 31.6082 2.05707 31.638 2.08674 31.6677C2.32408 31.891 2.60593 32.01 2.93229 32.01C3.08063 32.01 3.21414 31.9951 3.37731 31.9505C4.38604 31.6528 5.78045 30.254 7.61989 27.6944C9.19232 25.5068 11.0021 22.5752 12.8712 19.212C16.6836 12.3516 19.8433 5.22339 20.763 1.48815C20.8372 1.14588 20.6443 0.818486 20.318 0.744078Z" fill="#212121"/>
</svg>
