<svg width="24" height="24" viewBox="0 0 24 24" fill="none" xmlns="http://www.w3.org/2000/svg">
<path d="M10.4309 23.0015C10.4304 23.0015 10.4297 23.0015 10.429 23.0015C9.74052 23.001 9.09313 22.7324 8.60647 22.245L1.75194 15.3806C0.749354 14.3762 0.749354 12.7418 1.75194 11.7374L10.9919 2.47971C11.9442 1.5256 13.2112 1 14.5594 1H20.4217C21.8433 1 23 2.15648 23 3.57831V9.4226C23 10.7699 22.4749 12.0364 21.5218 12.9885L12.253 22.2475C11.7661 22.7338 11.119 23.0015 10.4309 23.0015ZM14.5594 2.71887C13.671 2.71887 12.8361 3.0652 12.2086 3.69393L2.96844 12.9517C2.6342 13.2866 2.6342 13.8312 2.96844 14.1661L9.82298 21.0305C9.98506 21.1928 10.2007 21.2825 10.4304 21.2827H10.431C10.6604 21.2827 10.8761 21.1934 11.0383 21.0314L20.307 11.7725C20.9352 11.1451 21.2811 10.3104 21.2811 9.4226V3.57831C21.2811 3.10441 20.8956 2.71887 20.4217 2.71887H14.5594Z" fill="#212121" stroke="#212121" stroke-width="0.4"/>
</svg>
