<svg width="20" height="17" viewBox="0 0 20 17" fill="none" xmlns="http://www.w3.org/2000/svg">
<path d="M14.2389 0C12.6392 0 11.2369 0.741836 10.1835 2.14535C10.043 2.33254 9.91778 2.5198 9.80679 2.70117C9.6958 2.51977 9.57058 2.33254 9.4301 2.14535C8.37673 0.741836 6.97438 0 5.3747 0C2.35276 0 0.191406 2.63152 0.191406 5.78922C0.191406 9.39988 3.03685 12.8028 9.41756 16.8228C9.53718 16.8982 9.67199 16.9359 9.80679 16.9359C9.94159 16.9359 10.0764 16.8982 10.196 16.8229C16.5767 12.8028 19.4222 9.39992 19.4222 5.78926C19.4222 2.6332 17.2626 0 14.2389 0ZM15.935 10.2851C14.6066 11.8266 12.5992 13.4497 9.80679 15.2391C7.01439 13.4497 5.00699 11.8266 3.6786 10.2852C2.34304 8.73531 1.69381 7.26469 1.69381 5.78926C1.69381 3.51566 3.1712 1.5625 5.3747 1.5625C6.49685 1.5625 7.45365 2.06992 8.21856 3.0707C8.83019 3.87106 9.08789 4.6975 9.08969 4.7034C9.18754 5.02977 9.4781 5.25207 9.80683 5.25207C10.1356 5.25207 10.4261 5.02981 10.524 4.7034C10.5263 4.69551 10.7763 3.89484 11.3678 3.10672C12.1369 2.08203 13.1028 1.56246 14.2389 1.56246C16.4447 1.56246 17.9198 3.5175 17.9198 5.78922C17.9198 7.26465 17.2705 8.73527 15.935 10.2851Z" fill="#212121"/>
</svg>
