<svg width="111" height="20" viewBox="0 0 111 20" fill="none" xmlns="http://www.w3.org/2000/svg">
<path fill-rule="evenodd" clip-rule="evenodd" d="M27.8666 0H50.9527H52.9243V1.73577V11.2642V13H50.9527H27.8666H25.8951V11.2642V1.73577V0H27.8666ZM27.8666 11.2642H50.9527V1.73577H27.8666V11.2642ZM58.0757 0V11.2642H82.0522V12.9907H58.0757H56.1042V11.2642V0H58.0757ZM109.028 0H85.8363H83.8648V1.73577V11.2642V13H85.8363H109.028H111V11.2642V1.73577V0H109.028ZM109.028 11.2642H85.8363V1.73577H109.028V11.2642ZM22.6091 0V1.73577H1.97148V5.53406H20.6376H22.6091V7.26994V11.2642V12.9907H20.6376H0V11.2642H20.6376V7.26994H1.97148H0V5.53406V1.73577V0H1.97148H22.6091Z" fill="url(#paint0_linear_114_4777)"/>
<path fill-rule="evenodd" clip-rule="evenodd" d="M34.5428 17H34V20H37.2957V19.6832H34.5428V17ZM44.9086 19.2569C44.9961 19.0917 45.0459 18.9082 45.0459 18.6881H45.0584V17H44.5216V18.7156C44.5216 19.0367 44.3968 19.2752 44.1346 19.4403C43.8848 19.6056 43.5354 19.6881 43.0984 19.6881C42.6489 19.6881 42.287 19.6056 42.0373 19.4312C41.775 19.266 41.6502 19.0184 41.6502 18.6973V17H41.1134V18.7156C41.1134 18.9266 41.1508 19.1101 41.2507 19.266C41.3382 19.4312 41.4755 19.5596 41.6502 19.6697C41.8251 19.7799 42.0373 19.8624 42.2744 19.9175C42.5116 19.9725 42.7864 20 43.0735 20C43.373 20 43.6478 19.9725 43.8848 19.9175C44.1347 19.8624 44.3343 19.7799 44.5092 19.6697C44.6839 19.5596 44.8087 19.422 44.9086 19.2569ZM52.5685 20L51.0331 18.7103L49.4979 20H48.8761L50.7159 18.4673L48.9396 17H49.574L51.0459 18.2243L52.505 17H53.1394L51.3631 18.4673L53.2029 20H52.5685ZM60.8158 19.2569C60.9032 19.0917 60.9531 18.9082 60.9531 18.6881H60.9656V17H60.4288V18.7156C60.4288 19.0367 60.304 19.2752 60.0418 19.4403C59.7921 19.6056 59.4426 19.6881 59.0056 19.6881C58.5561 19.6881 58.1942 19.6056 57.9445 19.4312C57.6822 19.266 57.5574 19.0184 57.5574 18.6973V17H57.0206V18.7156C57.0206 18.9266 57.058 19.1101 57.1579 19.266C57.2453 19.4312 57.3826 19.5596 57.5574 19.6697C57.7322 19.7799 57.9444 19.8624 58.1816 19.9175C58.4188 19.9725 58.6935 20 58.9806 20C59.2802 20 59.5549 19.9725 59.7921 19.9175C60.0418 19.8624 60.2415 19.7799 60.4163 19.6697C60.5911 19.5596 60.7159 19.422 60.8158 19.2569ZM68.0603 19.9907L66.6738 18.8261H65.3253V19.9907H64.7833V17H66.8377C67.1024 17 67.3418 17.0186 67.5435 17.0652C67.7578 17.1118 67.9342 17.1677 68.0855 17.2516C68.2367 17.3261 68.3502 17.4286 68.4384 17.5311C68.514 17.6428 68.5644 17.764 68.5644 17.8944C68.5644 18.0156 68.5266 18.1274 68.4636 18.2298C68.4006 18.3323 68.3124 18.4161 68.1989 18.4907C68.0855 18.5652 67.9468 18.6211 67.783 18.677C67.6191 18.7236 67.4553 18.7609 67.2662 18.7795L68.7283 20H68.0603V19.9907ZM67.6948 17.4658C67.4805 17.3633 67.178 17.3074 66.7999 17.3074H65.3253V18.5279H66.7873C66.9637 18.5279 67.1276 18.5093 67.2788 18.4814C67.4301 18.4534 67.5561 18.4161 67.6695 18.3602C67.783 18.3044 67.8586 18.2391 67.9216 18.1646C67.9847 18.09 68.0099 17.9969 68.0099 17.9037C68.0099 17.7174 67.909 17.5777 67.6948 17.4658ZM74.5047 20H75.0413V18.813L77 17H76.3762L74.7792 18.5047L73.1948 17H72.546L74.5047 18.813V20Z" fill="url(#paint1_linear_114_4777)"/>
<defs>
<linearGradient id="paint0_linear_114_4777" x1="-7.68478" y1="1.53988" x2="110.592" y2="16.273" gradientUnits="userSpaceOnUse">
<stop offset="0.128052" stop-color="#8A3904"/>
<stop offset="0.418688" stop-color="#E2BDAA"/>
<stop offset="0.906142" stop-color="#8A3904"/>
</linearGradient>
<linearGradient id="paint1_linear_114_4777" x1="31.0229" y1="17.3553" x2="75.6036" y2="26.6775" gradientUnits="userSpaceOnUse">
<stop offset="0.128052" stop-color="#8A3904"/>
<stop offset="0.418688" stop-color="#E2BDAA"/>
<stop offset="0.906142" stop-color="#8A3904"/>
</linearGradient>
</defs>
</svg>
