<svg width="642" height="114" viewBox="0 0 642 114" fill="none" xmlns="http://www.w3.org/2000/svg">
<path fill-rule="evenodd" clip-rule="evenodd" d="M160.986 0H294.355H305.745V9.71887V63.0703V72.7891H294.355H160.986H149.596V63.0703V9.71887V0H160.986ZM160.986 63.0703H294.355V9.71887H160.986V63.0703ZM335.505 0V63.0703H474.018V72.7369H335.505H324.116V63.0703V0H335.505ZM629.857 0H495.879H484.489V9.71887V63.0703V72.7891H495.879H629.857H641.25V63.0703V9.71887V0H629.857ZM629.857 63.0703H495.879V9.71887H629.857V63.0703ZM130.613 0V9.71887H11.3893V30.9861H119.224H130.613V40.7056V63.0703V72.7369H119.224H0V63.0703H119.224V40.7056H11.3893H0V30.9861V9.71887V0H11.3893H130.613Z" fill="url(#paint0_linear_491_4756)"/>
<path fill-rule="evenodd" clip-rule="evenodd" d="M203.324 95.4559H200.285V113.088H218.737V111.226H203.324V95.4559ZM261.361 108.721C261.851 107.75 262.13 106.671 262.13 105.377H262.2V95.4559H259.195V105.539C259.195 107.426 258.496 108.828 257.028 109.799C255.629 110.77 253.673 111.255 251.226 111.255C248.71 111.255 246.683 110.77 245.285 109.745C243.817 108.774 243.118 107.319 243.118 105.431V95.4559H240.112V105.539C240.112 106.779 240.322 107.858 240.881 108.774C241.371 109.745 242.14 110.5 243.118 111.147C244.097 111.794 245.285 112.279 246.613 112.603C247.941 112.926 249.479 113.088 251.086 113.088C252.764 113.088 254.302 112.926 255.629 112.603C257.028 112.279 258.146 111.794 259.125 111.147C260.103 110.5 260.802 109.691 261.361 108.721ZM304.248 113.088L295.652 105.508L287.056 113.088H283.575L293.876 104.08L283.931 95.4559H287.482L295.723 102.652L303.893 95.4559H307.444L297.499 104.08L307.8 113.088H304.248ZM350.424 108.721C350.913 107.75 351.193 106.671 351.193 105.377H351.262V95.4559H348.257V105.539C348.257 107.426 347.558 108.828 346.09 109.799C344.693 110.77 342.735 111.255 340.289 111.255C337.772 111.255 335.746 110.77 334.348 109.745C332.879 108.774 332.18 107.319 332.18 105.431V95.4559H329.175V105.539C329.175 106.779 329.384 107.858 329.944 108.774C330.433 109.745 331.202 110.5 332.18 111.147C333.159 111.794 334.347 112.279 335.675 112.603C337.003 112.926 338.542 113.088 340.149 113.088C341.826 113.088 343.364 112.926 344.693 112.603C346.09 112.279 347.208 111.794 348.187 111.147C349.166 110.5 349.865 109.691 350.424 108.721ZM390.985 113.033L383.222 106.188H375.672V113.033H372.637V95.4559H384.14C385.622 95.4559 386.962 95.5654 388.092 95.839C389.291 96.1132 390.279 96.4415 391.126 96.9346C391.973 97.3724 392.608 97.9749 393.102 98.5774C393.525 99.234 393.807 99.946 393.807 100.713C393.807 101.425 393.596 102.082 393.243 102.684C392.89 103.286 392.397 103.779 391.761 104.217C391.126 104.655 390.35 104.984 389.433 105.312C388.515 105.586 387.598 105.805 386.539 105.915L394.725 113.088H390.985V113.033ZM388.939 98.1938C387.739 97.5912 386.045 97.2629 383.928 97.2629H375.672V104.436H383.858C384.845 104.436 385.763 104.327 386.61 104.162C387.457 103.998 388.162 103.779 388.797 103.451C389.433 103.122 389.856 102.739 390.208 102.301C390.562 101.862 390.703 101.315 390.703 100.767C390.703 99.6724 390.138 98.851 388.939 98.1938ZM427.067 113.088H430.071V106.112L441.038 95.4559H437.545L428.604 104.299L419.732 95.4559H416.1L427.067 106.112V113.088Z" fill="url(#paint1_linear_491_4756)"/>
<defs>
<linearGradient id="paint0_linear_491_4756" x1="-44.3952" y1="8.62205" x2="638.222" y2="96.3529" gradientUnits="userSpaceOnUse">
<stop offset="0.128052" stop-color="#8A3904"/>
<stop offset="0.418688" stop-color="#E2BDAA"/>
<stop offset="0.906142" stop-color="#8A3904"/>
</linearGradient>
<linearGradient id="paint1_linear_491_4756" x1="183.617" y1="97.5444" x2="434.191" y2="147.459" gradientUnits="userSpaceOnUse">
<stop offset="0.128052" stop-color="#8A3904"/>
<stop offset="0.418688" stop-color="#E2BDAA"/>
<stop offset="0.906142" stop-color="#8A3904"/>
</linearGradient>
</defs>
</svg>
