<svg width="20" height="22" viewBox="0 0 20 22" fill="none" xmlns="http://www.w3.org/2000/svg">
<path fill-rule="evenodd" clip-rule="evenodd" d="M9.88897 11.8542H9.81187C8.40004 11.8314 7.25806 11.3622 6.41963 10.4647C4.56451 8.48747 4.87289 5.09795 4.90662 4.77449C5.02708 2.32802 6.26062 1.16629 7.27251 0.624146C8.27958 0.0820046 9.33002 0 9.86487 0H9.89378H9.91306H9.94679C10.9201 0.0182232 11.7923 0.236902 12.5391 0.642369C13.5414 1.18451 14.7557 2.34624 14.8761 4.77449C14.9099 5.09795 15.2182 8.48747 13.3631 10.4647C12.5199 11.3622 11.3779 11.8314 9.96606 11.8542H9.91788H9.88897ZM6.19594 4.86627C6.19463 4.87304 6.19317 4.88056 6.19317 4.88809C6.18835 4.91542 5.86069 8.02704 7.38816 9.64891C7.99047 10.2958 8.8048 10.6147 9.86487 10.6239H9.88897H9.91306C10.978 10.6147 11.7875 10.2958 12.3946 9.64891C13.9269 8.01793 13.5896 4.91998 13.5848 4.88809C13.58 4.87898 13.58 4.86531 13.58 4.85164C13.4306 1.7628 11.2189 1.26166 9.91788 1.23433H9.87933H9.86006C8.80962 1.23433 6.35699 1.58513 6.19798 4.85164C6.19798 4.85574 6.19701 4.86075 6.19594 4.86627Z" fill="#5E5E5E"/>
<path d="M19.791 17.476C19.791 17.4714 19.791 17.4669 19.791 17.4623C19.791 17.4258 19.7861 17.3894 19.7861 17.3484C19.7572 16.4464 19.6946 14.337 17.6034 13.6628C17.5889 13.6582 17.5696 13.6536 17.5552 13.6491C15.382 13.1252 13.5751 11.9407 13.5558 11.927C13.2619 11.7311 12.8571 11.7994 12.6499 12.0773C12.4427 12.3552 12.515 12.7379 12.8089 12.9338C12.8908 12.9885 14.8086 14.2505 17.2082 14.8336C18.3309 15.2117 18.4562 16.3461 18.49 17.3848C18.49 17.4258 18.49 17.4623 18.4948 17.4987C18.4996 17.9088 18.4707 18.542 18.3936 18.9065C17.613 19.3256 14.5532 20.7744 9.89854 20.7744C5.26313 20.7744 2.1841 19.3211 1.39868 18.9019C1.32158 18.5375 1.28786 17.9042 1.29749 17.4942C1.29749 17.4577 1.30231 17.4213 1.30231 17.3803C1.33604 16.3416 1.46132 15.2072 2.58404 14.829C4.98366 14.2459 6.90143 12.9794 6.98334 12.9293C7.27727 12.7334 7.34955 12.3507 7.14235 12.0728C6.93516 11.7949 6.5304 11.7265 6.23647 11.9224C6.2172 11.9361 4.41989 13.1206 2.2371 13.6445C2.21783 13.6491 2.20337 13.6536 2.18892 13.6582C0.0976818 14.337 0.035041 16.4464 0.00612995 17.3438C0.00612995 17.3848 0.00612995 17.4213 0.00131143 17.4577C0.00131143 17.4623 0.00131143 17.4669 0.00131143 17.4714C-0.00350708 17.7083 -0.00832559 18.9247 0.247056 19.5352C0.295241 19.6536 0.381974 19.7539 0.497619 19.8222C0.642174 19.9133 4.10669 21.9999 9.90336 21.9999C15.7 21.9999 19.1645 19.9088 19.3091 19.8222C19.4199 19.7539 19.5115 19.6536 19.5597 19.5352C19.8006 18.9293 19.7958 17.7129 19.791 17.476Z" fill="#5E5E5E"/>
</svg>
