<svg width="18" height="22" viewBox="0 0 18 22" fill="none" xmlns="http://www.w3.org/2000/svg">
<path d="M17.5955 19.0172L16.3364 4.8319C16.3095 4.51697 16.0441 4.27853 15.7339 4.27853H13.1438C13.1078 1.91207 11.1742 0 8.8 0C6.42575 0 4.49218 1.91207 4.45621 4.27853H1.86612C1.55135 4.27853 1.29055 4.51697 1.26357 4.8319L0.00449678 19.0172C0.00449678 19.0352 0 19.0532 0 19.0712C0 20.6863 1.47941 22 3.30056 22H14.2994C16.1206 22 17.6 20.6863 17.6 19.0712C17.6 19.0532 17.6 19.0352 17.5955 19.0172ZM8.8 1.21472C10.5042 1.21472 11.8937 2.58241 11.9297 4.27853H5.67031C5.70628 2.58241 7.09576 1.21472 8.8 1.21472ZM14.2994 20.7853H3.30056C2.15841 20.7853 1.23209 20.0294 1.2141 19.0982L2.41921 5.49775H4.45171V7.34233C4.45171 7.67975 4.72151 7.94969 5.05876 7.94969C5.39601 7.94969 5.66581 7.67975 5.66581 7.34233V5.49775H11.9297V7.34233C11.9297 7.67975 12.1995 7.94969 12.5367 7.94969C12.874 7.94969 13.1438 7.67975 13.1438 7.34233V5.49775H15.1763L16.3859 19.0982C16.3679 20.0294 15.4371 20.7853 14.2994 20.7853Z" fill="#5D5D5D"/>
</svg>
