<svg width="22" height="20" viewBox="0 0 22 20" fill="none" xmlns="http://www.w3.org/2000/svg">
<path fill-rule="evenodd" clip-rule="evenodd" d="M11.4439 0.203269L21.7969 9.02385C22.0458 9.23941 22.0684 9.60585 21.8512 9.84728C21.729 9.97661 21.5616 10.0413 21.3942 10.0413C21.2494 10.0413 21.1046 9.99386 20.9869 9.8947L19.1227 8.30389V11.9037V13.3695V18.1635C19.1227 19.1938 18.4439 20 17.5842 20H14.3172C13.5208 20 12.8737 19.3835 12.8737 18.6247V13.3953C12.8737 13.2789 12.7742 13.1841 12.652 13.1841H9.35335C9.23118 13.1841 9.13163 13.2789 9.13163 13.3953V18.6247C9.13163 19.3835 8.48457 20 7.68818 20H4.49359H4.45739H4.42119C3.57051 20 2.88272 19.3404 2.88272 18.5342V13.1625V8.55825V8.24785L1.01845 9.83866C0.900802 9.93781 0.756005 9.98523 0.611207 9.98523C0.443785 9.98523 0.276363 9.92057 0.154191 9.79123C-0.0675306 9.54981 -0.0494309 9.18336 0.203965 8.96781L10.557 0.147224C10.7968 -0.0553995 11.1588 -0.0467773 11.385 0.160157C11.4077 0.173091 11.4258 0.186024 11.4439 0.203269ZM17.8964 13.3652V11.8994V7.2606L10.9688 1.35865L4.09992 7.20455V8.55394V13.1582V18.5342C4.09992 18.7023 4.24472 18.836 4.41667 18.836H4.45287H4.48906H7.68366C7.80583 18.836 7.90538 18.7411 7.90538 18.6247V13.3953C7.90538 12.6366 8.55244 12.0201 9.34883 12.0201H12.6475C13.4439 12.0201 14.0909 12.6366 14.0909 13.3953V18.6161C14.0909 18.7325 14.1905 18.8274 14.3127 18.8274H17.5797C17.6792 18.8274 17.8964 18.573 17.8964 18.1548V13.3652Z" fill="#5D5D5D"/>
</svg>
