<svg width="21" height="21" viewBox="0 0 21 21" fill="none" xmlns="http://www.w3.org/2000/svg">
<path d="M9.025 19.575C9.325 19.875 9.6875 20.025 10.1125 20.025C10.5375 20.025 10.9 19.875 11.2 19.575L20.575 10.2C20.7417 10.0333 20.8542 9.85833 20.9125 9.675C20.9708 9.49167 21 9.3 21 9.1V1.5C21 1.06667 20.8583 0.708333 20.575 0.425C20.2917 0.141667 19.9333 0 19.5 0H11.9C11.7 0 11.5 0.0291668 11.3 0.0875001C11.1 0.145833 10.9167 0.258333 10.75 0.425L1.425 9.75C1.10833 10.0667 0.950001 10.4375 0.950001 10.8625C0.950001 11.2875 1.10833 11.6583 1.425 11.975L9.025 19.575ZM10.05 18.55L2.45 10.95L11.9 1.5H19.5V9.1L10.05 18.55ZM16.875 5.4C16.525 5.4 16.2208 5.27083 15.9625 5.0125C15.7042 4.75417 15.575 4.45 15.575 4.1C15.575 3.75 15.7042 3.44583 15.9625 3.1875C16.2208 2.92917 16.525 2.8 16.875 2.8C17.225 2.8 17.5292 2.92917 17.7875 3.1875C18.0458 3.44583 18.175 3.75 18.175 4.1C18.175 4.45 18.0458 4.75417 17.7875 5.0125C17.5292 5.27083 17.225 5.4 16.875 5.4Z" fill="black" fill-opacity="0.6"/>
</svg>
