<svg width="24" height="24" viewBox="0 0 24 24" fill="none" xmlns="http://www.w3.org/2000/svg">
<path d="M20.6041 19.3962L20.6044 19.3965C20.684 19.4755 20.7473 19.5695 20.7904 19.6731C20.8336 19.7767 20.8558 19.8878 20.8558 20C20.8558 20.1122 20.8336 20.2233 20.7904 20.3269C20.7473 20.4305 20.684 20.5245 20.6044 20.6035L20.6035 20.6044C20.5245 20.684 20.4305 20.7473 20.3269 20.7904C20.2233 20.8336 20.1122 20.8558 20 20.8558C19.8878 20.8558 19.7767 20.8336 19.6731 20.7904C19.5695 20.7473 19.4755 20.684 19.3965 20.6044L19.3962 20.6041L16.0062 17.2041L15.9122 17.1098L15.8074 17.192C14.4363 18.2682 12.7432 18.8522 11.0002 18.85H11C9.44742 18.85 7.9297 18.3896 6.63878 17.527C5.34785 16.6645 4.3417 15.4385 3.74755 14.0041C3.1534 12.5697 2.99795 10.9913 3.30084 9.46854C3.60373 7.94579 4.35137 6.54706 5.44922 5.44922C6.54706 4.35137 7.94579 3.60373 9.46854 3.30084C10.9913 2.99795 12.5697 3.1534 14.0041 3.74755C15.4385 4.3417 16.6645 5.34785 17.527 6.63878C18.3896 7.9297 18.85 9.44742 18.85 11L18.85 11.0002C18.8522 12.7432 18.2682 14.4363 17.192 15.8074L17.1098 15.9122L17.2041 16.0062L20.6041 19.3962ZM5.88647 7.58325C5.21069 8.59461 4.85 9.78365 4.85 11C4.85 12.6311 5.49795 14.1954 6.6513 15.3487C7.80465 16.5021 9.36892 17.15 11 17.15C12.2164 17.15 13.4054 16.7893 14.4168 16.1135C15.4281 15.4378 16.2164 14.4773 16.6819 13.3535C17.1473 12.2297 17.2691 10.9932 17.0318 9.8002C16.7945 8.60722 16.2088 7.51139 15.3487 6.6513C14.4886 5.7912 13.3928 5.20547 12.1998 4.96817C11.0068 4.73087 9.77027 4.85267 8.6465 5.31814C7.52274 5.78362 6.56224 6.57188 5.88647 7.58325Z" fill="#898989" stroke="white" stroke-width="0.3"/>
</svg>
