<svg width="24" height="24" viewBox="0 0 24 24" fill="none" xmlns="http://www.w3.org/2000/svg">
<path d="M22.6754 21.1169L19.5694 18.0219C21.2532 15.9418 22.0746 13.2949 21.8642 10.6269C21.6538 7.95901 20.4277 5.47352 18.4387 3.68299C16.4497 1.89246 13.8495 0.933408 11.1742 1.0036C8.49895 1.07379 5.95259 2.16787 4.06023 4.06023C2.16787 5.95259 1.07379 8.49895 1.0036 11.1742C0.933408 13.8495 1.89246 16.4497 3.68299 18.4387C5.47352 20.4277 7.95901 21.6538 10.6269 21.8642C13.2949 22.0746 15.9418 21.2532 18.0219 19.5694L21.1169 22.6754C21.2189 22.7782 21.3403 22.8599 21.4741 22.9156C21.6078 22.9713 21.7512 23 21.8961 23C22.041 23 22.1845 22.9713 22.3182 22.9156C22.4519 22.8599 22.5733 22.7782 22.6754 22.6754C22.7782 22.5733 22.8599 22.4519 22.9156 22.3182C22.9713 22.1845 23 22.041 23 21.8961C23 21.7512 22.9713 21.6078 22.9156 21.4741C22.8599 21.3403 22.7782 21.2189 22.6754 21.1169V21.1169ZM3.23852 11.4698C3.23852 9.84182 3.72128 8.25038 4.62574 6.89675C5.53021 5.54312 6.81576 4.4881 8.31984 3.86509C9.82391 3.24208 11.4789 3.07907 13.0757 3.39668C14.6724 3.71429 16.1391 4.49824 17.2902 5.64941C18.4414 6.80058 19.2253 8.26726 19.543 9.86397C19.8606 11.4607 19.6976 13.1157 19.0745 14.6198C18.4515 16.1239 17.3965 17.4094 16.0429 18.3139C14.6893 19.2184 13.0978 19.7011 11.4698 19.7011C9.28674 19.7011 7.19308 18.8339 5.64941 17.2902C4.10574 15.7466 3.23852 13.6529 3.23852 11.4698V11.4698Z" fill="black" fill-opacity="0.6" stroke="#F6F6F6" stroke-width="0.8"/>
</svg>
