<svg width="22" height="22" viewBox="0 0 22 22" fill="none" xmlns="http://www.w3.org/2000/svg">
<path d="M21.6754 20.1169L18.5694 17.0219C20.2532 14.9418 21.0746 12.2949 20.8642 9.62693C20.6538 6.959 19.4277 4.47352 17.4387 2.68299C15.4497 0.892459 12.8495 -0.0665919 10.1742 0.00359786C7.49895 0.0737877 4.95259 1.16787 3.06023 3.06023C1.16787 4.95259 0.0737877 7.49895 0.00359786 10.1742C-0.0665919 12.8495 0.892459 15.4497 2.68299 17.4387C4.47352 19.4277 6.959 20.6538 9.62693 20.8642C12.2949 21.0746 14.9418 20.2532 17.0219 18.5694L20.1169 21.6754C20.2189 21.7782 20.3403 21.8599 20.4741 21.9156C20.6078 21.9713 20.7512 22 20.8961 22C21.041 22 21.1845 21.9713 21.3182 21.9156C21.4519 21.8599 21.5733 21.7782 21.6754 21.6754C21.7782 21.5733 21.8599 21.4519 21.9156 21.3182C21.9713 21.1845 22 21.041 22 20.8961C22 20.7512 21.9713 20.6078 21.9156 20.4741C21.8599 20.3403 21.7782 20.2189 21.6754 20.1169ZM2.23852 10.4698C2.23852 8.84182 2.72128 7.25038 3.62574 5.89675C4.53021 4.54312 5.81576 3.4881 7.31984 2.86509C8.82391 2.24208 10.4789 2.07907 12.0757 2.39668C13.6724 2.71429 15.1391 3.49824 16.2902 4.64941C17.4414 5.80058 18.2253 7.26726 18.543 8.86397C18.8606 10.4607 18.6976 12.1157 18.0745 13.6198C17.4515 15.1239 16.3965 16.4094 15.0429 17.3139C13.6893 18.2184 12.0978 18.7011 10.4698 18.7011C8.28674 18.7011 6.19308 17.8339 4.64941 16.2902C3.10574 14.7466 2.23852 12.6529 2.23852 10.4698Z" fill="#8A3A06"/>
</svg>
