<svg width="23" height="22" viewBox="0 0 23 22" fill="none" xmlns="http://www.w3.org/2000/svg">
<path d="M12.5 1L2 11.5V12.5L11 21L22 10V1H12.5Z" fill="#8A3A06"/>
<path d="M9.84394 21.5056C10.1735 21.8352 10.5718 22 11.0387 22C11.5056 22 11.9039 21.8352 12.2335 21.5056L22.5331 11.206C22.7162 11.0229 22.8398 10.8306 22.9039 10.6292C22.968 10.4278 23 10.2172 23 9.9975V1.64794C23 1.17187 22.8444 0.778194 22.5331 0.466916C22.2218 0.155639 21.8281 0 21.3521 0H13.0025C12.7828 0 12.563 0.0320434 12.3433 0.0961299C12.1236 0.160217 11.9222 0.283812 11.7391 0.466916L1.49438 10.7116C1.14648 11.0595 0.972534 11.4669 0.972534 11.9338C0.972534 12.4007 1.14648 12.8082 1.49438 13.1561L9.84394 21.5056ZM10.97 20.3795L2.62048 12.03L13.0025 1.64794H21.3521V9.9975L10.97 20.3795ZM18.4682 5.93258C18.0836 5.93258 17.7495 5.79068 17.4657 5.50687C17.1819 5.22305 17.0399 4.88889 17.0399 4.50437C17.0399 4.11985 17.1819 3.78568 17.4657 3.50187C17.7495 3.21806 18.0836 3.07615 18.4682 3.07615C18.8527 3.07615 19.1868 3.21806 19.4707 3.50187C19.7545 3.78568 19.8964 4.11985 19.8964 4.50437C19.8964 4.88889 19.7545 5.22305 19.4707 5.50687C19.1868 5.79068 18.8527 5.93258 18.4682 5.93258Z" fill="#8A3A06"/>
<circle cx="18.5" cy="4.5" r="1.5" fill="#F6F6F6"/>
</svg>
