<svg width="24" height="24" viewBox="0 0 24 24" fill="none" xmlns="http://www.w3.org/2000/svg">
<path d="M9.84394 22.5056C10.1735 22.8352 10.5718 23 11.0387 23C11.5056 23 11.9039 22.8352 12.2335 22.5056L22.5331 12.206C22.7162 12.0229 22.8398 11.8306 22.9039 11.6292C22.968 11.4278 23 11.2172 23 10.9975V2.64794C23 2.17187 22.8444 1.77819 22.5331 1.46692C22.2218 1.15564 21.8281 1 21.3521 1H13.0025C12.7828 1 12.563 1.03204 12.3433 1.09613C12.1236 1.16022 11.9222 1.28381 11.7391 1.46692L1.49438 11.7116C1.14648 12.0595 0.972534 12.4669 0.972534 12.9338C0.972534 13.4007 1.14648 13.8082 1.49438 14.1561L9.84394 22.5056ZM10.97 21.3795L2.62048 13.03L13.0025 2.64794H21.3521V10.9975L10.97 21.3795ZM18.4682 6.93258C18.0836 6.93258 17.7495 6.79068 17.4657 6.50687C17.1819 6.22305 17.0399 5.88889 17.0399 5.50437C17.0399 5.11985 17.1819 4.78568 17.4657 4.50187C17.7495 4.21806 18.0836 4.07615 18.4682 4.07615C18.8527 4.07615 19.1868 4.21806 19.4707 4.50187C19.7545 4.78568 19.8964 5.11985 19.8964 5.50437C19.8964 5.88889 19.7545 6.22305 19.4707 6.50687C19.1868 6.79068 18.8527 6.93258 18.4682 6.93258Z" fill="#5E5E5E" stroke="#F6F6F6" stroke-width="0.3"/>
</svg>
