<svg width="20" height="22" viewBox="0 0 20 22" fill="none" xmlns="http://www.w3.org/2000/svg">
<path fill-rule="evenodd" clip-rule="evenodd" d="M9.88897 11.8542H9.81187C8.40004 11.8314 7.25806 11.3622 6.41963 10.4647C4.56451 8.48747 4.87289 5.09795 4.90662 4.77449C5.02708 2.32802 6.26062 1.16629 7.27251 0.624146C8.27958 0.0820046 9.33002 0 9.86487 0H9.89378H9.91306H9.94679C10.9201 0.0182232 11.7923 0.236902 12.5391 0.642369C13.5414 1.18451 14.7557 2.34624 14.8761 4.77449C14.9099 5.09795 15.2182 8.48747 13.3631 10.4647C12.5199 11.3622 11.3779 11.8314 9.96606 11.8542H9.91788H9.88897ZM6.19594 4.86627C6.19463 4.87304 6.19317 4.88056 6.19317 4.88809C6.18835 4.91542 5.86069 8.02704 7.38816 9.64891C7.99047 10.2958 8.8048 10.6147 9.86487 10.6239H9.88897H9.91306C10.978 10.6147 11.7875 10.2958 12.3946 9.64891C13.9269 8.01793 13.5896 4.91998 13.5848 4.88809C13.58 4.87898 13.58 4.86531 13.58 4.85164C13.4306 1.7628 11.2189 1.26166 9.91788 1.23433H9.87933H9.86006C8.80962 1.23433 6.35699 1.58513 6.19798 4.85164C6.19798 4.85574 6.19701 4.86075 6.19594 4.86627Z" fill="#5E5E5E"/>
<path d="M19.791 17.4762C19.791 17.4717 19.791 17.4671 19.791 17.4625C19.791 17.4261 19.7861 17.3896 19.7861 17.3486C19.7572 16.4466 19.6946 14.3373 17.6033 13.663C17.5889 13.6584 17.5696 13.6539 17.5552 13.6493C15.382 13.1254 13.5751 11.9409 13.5558 11.9272C13.2619 11.7313 12.8571 11.7997 12.6499 12.0776C12.4427 12.3555 12.515 12.7382 12.8089 12.9341C12.8908 12.9887 14.8086 14.2507 17.2082 14.8338C18.3309 15.212 18.4562 16.3464 18.49 17.3851C18.49 17.4261 18.49 17.4625 18.4948 17.499C18.4996 17.909 18.4707 18.5423 18.3936 18.9067C17.613 19.3259 14.5532 20.7746 9.89854 20.7746C5.26313 20.7746 2.1841 19.3213 1.39868 18.9022C1.32158 18.5377 1.28786 17.9045 1.29749 17.4944C1.29749 17.458 1.30231 17.4215 1.30231 17.3805C1.33604 16.3418 1.46132 15.2074 2.58404 14.8293C4.98366 14.2461 6.90143 12.9796 6.98334 12.9295C7.27727 12.7336 7.34955 12.3509 7.14235 12.073C6.93516 11.7951 6.5304 11.7268 6.23647 11.9227C6.2172 11.9363 4.41989 13.1209 2.2371 13.6448C2.21783 13.6493 2.20337 13.6539 2.18892 13.6584C0.0976818 14.3373 0.035041 16.4466 0.00612995 17.3441C0.00612995 17.3851 0.00612995 17.4215 0.00131143 17.458C0.00131143 17.4625 0.00131143 17.4671 0.00131143 17.4717C-0.00350708 17.7086 -0.00832559 18.925 0.247056 19.5354C0.295241 19.6539 0.381974 19.7541 0.497619 19.8224C0.642174 19.9136 4.10669 22.0001 9.90336 22.0001C15.7 22.0001 19.1645 19.909 19.3091 19.8224C19.4199 19.7541 19.5115 19.6539 19.5597 19.5354C19.8006 18.9295 19.7958 17.7131 19.791 17.4762Z" fill="#5E5E5E"/>
</svg>
