<svg width="19" height="23" viewBox="0 0 19 23" fill="none" xmlns="http://www.w3.org/2000/svg">
<path d="M16.256 22.5825H3.20269C2.90429 22.5829 2.60893 22.5225 2.33458 22.4051C2.06023 22.2878 1.81263 22.1158 1.60684 21.8997C1.40104 21.6836 1.24136 21.4279 1.1375 21.1482C1.03364 20.8685 0.987771 20.5705 1.00269 20.2725L1.59669 7.62981C1.62127 7.06302 1.86387 6.52763 2.27381 6.13545C2.68376 5.74327 3.22936 5.52461 3.79669 5.52515H15.662C16.2294 5.52461 16.775 5.74327 17.1849 6.13545C17.5948 6.52763 17.8374 7.06302 17.862 7.62981L18.456 20.2725C18.4709 20.5705 18.4251 20.8685 18.3212 21.1482C18.2174 21.4279 18.0577 21.6836 17.8519 21.8997C17.6461 22.1158 17.3985 22.2878 17.1241 22.4051C16.8498 22.5225 16.5544 22.5829 16.256 22.5825ZM3.79669 6.99915C3.6022 6.99915 3.41567 7.07641 3.27815 7.21394C3.14062 7.35146 3.06336 7.53799 3.06336 7.73248L2.46936 20.3458C2.46438 20.4452 2.47967 20.5445 2.51429 20.6377C2.54891 20.731 2.60214 20.8162 2.67074 20.8882C2.73934 20.9603 2.82187 21.0176 2.91332 21.0567C3.00477 21.0958 3.10322 21.1159 3.20269 21.1158H16.256C16.3555 21.1159 16.4539 21.0958 16.5454 21.0567C16.6368 21.0176 16.7194 20.9603 16.788 20.8882C16.8566 20.8162 16.9098 20.731 16.9444 20.6377C16.979 20.5445 16.9943 20.4452 16.9894 20.3458L16.3954 7.70315C16.3954 7.50866 16.3181 7.32213 16.1806 7.1846C16.043 7.04708 15.8565 6.96981 15.662 6.96981L3.79669 6.99915Z" fill="#212121" stroke="#212121" stroke-width="0.3"/>
<path d="M14.1294 6.26536H12.6627V4.98203C12.6627 4.20406 12.3537 3.45796 11.8036 2.90785C11.2535 2.35774 10.5074 2.0487 9.72941 2.0487C8.95144 2.0487 8.20533 2.35774 7.65523 2.90785C7.10512 3.45796 6.79607 4.20406 6.79607 4.98203V6.26536H5.32941V4.98203C5.32941 3.81508 5.79298 2.69592 6.61814 1.87076C7.4433 1.0456 8.56245 0.582031 9.72941 0.582031C10.8964 0.582031 12.0155 1.0456 12.8407 1.87076C13.6658 2.69592 14.1294 3.81508 14.1294 4.98203V6.26536Z" fill="#212121" stroke="#212121" stroke-width="0.3"/>
</svg>
