<svg width="11" height="12" viewBox="0 0 11 12" fill="none" xmlns="http://www.w3.org/2000/svg">
<path d="M2.12897 10.1045C2.24432 10.1045 2.2674 10.0925 2.37122 10.0685L4.44762 9.63659C4.6668 9.57661 4.88597 9.46863 5.05901 9.28868L10.0885 4.05799C10.8614 3.25419 10.8614 1.87453 10.0885 1.07073L9.6617 0.602849C8.88882 -0.20095 7.55069 -0.20095 6.77781 0.602849L1.74829 5.84554C1.5868 6.0135 1.47144 6.25344 1.41376 6.48138L0.975411 8.66483C0.917733 9.07273 1.03309 9.46863 1.30994 9.75656C1.52912 9.98451 1.85211 10.1045 2.12897 10.1045ZM2.52118 6.70932L7.55069 1.46663C7.88522 1.11872 8.49661 1.11872 8.8196 1.46663L9.25796 1.92252C9.65017 2.33042 9.65017 2.90627 9.25796 3.30217L4.23998 8.54486L2.1059 8.91677L2.52118 6.70932Z" fill="#204751"/>
<path d="M10.0435 10.8486H1.53027C1.19574 10.8486 0.976562 11.0766 0.976562 11.4245C0.976562 11.7724 1.25342 12.0003 1.53027 12.0003H9.99739C10.3319 12.0003 10.6088 11.7724 10.6088 11.4245C10.5972 11.0766 10.3204 10.8486 10.0435 10.8486Z" fill="#204751"/>
</svg>
