<svg width="676" height="82" viewBox="0 0 676 82" fill="none" xmlns="http://www.w3.org/2000/svg">
<path d="M469.5 51.4L485 56.3C482.6 64.9 478.7 71.4 473.2 75.5C467.7 79.7 460.7 81.8 452.2 81.8C441.7 81.8 433.1 78.2 426.3 71C419.5 63.8 416.2 54 416.2 41.6C416.2 28.4 419.6 18.2 426.4 10.9C433 3.6 442 0 453.1 0C462.8 0 470.6 2.9 476.7 8.6C480.3 12 483 16.8 484.8 23.2L469 27C468.1 22.9 466.1 19.7 463.1 17.3C460.1 14.9 456.5 13.7 452.3 13.7C446.4 13.7 441.7 15.8 438 20C434.3 24.2 432.5 31 432.5 40.5C432.5 50.5 434.3 57.6 437.9 61.9C441.5 66.1 446.2 68.3 451.9 68.3C456.1 68.3 459.8 67 462.9 64.3C466 61.4 468.1 57.2 469.5 51.4Z" fill="#357787"/>
<path d="M498.7 80.5V1.30005H514.7V32.4001H546V1.30005H562V80.4H546V45.9001H514.7V80.5H498.7Z" fill="#357787"/>
<path d="M578 80.5V1.30005H594V80.4H578V80.5Z" fill="#357787"/>
<path d="M659.9 51.4L675.4 56.3C673 64.9 669.1 71.4 663.6 75.5C658.1 79.7 651.1 81.8 642.6 81.8C632.1 81.8 623.5 78.2 616.7 71C609.9 63.8 606.6 54 606.6 41.6C606.6 28.4 610 18.2 616.8 10.9C623.4 3.6 632.4 0 643.5 0C653.2 0 661 2.9 667.1 8.6C670.7 12 673.4 16.8 675.2 23.2L659.4 27C658.5 22.9 656.5 19.7 653.5 17.3C650.5 14.9 646.9 13.7 642.7 13.7C636.8 13.7 632.1 15.8 628.4 20C624.7 24.2 622.9 31 622.9 40.5C622.9 50.5 624.7 57.6 628.3 61.9C631.9 66.1 636.6 68.3 642.3 68.3C646.5 68.3 650.2 67 653.3 64.3C656.3 61.4 658.5 57.2 659.9 51.4Z" fill="#357787"/>
<path d="M79.4 80.5H62L55.1 62.5H23.5L17 80.5H0L30.8 1.30005H47.7L79.4 80.5ZM50 49.2001L39.1 19.8L28.4 49.2001H50Z" fill="#357787"/>
<path d="M99.9001 80.5L71.6001 1.30005H88.9001L108.9 59.9001L128.3 1.30005H145.3L117 80.4H99.9001V80.5Z" fill="#357787"/>
<path d="M245.1 80.5V1.30005H261.1V80.4H245.1V80.5Z" fill="#357787"/>
<path d="M276.3 80.5V1.30005H310C318.5 1.30005 324.6 2.00005 328.4 3.40005C332.2 4.80005 335.3 7.30005 337.6 11C339.9 14.6 341.1 18.8 341.1 23.5C341.1 29.4 339.4 34.3 335.9 38.2001C332.4 42.1001 327.2 44.5 320.2 45.5C323.7 47.5 326.5 49.7 328.8 52.1C331 54.5 334.1 58.8001 337.9 64.9001L347.6 80.3H328.5L316.9 63.1C312.8 56.9 310 53.1 308.5 51.5C307 49.9001 305.4 48.8 303.7 48.2001C302 47.6001 299.3 47.3 295.7 47.3H292.5V80.3H276.3V80.5ZM292.3 34.8H304.1C311.8 34.8 316.6 34.5 318.5 33.8C320.4 33.2 321.9 32 323 30.5C324.1 28.9 324.6 26.9 324.6 24.6C324.6 21.9 323.9 19.8001 322.5 18.1C321.1 16.5 319.1 15.4 316.5 15C315.2 14.8 311.3 14.7 304.8 14.7H292.3V34.8Z" fill="#357787"/>
<path d="M190.6 80.4C168.8 80.4 151.1 62.7 151.1 40.9C151.1 19.1 168.8 1.40002 190.6 1.40002C212.4 1.40002 230.1 19.1 230.1 40.9C230.1 62.7 212.4 80.4 190.6 80.4ZM190.6 16.6C177.2 16.6 166.4 27.5 166.4 40.8C166.4 54.1 177.3 65 190.6 65C204 65 214.8 54.1 214.8 40.8C214.8 27.5 203.9 16.6 190.6 16.6Z" fill="#357787"/>
</svg>
