<svg width="12" height="14" viewBox="0 0 12 14" fill="none" xmlns="http://www.w3.org/2000/svg">
<path d="M11.2787 2.71429H7.98201V2.28571C7.98201 1.94472 7.85177 1.6177 7.61992 1.37658C7.38808 1.13546 7.07363 1 6.74575 1H5.0974C4.76952 1 4.45507 1.13546 4.22323 1.37658C3.99138 1.6177 3.86114 1.94472 3.86114 2.28571V2.71429H0.564432C0.455139 2.71429 0.350323 2.75944 0.273041 2.83981C0.19576 2.92018 0.152344 3.02919 0.152344 3.14286C0.152344 3.25652 0.19576 3.36553 0.273041 3.4459C0.350323 3.52628 0.455139 3.57143 0.564432 3.57143H1.8007V10.8571C1.80135 11.4253 2.01864 11.9699 2.40491 12.3716C2.79117 12.7733 3.31487 12.9993 3.86114 13H7.98201C8.52828 12.9993 9.05198 12.7733 9.43824 12.3716C9.82451 11.9699 10.0418 11.4253 10.0425 10.8571V3.57143H11.2787C11.388 3.57143 11.4928 3.52628 11.5701 3.4459C11.6474 3.36553 11.6908 3.25652 11.6908 3.14286C11.6908 3.02919 11.6474 2.92018 11.5701 2.83981C11.4928 2.75944 11.388 2.71429 11.2787 2.71429ZM4.68531 2.28571C4.68531 2.17205 4.72873 2.06304 4.80601 1.98267C4.88329 1.9023 4.98811 1.85714 5.0974 1.85714H6.74575C6.85504 1.85714 6.95986 1.9023 7.03714 1.98267C7.11442 2.06304 7.15784 2.17205 7.15784 2.28571V2.71429H4.68531V2.28571ZM9.21828 10.8571C9.21828 11.1981 9.08803 11.5252 8.85618 11.7663C8.62434 12.0074 8.30989 12.1429 7.98201 12.1429H3.86114C3.53326 12.1429 3.21881 12.0074 2.98696 11.7663C2.75512 11.5252 2.62487 11.1981 2.62487 10.8571V3.57143H9.21828V10.8571Z" fill="#204751" stroke="#204751" stroke-width="0.2"/>
<path d="M4.68553 5.5C4.57623 5.5 4.47142 5.54515 4.39414 5.62553C4.31685 5.7059 4.27344 5.81491 4.27344 5.92857V9.78571C4.27344 9.89938 4.31685 10.0084 4.39414 10.0888C4.47142 10.1691 4.57623 10.2143 4.68553 10.2143C4.79482 10.2143 4.89963 10.1691 4.97692 10.0888C5.0542 10.0084 5.09761 9.89938 5.09761 9.78571V5.92857C5.09761 5.81491 5.0542 5.7059 4.97692 5.62553C4.89963 5.54515 4.79482 5.5 4.68553 5.5Z" fill="#204751" stroke="#204751" stroke-width="0.2"/>
<path d="M7.15818 5.5C7.04889 5.5 6.94407 5.54515 6.86679 5.62553C6.78951 5.7059 6.74609 5.81491 6.74609 5.92857V9.78571C6.74609 9.89938 6.78951 10.0084 6.86679 10.0888C6.94407 10.1691 7.04889 10.2143 7.15818 10.2143C7.26747 10.2143 7.37229 10.1691 7.44957 10.0888C7.52685 10.0084 7.57027 9.89938 7.57027 9.78571V5.92857C7.57027 5.81491 7.52685 5.7059 7.44957 5.62553C7.37229 5.54515 7.26747 5.5 7.15818 5.5Z" fill="#204751" stroke="#204751" stroke-width="0.2"/>
</svg>
