<svg width="22" height="22" viewBox="0 0 22 22" fill="none" xmlns="http://www.w3.org/2000/svg">
<path d="M9.87115 0C4.43127 0 0 4.43127 0 9.87116C0 15.311 4.43127 19.7509 9.87115 19.7509C12.1947 19.7509 14.3316 18.9366 16.0205 17.5847L20.1323 21.6942C20.3398 21.8931 20.6169 22.0029 20.9043 21.9999C21.1917 21.997 21.4666 21.8817 21.67 21.6785C21.8733 21.4754 21.9891 21.2008 21.9924 20.9134C21.9958 20.626 21.8864 20.3487 21.6878 20.1409L17.5761 16.0292C18.9292 14.3377 19.7444 12.1974 19.7444 9.87116C19.7444 4.43127 15.311 0 9.87115 0ZM9.87115 2.1941C14.1253 2.1941 17.5482 5.61706 17.5482 9.87116C17.5482 14.1253 14.1253 17.5568 9.87115 17.5568C5.61703 17.5568 2.19406 14.1253 2.19406 9.87116C2.19406 5.61706 5.61703 2.1941 9.87115 2.1941Z" fill="#212121"/>
</svg>
