<svg width="20" height="19" viewBox="0 0 20 19" fill="none" xmlns="http://www.w3.org/2000/svg">
<path d="M19.6187 3.54757L19.6186 3.54754C19.503 3.3882 19.3216 3.29375 19.1283 3.29375H5.398L5.0037 1.44839L5.0037 1.44837C4.94167 1.15851 4.69373 0.95 4.40475 0.95H1.02434C0.683704 0.95 0.410937 1.23655 0.410937 1.58594C0.410937 1.93533 0.683704 2.22188 1.02434 2.22188H3.91241L5.92976 11.6634C5.33264 11.9506 4.91816 12.5786 4.91816 13.3047C4.91816 14.2997 5.69696 15.1125 6.65836 15.1125H16.8747C17.2154 15.1125 17.4881 14.826 17.4881 14.4766C17.4881 14.1272 17.2154 13.8406 16.8747 13.8406H6.65836C6.3772 13.8406 6.14496 13.602 6.14496 13.3047C6.14496 13.0079 6.37638 12.7696 6.65702 12.7689H6.65778L6.66164 12.7688H16.8747C17.1499 12.7688 17.3899 12.5791 17.4646 12.3071L17.4164 12.2938L17.4646 12.3071L19.7182 4.10392L19.67 4.09067L19.7182 4.10391C19.7708 3.91262 19.7341 3.7068 19.6187 3.54757ZM6.66405 12.7686C6.66441 12.7685 6.66417 12.7686 6.66355 12.7686L6.66405 12.7686ZM7.1507 11.4969L5.66967 4.56563H18.3158L16.4116 11.4969H7.1507Z" fill="#983134" stroke="#983134" stroke-width="0.1"/>
<path d="M6.04375 16.8203C6.04375 17.8153 6.82255 18.6281 7.78396 18.6281C8.74536 18.6281 9.52416 17.8153 9.52416 16.8203C9.52416 15.8253 8.74536 15.0125 7.78396 15.0125C6.82255 15.0125 6.04375 15.8253 6.04375 16.8203ZM7.78396 16.2844C8.06512 16.2844 8.29736 16.523 8.29736 16.8203C8.29736 17.1176 8.06512 17.3563 7.78396 17.3563C7.5028 17.3563 7.27055 17.1176 7.27055 16.8203C7.27055 16.523 7.5028 16.2844 7.78396 16.2844Z" fill="#983134" stroke="#983134" stroke-width="0.1"/>
<path d="M14.0086 16.8203C14.0086 17.8153 14.7874 18.6281 15.7488 18.6281C16.7102 18.6281 17.489 17.8153 17.489 16.8203C17.489 15.8253 16.7102 15.0125 15.7488 15.0125C14.7874 15.0125 14.0086 15.8253 14.0086 16.8203ZM15.7488 16.2844C16.03 16.2844 16.2622 16.523 16.2622 16.8203C16.2622 17.1176 16.03 17.3563 15.7488 17.3563C15.4676 17.3563 15.2354 17.1176 15.2354 16.8203C15.2354 16.523 15.4676 16.2844 15.7488 16.2844Z" fill="#983134" stroke="#983134" stroke-width="0.1"/>
</svg>
