<svg width="126" height="39" viewBox="0 0 126 39" fill="none" xmlns="http://www.w3.org/2000/svg">
<g filter="url(#filter0_d_138_6546)">
<path d="M54.7262 14.0197C54.5728 13.759 54.3274 13.7283 54.128 13.6516C52.9165 13.1148 51.8429 12.394 51.0454 11.3051C49.5731 9.26534 50.1405 6.45875 52.2877 5.1398C54.3734 3.85153 56.6739 3.49879 59.0818 3.52946C60.7995 3.56014 62.3638 4.02023 63.7594 5.01711C65.0324 5.9373 65.4771 7.3636 64.9403 8.69789C64.6796 9.32669 64.1888 9.75611 63.6061 10.0168C62.5478 10.4923 61.4589 10.5536 60.3854 10.0322C59.1584 9.44938 58.6677 8.00774 59.2505 6.78081C59.6339 5.98331 60.232 5.4312 61.0295 5.09379C61.2135 5.01711 61.4129 4.9711 61.5816 4.8024C61.1062 4.511 60.6001 4.40365 60.094 4.31163C58.3763 4.0049 56.7659 4.28095 55.4163 5.44653C54.4348 6.27471 53.99 7.40961 53.8367 8.66721C53.6526 10.2622 53.99 11.7499 54.8642 13.0995C55.263 13.7129 55.3703 13.759 56.0758 13.6056C56.7506 13.4676 57.4254 13.4062 58.1156 13.4676C58.2689 13.4829 58.4223 13.5136 58.5603 13.5903C59.0204 13.8203 59.2811 14.2497 59.2045 14.6331C59.1278 15.0012 58.729 15.2773 58.2383 15.354C57.6708 15.4306 57.18 15.2159 56.6893 14.9859C56.4592 14.8785 56.1985 14.7865 56.0144 14.6178C55.6157 14.2804 55.2936 14.3724 54.8795 14.6178C53.1925 15.5993 51.8582 16.8876 51.3521 18.82C50.4933 22.056 51.3981 25.4914 54.8489 27.2551C56.5512 28.114 58.3609 28.5587 60.232 28.7581C62.4098 29.0035 64.5876 28.9882 66.7347 28.5281C68.8051 28.0833 70.7222 27.3165 72.3786 25.9515C74.9551 23.8351 74.7251 20.1543 73.3908 18.2986C72.8847 17.6084 72.2252 17.1023 71.5044 16.6576C71.2437 16.4889 70.9983 16.6116 70.7682 16.6882C69.0045 17.179 67.2562 17.7465 65.4771 18.1606C64.3115 18.4213 63.1766 18.7587 62.0724 19.2341C61.4896 19.4795 60.9375 19.7556 60.4621 20.185C59.4958 21.0745 59.3885 22.6235 60.2167 23.6204C61.2902 24.9086 63.6981 25.6141 65.2931 25.108C65.4158 25.062 65.5691 25.0313 65.5845 24.8933C65.5998 24.7093 65.4311 24.6786 65.3084 24.6172C63.4834 23.7891 63.1153 21.5653 64.5569 20.2157C65.6765 19.1728 68.2684 19.2034 69.3573 20.2617C70.4922 21.3659 70.3695 23.5897 69.0812 24.5712C67.9923 25.3841 66.7654 25.8288 65.4004 25.8902C64.3269 25.9362 63.2533 26.0282 62.2258 25.7061C60.8455 25.2767 59.5879 24.6326 58.8057 23.329C58.2382 22.3781 58.1309 21.3506 58.1922 20.277C58.3456 17.5318 59.9713 15.9061 62.2871 14.7712C64.1582 13.8663 66.1826 13.4676 68.1917 12.9768C71.121 12.256 74.0503 11.5505 76.8722 10.4923C77.363 10.3082 77.8384 10.0935 78.2831 9.80212C80.0469 8.63654 80.2156 6.55077 78.6512 5.12447C77.4243 4.0049 75.9673 3.63682 74.3416 3.82086C74.219 3.83619 74.0503 3.82086 74.0196 3.97422C73.9889 4.12759 74.1729 4.14292 74.2803 4.20427C75.5532 4.86374 76.136 6.07533 75.7679 7.30226C75.5532 8.02308 75.0471 8.48317 74.3877 8.78991C73.3141 9.28068 72.1945 9.28068 71.1056 8.89726C69.2346 8.23779 68.8051 5.75326 70.3081 4.3423C71.075 3.63682 72.0105 3.34542 73.0074 3.16138C74.7557 2.83932 76.4734 2.97735 78.0838 3.77485C79.7401 4.60302 80.7983 5.92197 80.9824 7.8237C81.1051 9.15798 81.0437 10.4769 80.4456 11.7039C79.7401 13.1455 78.4825 14.0043 77.0869 14.6638C75.6606 15.3386 74.1576 15.8141 72.5933 16.0748C72.5166 16.0901 72.4246 16.1208 72.3479 16.1361C72.2559 16.1515 72.1639 16.1821 72.1485 16.2742C72.1332 16.3662 72.2252 16.4275 72.2865 16.4735C72.5319 16.6269 72.7773 16.7649 73.0074 16.9336C74.6637 18.1606 75.5072 19.8322 75.7219 21.8567C75.8906 23.3903 75.8446 24.8933 75.2005 26.3349C74.2496 28.4821 72.6393 30.0004 70.6149 31.1046C68.4064 32.3162 66.0292 32.9143 63.5294 33.0984C60.8915 33.2977 58.2843 33.129 55.7231 32.5309C53.1158 31.9328 50.6927 30.8899 48.8063 28.8808C47.6714 27.6692 46.9659 26.2583 46.6898 24.6326C46.3677 22.8075 46.5211 21.0285 47.3493 19.3568C48.0241 18.0072 49.067 16.995 50.2632 16.1055C51.4288 15.2313 52.7478 14.6791 54.128 14.2651C54.2507 14.2344 54.3734 14.2037 54.4961 14.1577C54.5575 14.1117 54.6342 14.0657 54.7262 14.0197Z" fill="black"/>
<path d="M98.1436 20.0009C98.1436 19.4795 98.1436 19.0194 98.1436 18.5746C98.1283 16.1054 98.1283 13.6362 98.113 11.1824C98.0976 9.81744 97.5455 9.1733 96.1959 8.94325C96.1192 8.92792 96.0579 8.92792 95.9812 8.91258C95.7971 8.88191 95.7051 8.78989 95.7051 8.59051C95.7205 8.36046 95.8892 8.40647 96.0272 8.42181C97.1314 8.45248 98.251 8.49849 99.3552 8.46782C99.6466 8.45248 99.9533 8.45248 100.245 8.43714C100.383 8.43714 100.521 8.45248 100.536 8.60585C100.551 8.75921 100.444 8.8359 100.321 8.88191C100.199 8.92792 100.076 8.97392 99.9533 9.0046C99.2785 9.21931 98.8951 9.67941 98.7878 10.3849C98.7111 10.9063 98.6957 11.4278 98.6957 11.9646C98.6957 16.4428 98.6804 20.9211 98.6957 25.3841C98.6957 25.6755 98.6191 25.7521 98.3277 25.7828C97.6835 25.8595 97.2541 25.5988 96.8554 25.0927C94.1868 21.6726 91.4876 18.2679 88.7883 14.8632C88.2209 14.1423 87.5767 13.4675 87.086 12.67C87.0246 12.578 86.9479 12.4553 86.8252 12.486C86.6872 12.532 86.7332 12.67 86.7332 12.7774C86.7639 16.2588 86.6719 19.7249 86.8099 23.2063C86.8559 24.3718 87.316 24.8933 88.4663 25.1387C88.5736 25.1693 88.6963 25.1693 88.8037 25.2C88.9724 25.246 89.2177 25.2154 89.1717 25.4914C89.1257 25.7368 88.911 25.6755 88.7576 25.6755C87.7454 25.6755 86.7332 25.6601 85.721 25.6601C85.3529 25.6601 84.9848 25.6755 84.6168 25.6755C84.4941 25.6755 84.31 25.7368 84.2794 25.5221C84.2487 25.3534 84.4021 25.3227 84.5094 25.2614C84.6474 25.1847 84.7855 25.108 84.9388 25.0773C85.7363 24.8626 86.0431 24.2952 86.1351 23.5437C86.1658 23.2676 86.1811 22.9762 86.1811 22.6848C86.1811 18.728 86.1811 14.7558 86.1964 10.799C86.1964 10.6303 86.1964 10.4616 86.1811 10.2929C86.1044 9.28066 85.8897 9.06594 84.8928 8.88191C84.6781 8.85123 84.3254 8.95859 84.3407 8.59051C84.356 8.2071 84.7088 8.3758 84.9082 8.39113C86.0124 8.40647 87.132 8.45248 88.2362 8.39113C88.5123 8.3758 88.6963 8.46782 88.8957 8.68253C90.9354 11.1977 92.9905 13.6976 95.015 16.2128C95.8125 17.1943 96.656 18.1452 97.3921 19.1727C97.5762 19.5101 97.7909 19.7555 98.1436 20.0009Z" fill="black"/>
<path d="M4.05412 22.6234C4.05412 21.6419 4.05412 20.6604 4.05412 19.6788C4.05412 19.4794 4.03879 19.3107 4.33018 19.3107C4.57557 19.3107 4.66758 19.3874 4.68292 19.6481C4.79028 21.0284 5.09701 22.332 5.74114 23.5743C6.67668 25.3687 8.9925 25.8134 10.4801 25.246C11.9218 24.6939 12.5352 23.2216 12.0291 21.6879C11.6611 20.553 10.8022 19.8322 9.89736 19.142C8.65509 18.2065 7.29014 17.455 6.09389 16.4581C5.00499 15.5533 4.2535 14.449 4.11547 12.9921C3.94677 11.029 4.86696 9.40332 6.69201 8.66716C8.37903 7.99235 10.1427 7.82365 11.9064 8.42178C12.4586 8.60582 12.9647 8.89721 13.4554 9.23461C14.0382 9.61803 14.345 9.48 14.4983 8.80519C14.5137 8.74384 14.5443 8.69783 14.5443 8.63649C14.529 8.36043 14.667 8.28375 14.9124 8.31442C15.1885 8.34509 15.0811 8.54447 15.0658 8.66716C14.9431 10.2928 14.9738 11.9185 14.9738 13.5442C14.9738 13.7129 15.0198 13.8816 14.7437 13.9123C14.4523 13.9429 14.4063 13.7742 14.391 13.5595C14.3296 12.762 14.1149 11.9952 13.7775 11.259C13.3634 10.4002 12.8113 9.6487 11.9831 9.1426C10.9709 8.49846 9.42192 8.54447 8.47105 9.23461C8.04163 9.54135 7.76557 9.95543 7.65822 10.4462C7.42817 11.5658 7.62754 12.5933 8.50173 13.4215C9.00783 13.8969 9.54461 14.311 10.1121 14.6791C11.3543 15.5073 12.6119 16.3201 13.7775 17.2556C14.6824 17.9765 15.4799 18.8046 15.7559 19.9702C16.2007 21.8566 15.8479 23.6357 14.3143 24.7706C13.3941 25.4454 12.3665 25.9055 11.2316 25.9975C9.82067 26.1202 8.40971 26.2122 7.04475 25.7061C6.46196 25.4914 5.94052 25.2 5.40374 24.9086C5.00499 24.6939 4.83629 24.8626 4.71359 25.2C4.65225 25.3534 4.60624 25.5221 4.57557 25.6908C4.52956 25.9515 4.34552 25.9668 4.16148 25.9515C3.94677 25.9361 4.00811 25.7521 4.00811 25.6141C4.00811 24.6172 4.00811 23.6203 4.00811 22.6234C4.02345 22.6234 4.03879 22.6234 4.05412 22.6234Z" fill="black"/>
<path d="M25.9248 24.0344C25.6948 24.0651 25.6641 24.2185 25.5874 24.3258C24.8359 25.4454 23.7777 26.0282 22.4281 26.0435C21.7379 26.0589 21.0324 26.0895 20.3576 25.8442C19.2994 25.4607 18.6553 24.4025 18.5786 23.0222C18.4712 20.7217 18.5479 18.4366 18.5326 16.1361C18.5326 15.7374 18.5326 15.3386 18.4866 14.9398C18.4099 14.173 17.9191 13.6822 17.183 13.6209C16.9376 13.6056 16.9529 13.4829 16.9376 13.3142C16.9222 13.0995 17.0756 13.1148 17.229 13.1148C18.1492 13.1301 19.0847 13.1761 20.0049 13.1148C20.5877 13.0841 21.1705 13.0841 21.7379 12.8847C22.0293 12.7774 22.0447 12.9614 22.0447 13.1761C22.0447 13.7743 22.0293 14.3724 22.0293 14.9705C22.0293 17.5777 22.0293 20.185 22.0293 22.7922C22.0293 23.0989 22.0447 23.421 22.106 23.7277C22.29 24.7553 23.0415 25.2154 24.0538 24.9393C24.9739 24.6939 25.9095 23.651 25.9248 22.6695C25.9708 20.1083 26.0322 17.5471 25.8788 14.9705C25.8328 14.1884 25.5107 13.8356 24.7592 13.6056C24.6672 13.5749 24.5599 13.5596 24.4832 13.5135C24.3605 13.4675 24.3298 13.3448 24.3451 13.2375C24.3605 13.1148 24.4678 13.0995 24.5752 13.0995C24.8052 13.0995 25.0353 13.0995 25.2653 13.1148C26.5076 13.1915 27.7499 13.1301 28.9768 12.9308C29.4829 12.8541 29.4829 12.8541 29.4829 13.3909C29.4829 16.6729 29.4982 19.9396 29.4982 23.2216C29.4982 23.4823 29.5136 23.743 29.5749 23.9884C29.7129 24.5405 29.9583 25.0006 30.5871 25.1233C30.6792 25.1387 30.7712 25.2 30.8632 25.2154C31.0319 25.246 31.1239 25.338 31.0932 25.5067C31.0626 25.7061 30.8939 25.7061 30.7712 25.6908C30.3111 25.6908 29.8663 25.6601 29.4062 25.6448C28.394 25.6141 27.3818 25.7215 26.3849 25.8902C26.0628 25.9515 25.9248 25.8748 25.9402 25.5221C25.9555 25.062 25.9248 24.5712 25.9248 24.0344Z" fill="black"/>
<path d="M108.281 24.0651C107.668 24.7399 107.054 25.4147 106.165 25.6908C105.107 26.0282 104.018 26.0895 103.006 25.5528C101.349 24.6939 101.088 22.1787 102.438 20.8444C103.052 20.231 103.818 19.9242 104.601 19.6022C105.475 19.2494 106.38 19.004 107.223 18.5746C107.975 18.2065 108.404 17.7004 108.297 16.7956C108.22 16.1054 108.312 15.4 108.205 14.7098C108.097 14.0503 107.576 13.2528 106.625 13.2528C106.027 13.2528 105.429 13.2682 104.877 13.5289C104.769 13.5749 104.616 13.6209 104.616 13.7743C104.631 13.9123 104.754 13.943 104.846 13.989C105.827 14.5104 106.196 15.4306 105.797 16.4122C105.475 17.225 104.34 17.6851 103.404 17.3784C102.193 16.995 101.794 15.2313 102.699 14.219C103.266 13.5902 104.018 13.2988 104.785 13.0381C106.303 12.532 107.852 12.5627 109.37 12.9461C110.981 13.3602 111.717 14.4337 111.763 16.3355C111.793 17.7464 111.778 19.1574 111.778 20.5684C111.778 21.7953 111.778 23.0222 111.778 24.2492C111.778 24.9086 112.131 25.108 112.729 24.8319C112.76 24.8166 112.775 24.8013 112.806 24.8013C112.974 24.7553 113.143 24.4792 113.312 24.7399C113.48 25.0006 113.22 25.1233 113.051 25.2307C111.947 26.0129 110.72 26.0129 109.493 25.7061C108.833 25.5374 108.481 24.97 108.343 24.2798C108.373 24.2645 108.404 24.1725 108.281 24.0651ZM108.297 18.4519C107.714 18.912 107.238 19.3415 106.686 19.6635C105.352 20.4303 104.938 21.6113 105.137 23.0682C105.229 23.8197 105.889 24.4025 106.625 24.4025C107.1 24.4025 107.468 24.1571 107.852 23.8811C108.235 23.605 108.358 23.2829 108.327 22.8382C108.297 22.3321 108.312 21.8106 108.312 21.3045C108.297 20.369 108.297 19.4641 108.297 18.4519Z" fill="black"/>
<path d="M118.818 18.8047C118.818 20.369 118.818 21.9334 118.818 23.513C118.818 24.0345 118.925 24.5252 119.462 24.7553C119.968 24.9853 120.581 24.786 120.996 24.3105C121.195 24.0805 121.364 23.8351 121.532 23.5897C121.624 23.4363 121.762 23.4057 121.9 23.467C122.054 23.5437 121.992 23.6971 121.962 23.8044C121.686 24.832 120.382 25.9362 119.324 26.0436C118.802 26.0896 118.266 26.1049 117.744 26.0129C116.456 25.7982 115.582 24.8473 115.428 23.513C115.367 22.9609 115.336 22.4088 115.336 21.8567C115.352 19.2341 115.336 16.6116 115.352 13.989C115.352 13.6516 115.26 13.5289 114.922 13.5596C114.478 13.5903 114.033 13.5903 113.603 13.6056C113.404 13.6209 113.281 13.5749 113.281 13.3295C113.281 13.0688 113.435 13.0688 113.619 13.0688C114.048 13.0688 114.477 13.0382 114.907 13.0842C115.321 13.1302 115.382 12.9615 115.367 12.6087C115.352 11.8266 115.367 11.0444 115.352 10.2622C115.352 9.9555 115.413 9.83281 115.75 9.83281C116.732 9.86348 117.668 9.6181 118.572 9.25002C118.833 9.14266 118.879 9.18867 118.879 9.44939C118.864 10.5536 118.879 11.6425 118.864 12.7468C118.864 13.0228 118.925 13.1148 119.217 13.0995C119.907 13.0688 120.612 13.0842 121.302 13.0995C121.486 13.0995 121.762 12.9768 121.762 13.3602C121.747 13.7283 121.471 13.6056 121.287 13.6056C120.597 13.6209 119.922 13.6056 119.232 13.5903C118.925 13.5749 118.848 13.6976 118.848 13.989C118.818 15.584 118.818 17.1944 118.818 18.8047Z" fill="black"/>
<path d="M38.9296 22.1941C39.1136 22.0561 39.1443 21.8414 39.2056 21.6727C39.8958 19.8783 40.6319 18.0839 41.092 16.1975C41.2914 15.3693 41.2301 14.5565 40.4786 13.943C40.2332 13.7437 39.9418 13.6976 39.6657 13.5903C39.5124 13.5289 39.313 13.4676 39.359 13.2529C39.405 13.0228 39.6197 13.1149 39.7424 13.1149C40.9387 13.1609 42.1349 13.1915 43.3312 13.1302C43.4385 13.1302 43.5765 13.0842 43.6379 13.2222C43.6839 13.3449 43.6532 13.4523 43.5459 13.5136C42.2576 14.2344 41.9509 15.5534 41.5214 16.7956C40.6473 19.3108 39.7884 21.8414 38.8222 24.3259C38.6688 24.7246 38.6535 25.1694 38.3928 25.5221C38.04 26.0129 37.5033 25.6448 37.0585 25.7522C36.8591 25.7982 36.7518 25.7215 36.6444 25.5068C35.6936 23.329 34.85 21.1205 33.9605 18.9274C33.4084 17.5778 32.8716 16.2435 32.3195 14.8939C32.0895 14.3111 31.7367 13.8203 31.1233 13.5596C31.0006 13.5136 30.8319 13.4523 30.8779 13.2529C30.9239 13.0228 31.1079 13.0842 31.2613 13.0842C33.2244 13.1915 35.1874 13.1915 37.1505 13.0688C37.2425 13.0688 37.3192 13.0688 37.4112 13.0688C37.5339 13.0688 37.626 13.0995 37.6413 13.2529C37.6413 13.4063 37.5953 13.4983 37.4266 13.5136C37.2119 13.5289 36.9972 13.5596 36.7978 13.5903C36.123 13.667 35.9236 14.0044 36.1383 14.6485C36.9818 17.133 38.0247 19.5562 38.8376 22.0407C38.8682 22.1174 38.8989 22.1481 38.9296 22.1941Z" fill="black"/>
</g>
<defs>
<filter id="filter0_d_138_6546" x="0" y="0" width="126" height="38.1782" filterUnits="userSpaceOnUse" color-interpolation-filters="sRGB">
<feFlood flood-opacity="0" result="BackgroundImageFix"/>
<feColorMatrix in="SourceAlpha" type="matrix" values="0 0 0 0 0 0 0 0 0 0 0 0 0 0 0 0 0 0 127 0" result="hardAlpha"/>
<feOffset dy="1"/>
<feGaussianBlur stdDeviation="2"/>
<feComposite in2="hardAlpha" operator="out"/>
<feColorMatrix type="matrix" values="0 0 0 0 0 0 0 0 0 0 0 0 0 0 0 0 0 0 0.25 0"/>
<feBlend mode="normal" in2="BackgroundImageFix" result="effect1_dropShadow_138_6546"/>
<feBlend mode="normal" in="SourceGraphic" in2="effect1_dropShadow_138_6546" result="shape"/>
</filter>
</defs>
</svg>
