<svg width="24" height="22" viewBox="0 0 24 22" fill="none" xmlns="http://www.w3.org/2000/svg">
<path d="M6.5 12.2729C6.5 11.4051 7.20354 10.7015 8.07145 10.7015C8.93931 10.7015 9.64285 11.4051 9.64285 12.2729" stroke="#983134" stroke-width="1.36929" stroke-miterlimit="10"/>
<path d="M14.3569 12.2729C14.3569 11.4051 15.0605 10.7015 15.9283 10.7015C16.7962 10.7015 17.4998 11.4051 17.4998 12.2729" stroke="#983134" stroke-width="1.36929" stroke-miterlimit="10"/>
<path d="M9.29199 15.416C9.83866 16.3425 10.8465 16.9644 12 16.9644C13.1536 16.9644 14.1614 16.3425 14.7081 15.416" stroke="#983134" stroke-width="1.36929" stroke-miterlimit="10"/>
<path d="M23 11.9992C23 13.2854 21.9698 14.3311 20.6891 14.3553C19.6539 18.1834 16.1558 21 12 21C7.84419 21 4.3461 18.1834 3.31091 14.3553C2.03017 14.3311 1 13.2854 1 11.9992C1 11.3483 1.26382 10.759 1.69012 10.3323C2.10685 9.91602 2.6783 9.65494 3.31091 9.64307C4.3461 5.81498 7.84419 2.99834 12 2.99834C16.1558 2.99834 19.6539 5.81498 20.6891 9.64307C21.3217 9.65494 21.8932 9.91602 22.3099 10.3323C22.7362 10.759 23 11.3483 23 11.9992Z" stroke="#983134" stroke-width="1.36929" stroke-miterlimit="10"/>
<path d="M9.07082 5.92723C9.07082 7.54487 10.3821 8.8562 11.9998 8.8562C13.6174 8.8562 14.9288 7.54487 14.9288 5.92723C14.9288 4.30959 13.6174 2.99827 11.9998 2.99827H11.5408C10.0585 2.99827 8.85693 1.79666 8.85693 0.314403" stroke="#983134" stroke-width="1.36929" stroke-miterlimit="10"/>
<path d="M12.0001 2.99829H8.39817C6.91591 2.99829 5.71436 1.79669 5.71436 0.314474" stroke="#983134" stroke-width="1.36929" stroke-miterlimit="10"/>
</svg>
