<svg width="22" height="22" viewBox="0 0 22 22" fill="none" xmlns="http://www.w3.org/2000/svg">
<path d="M9.53562 10.2644H3.66437C2.69252 10.2644 1.76047 9.8783 1.07327 9.1911C0.386067 8.5039 0 7.57185 0 6.6V3.66437C0 2.69252 0.386067 1.76047 1.07327 1.07327C1.76047 0.386067 2.69252 0 3.66437 0H6.6C7.57185 0 8.5039 0.386067 9.1911 1.07327C9.8783 1.76047 10.2644 2.69252 10.2644 3.66437V9.52874C10.2644 9.72266 10.1878 9.90873 10.0513 10.0465C9.91487 10.1843 9.72953 10.2626 9.53562 10.2644ZM3.66437 1.46437C3.0809 1.46437 2.52132 1.69616 2.10874 2.10874C1.69616 2.52132 1.46437 3.0809 1.46437 3.66437V6.6C1.46437 7.18347 1.69616 7.74305 2.10874 8.15563C2.52132 8.56821 3.0809 8.8 3.66437 8.8H8.8V3.66437C8.8 3.0809 8.56821 2.52132 8.15563 2.10874C7.74305 1.69616 7.18347 1.46437 6.6 1.46437H3.66437Z" fill="#983134"/>
<path d="M18.3354 10.2644H12.4641C12.269 10.2644 12.0819 10.1869 11.944 10.0489C11.806 9.91096 11.7285 9.72385 11.7285 9.52875V3.66438C11.7285 3.18259 11.8235 2.70553 12.0081 2.26049C12.1927 1.81546 12.4632 1.4112 12.8042 1.07084C13.1452 0.730484 13.55 0.460712 13.9954 0.276964C14.4407 0.0932172 14.918 -0.000897474 15.3998 6.44993e-06H18.3354C19.3072 6.44993e-06 20.2393 0.386073 20.9265 1.07328C21.6137 1.76048 21.9998 2.69253 21.9998 3.66438V6.6C21.9998 7.57186 21.6137 8.5039 20.9265 9.19111C20.2393 9.87831 19.3072 10.2644 18.3354 10.2644ZM13.1998 8.8H18.3354C18.9189 8.8 19.4784 8.56822 19.891 8.15564C20.3036 7.74306 20.5354 7.18348 20.5354 6.6V3.66438C20.5354 3.0809 20.3036 2.52133 19.891 2.10875C19.4784 1.69617 18.9189 1.46438 18.3354 1.46438H15.3998C14.8163 1.46438 14.2567 1.69617 13.8441 2.10875C13.4316 2.52133 13.1998 3.0809 13.1998 3.66438V8.8Z" fill="#983134"/>
<path d="M6.6 22H3.66437C2.69252 22 1.76047 21.6139 1.07327 20.9267C0.386067 20.2395 0 19.3074 0 18.3356V15.4C0 14.4281 0.386067 13.4961 1.07327 12.8089C1.76047 12.1217 2.69252 11.7356 3.66437 11.7356H9.52874C9.72384 11.7356 9.91095 11.8131 10.0489 11.9511C10.1869 12.089 10.2644 12.2761 10.2644 12.4712V18.3356C10.2644 19.3074 9.8783 20.2395 9.1911 20.9267C8.5039 21.6139 7.57185 22 6.6 22ZM3.66437 13.2C3.0809 13.2 2.52132 13.4318 2.10874 13.8443C1.69616 14.2569 1.46437 14.8165 1.46437 15.4V18.3356C1.46437 18.9191 1.69616 19.4786 2.10874 19.8912C2.52132 20.3038 3.0809 20.5356 3.66437 20.5356H6.6C7.18347 20.5356 7.74305 20.3038 8.15563 19.8912C8.56821 19.4786 8.8 18.9191 8.8 18.3356V13.2H3.66437Z" fill="#983134"/>
<path d="M18.3358 22H15.4002C14.4284 22 13.4963 21.6139 12.8091 20.9267C12.1219 20.2395 11.7358 19.3075 11.7358 18.3356V12.4644C11.7358 12.2693 11.8133 12.0822 11.9513 11.9442C12.0893 11.8063 12.2764 11.7288 12.4715 11.7288H18.3358C18.8176 11.7288 19.2947 11.8238 19.7397 12.0084C20.1848 12.1929 20.589 12.4635 20.9294 12.8045C21.2697 13.1455 21.5395 13.5502 21.7233 13.9956C21.907 14.441 22.0011 14.9182 22.0002 15.4V18.3356C22.0002 19.3075 21.6141 20.2395 20.9269 20.9267C20.2397 21.6139 19.3077 22 18.3358 22ZM13.2002 13.2V18.3356C13.2002 18.9191 13.432 19.4787 13.8446 19.8913C14.2572 20.3038 14.8167 20.5356 15.4002 20.5356H18.3358C18.9193 20.5356 19.4789 20.3038 19.8915 19.8913C20.3041 19.4787 20.5358 18.9191 20.5358 18.3356V15.4C20.5358 14.8165 20.3041 14.257 19.8915 13.8444C19.4789 13.4318 18.9193 13.2 18.3358 13.2H13.2002Z" fill="#983134"/>
<path d="M9.5 2.5V9.5H2.5L1 8.5V3L3 0.5H7L9.5 2.5Z" fill="#983134"/>
<rect x="1" y="13" width="9" height="8" rx="2" fill="#983134"/>
<rect x="12" y="13" width="9" height="8" rx="2" fill="#983134"/>
<rect x="12" y="1" width="9" height="8" rx="2" fill="#983134"/>
</svg>
