<svg width="22" height="22" viewBox="0 0 22 22" fill="none" xmlns="http://www.w3.org/2000/svg">
<path d="M8.5 11L10 9.5L8 6.5L5 5.5L2.5 6L0.5 8.5L1.5 12L4.5 13.5L8 13L8.5 11Z" fill="#983134"/>
<path d="M21.7762 8.01504C21.0075 5.64948 18.4575 4.35037 16.0921 5.11882C15.7797 5.22036 15.4633 5.36078 15.1507 5.53476C15.2196 5.18375 15.2554 4.83944 15.2554 4.5109C15.2554 1.99951 13.52 0 11.0452 0C8.56681 0 6.74463 2.00393 6.74463 4.5109C6.74463 4.8394 6.78043 5.1837 6.84931 5.53476C6.53666 5.36082 6.22033 5.22036 5.90786 5.11882C3.5426 4.35024 0.992497 5.64948 0.223829 8.01504C-0.555709 10.4143 0.770649 13.0863 3.12005 13.8497C3.43252 13.9512 3.77094 14.0235 4.12612 14.0665C3.86405 14.3101 3.6328 14.5676 3.43965 14.8334C1.97764 16.8457 2.42533 19.6722 4.43756 21.1342C6.44884 22.5956 9.06121 22.1551 10.5279 20.1363C10.7211 19.8705 10.8944 19.5709 11.0452 19.2464C11.1958 19.5709 11.3692 19.8705 11.5624 20.1363C13.0311 22.1579 15.5554 22.5924 17.5624 21.1342C19.5746 19.6722 20.0223 16.8456 18.5603 14.8334C18.3672 14.5676 18.1359 14.3101 17.8738 14.0665C18.2289 14.0235 18.5676 13.9511 18.88 13.8497C21.2294 13.0863 22.5557 10.4144 21.7762 8.01504ZM11.0452 1.28885C12.7379 1.28885 13.9665 2.64391 13.9665 4.5109C13.9665 5.3512 13.6377 6.38721 13.0869 7.28225C13.0203 7.39058 12.9895 7.51128 12.9914 7.63026L12.3204 8.79162C12.1198 8.70478 11.9002 8.63744 11.681 8.5928V5.95035C11.681 5.59448 11.4011 5.30595 11.0452 5.30595C10.6893 5.30595 10.4008 5.59448 10.4008 5.95035V8.59284C10.1765 8.63856 9.96084 8.70826 9.75597 8.79802L9.00681 7.571C8.99929 7.47157 8.96865 7.37257 8.91305 7.28225C8.36228 6.38721 8.03344 5.3512 8.03344 4.5109C8.03348 2.67403 9.32821 1.28885 11.0452 1.28885ZM3.51828 12.624C1.86231 12.0859 0.895602 10.1183 1.44956 8.41332C1.99861 6.72362 3.8198 5.79562 5.50963 6.34455C6.20331 6.56996 6.96072 7.07699 7.59413 7.73055L8.70078 9.54314C8.52487 9.72992 8.371 9.93755 8.2433 10.1621L5.72847 9.34497C5.3897 9.23492 5.0264 9.42025 4.91644 9.75867C4.8064 10.0972 4.99172 10.4607 5.33015 10.5707L7.84403 11.3875C7.8149 11.6462 7.81688 11.8783 7.84562 12.125L6.23601 12.6866C5.27132 12.8891 4.26817 12.8676 3.51828 12.624ZM10.4007 16.6395C10.3174 17.6807 9.97601 18.7034 9.48535 19.3787C8.43666 20.822 6.62926 21.1335 5.19514 20.0915C3.75783 19.0472 3.4381 17.0283 4.48237 15.5909C5.3356 14.4164 6.81764 13.8828 6.93004 13.8095L8.2497 13.3491C8.36855 13.5561 8.5091 13.749 8.66925 13.9238L7.11485 16.0633C6.90564 16.3513 6.96949 16.7543 7.25738 16.9634C7.54514 17.1726 7.94819 17.1089 8.15749 16.8209L9.71145 14.682C9.92948 14.7815 10.16 14.8582 10.4007 14.9073V16.6395H10.4007ZM11.0452 13.6833C9.97923 13.6833 9.11195 12.8161 9.11195 11.7501C9.11195 10.684 9.97919 9.81681 11.0452 9.81681C12.1112 9.81681 12.9785 10.684 12.9785 11.7501C12.9785 12.8161 12.1112 13.6833 11.0452 13.6833ZM16.8048 20.0915C15.3238 21.1676 13.6195 20.7749 12.605 19.3787C12.1143 18.7034 11.7644 17.6807 11.681 16.6396V14.9073C11.9216 14.8582 12.1608 14.7816 12.3788 14.682L13.9327 16.821C14.142 17.1089 14.545 17.1727 14.8329 16.9635C15.1208 16.7543 15.1846 16.3513 14.9754 16.0634L13.421 13.9239C13.5798 13.7505 13.7194 13.5594 13.8376 13.3544L15.0387 13.7872C15.1868 13.8969 16.6519 14.3993 17.5175 15.5909C18.5619 17.0283 18.2422 19.0472 16.8048 20.0915ZM15.813 12.6961L14.244 12.1308C14.274 11.8773 14.2751 11.6437 14.2463 11.3875L16.7602 10.5707C17.0986 10.4607 17.2839 10.0971 17.1739 9.75863C17.0639 9.42012 16.7003 9.23488 16.3619 9.34492L13.847 10.162C13.7171 9.93364 13.5601 9.7227 13.3803 9.53343L14.4446 7.69144C15.07 7.05693 15.8106 6.56541 16.4903 6.34455C18.1799 5.79562 20.0013 6.72357 20.5504 8.41323C21.1044 10.1182 20.1376 12.0858 18.4817 12.6239H18.4817C17.7445 12.8635 16.7625 12.8878 15.813 12.6961Z" fill="#983134"/>
<path d="M13.5 1.5L10 0.5L8 2.5L7.5 6L9.5 9.5H12.5L14 11.5L13 13.5L12 14H11H9.5L8.5 13L6 13.5L3.5 16L3 18.5L5 20.5L7 21.5L10 20L11 16.5L12 20L15.5 21.5L18.5 19.5V16L16.5 13.5L19 13L21 11.5V8.5L19.5 6L17 5.5L14 7L15 4L13.5 1.5Z" fill="#983134"/>
</svg>
