<svg width="22" height="22" viewBox="0 0 22 22" fill="none" xmlns="http://www.w3.org/2000/svg">
<path d="M19 21.5H3.5L1 20V6.5L11 0.5L21 6.5V19L19 21.5Z" fill="#983134"/>
<path d="M18.4603 22H3.31747C2.43755 21.9962 1.59486 21.6444 0.973337 21.0215C0.35181 20.3986 0.00190872 19.5552 0 18.6753V7.43796C0.00363519 6.84227 0.16725 6.2585 0.473736 5.74769C0.780222 5.23688 1.21832 4.81779 1.74222 4.53426L9.29909 0.403751C9.78579 0.138808 10.3311 0 10.8852 0C11.4394 0 11.9847 0.138808 12.4714 0.403751L20.05 4.51248C20.5739 4.79602 21.012 5.2151 21.3185 5.72591C21.625 6.23672 21.7886 6.82049 21.7922 7.41618V18.6753C21.7903 19.5577 21.4384 20.4033 20.8138 21.0266C20.1891 21.65 19.3427 22 18.4603 22ZM10.8889 1.44908C10.5771 1.44862 10.2702 1.52597 9.99598 1.67412L2.41733 5.79011C2.12337 5.95291 1.87863 6.19179 1.70876 6.48172C1.53889 6.77165 1.45015 7.10194 1.45185 7.43796V18.6753C1.45185 19.172 1.64917 19.6484 2.0004 19.9996C2.35164 20.3508 2.82801 20.5482 3.32473 20.5482H18.4603C18.9557 20.5462 19.4302 20.3481 19.7799 19.997C20.1296 19.646 20.3259 19.1707 20.3259 18.6753V7.43796C20.3262 7.10048 20.2352 6.76919 20.0627 6.47913C19.8902 6.18906 19.6425 5.951 19.3459 5.79011L11.7818 1.68138C11.5082 1.5307 11.2012 1.45085 10.8889 1.44908Z" fill="#983134"/>
<path d="M10.8889 18.8131C9.87845 18.8134 8.89937 18.4622 8.11934 17.8199C7.33931 17.1776 6.80687 16.2841 6.6132 15.2924C6.59741 15.1884 6.60443 15.0821 6.63377 14.9811C6.66311 14.88 6.71407 14.7865 6.78312 14.7071C6.85217 14.6277 6.93766 14.5643 7.03367 14.5212C7.12967 14.4781 7.2339 14.4564 7.33912 14.4576C7.51206 14.4551 7.68022 14.5144 7.8133 14.6249C7.94639 14.7353 8.03566 14.8897 8.06505 15.0601C8.20176 15.7127 8.55887 16.2983 9.0764 16.7186C9.59392 17.139 10.2403 17.3684 10.907 17.3684C11.5738 17.3684 12.2202 17.139 12.7377 16.7186C13.2552 16.2983 13.6123 15.7127 13.749 15.0601C13.7784 14.8897 13.8677 14.7353 14.0008 14.6249C14.1339 14.5144 14.302 14.4551 14.475 14.4576C14.5802 14.4564 14.6844 14.4781 14.7804 14.5212C14.8764 14.5643 14.9619 14.6277 15.031 14.7071C15.1 14.7865 15.151 14.88 15.1803 14.9811C15.2097 15.0821 15.2167 15.1884 15.2009 15.2924C15.0061 16.2903 14.4683 17.1885 13.6808 17.8315C12.8932 18.4746 11.9056 18.8218 10.8889 18.8131Z" fill="white"/>
</svg>
