<svg width="24" height="25" viewBox="0 0 24 25" fill="none" xmlns="http://www.w3.org/2000/svg">
<path d="M17.1682 3.95654L17.7518 3.19329C18.0531 2.79939 18.6166 2.72415 19.0105 3.02545C19.4044 3.32675 19.4797 3.89025 19.1784 4.28415L18.5947 5.0474C18.4179 5.27855 18.151 5.40008 17.8809 5.40008C17.6906 5.40008 17.4987 5.33975 17.336 5.21523C16.9421 4.91411 16.867 4.35044 17.1682 3.95654ZM22.3985 15.1929L21.5005 14.8786C21.0325 14.7148 20.5202 14.9616 20.3564 15.4297C20.1926 15.8977 20.4391 16.41 20.9072 16.5738L21.8052 16.8881C21.9034 16.9225 22.0034 16.9388 22.1017 16.9388C22.4727 16.9388 22.8199 16.7071 22.9493 16.3372C23.1132 15.8692 22.8666 15.3567 22.3985 15.1929ZM5.49493 5.0474C5.67171 5.27855 5.93881 5.39991 6.2089 5.39991C6.39918 5.39991 6.59087 5.33975 6.75363 5.21523C7.14753 4.91411 7.22276 4.35044 6.92146 3.95654L6.3378 3.19329C6.03668 2.79939 5.47301 2.72433 5.07911 3.02545C4.68521 3.32675 4.61014 3.89025 4.91127 4.28415L5.49493 5.0474ZM2.49946 14.6541L1.60152 14.9684C1.13343 15.1322 0.886848 15.6447 1.05065 16.1126C1.18008 16.4826 1.52716 16.7141 1.89808 16.7141C1.99647 16.7141 2.09661 16.6978 2.19482 16.6634L3.09276 16.3492C3.56085 16.1854 3.80743 15.6731 3.64363 15.205C3.47983 14.7371 2.96772 14.4903 2.49946 14.6541ZM11.9999 21.2486C11.5041 21.2486 11.102 21.6505 11.102 22.1465V23.0893C11.102 23.5853 11.5041 23.9873 11.9999 23.9873C12.4959 23.9873 12.8979 23.5853 12.8979 23.0893V22.1465C12.8979 21.6505 12.4959 21.2486 11.9999 21.2486ZM19.5496 18.9937L18.598 16.1589C18.4402 15.6887 17.9309 15.4354 17.461 15.5933C16.991 15.7511 16.7378 16.2601 16.8954 16.7303L17.8451 19.5597C17.9689 19.9479 17.7071 20.1749 17.6236 20.2352C17.5182 20.3117 17.2387 20.4644 16.9205 20.2326L13.3951 17.6778C12.5522 17.0633 11.4194 17.0633 10.5732 17.6803L7.04879 20.274C6.73276 20.5044 6.45338 20.3517 6.34797 20.2752C6.26432 20.2145 6.00125 19.9865 6.12805 19.5946L7.47513 15.4104C7.79608 14.4191 7.44672 13.3411 6.60718 12.729L3.09224 10.156C2.77393 9.92398 2.83268 9.61374 2.87266 9.49097C2.91265 9.36786 3.04874 9.08146 3.44352 9.08146H7.78976C8.82731 9.08146 9.74296 8.40625 10.069 7.39975L11.4159 3.21293C11.5378 2.83657 11.855 2.79588 11.9859 2.79588C12.1165 2.79588 12.434 2.83657 12.5553 3.21135L13.9033 7.40133C14.2286 8.40625 15.1445 9.08146 16.1818 9.08146H20.5565C20.9513 9.08146 21.0873 9.36786 21.1273 9.49115C21.1673 9.61374 21.2261 9.92416 20.9067 10.1569L18.5187 11.9035C18.1185 12.1964 18.0314 12.7581 18.3241 13.1585C18.6168 13.5587 19.1787 13.6457 19.5789 13.353L21.9656 11.6073C22.8197 10.9845 23.161 9.93556 22.8348 8.93467C22.5084 7.93291 21.6142 7.28558 20.5565 7.28558H16.1818C15.9296 7.28558 15.6951 7.10564 15.6124 6.84977L14.2644 2.65979C13.9378 1.65153 13.0436 1 11.9859 1C10.9282 1 10.0337 1.65153 9.70666 2.66137L8.35975 6.84819C8.27644 7.10564 8.04196 7.28558 7.78976 7.28558H3.44352C2.38581 7.28558 1.49138 7.93291 1.165 8.93467C0.838969 9.93556 1.18008 10.9847 2.03277 11.6062L5.54772 14.1792C5.75993 14.3337 5.84779 14.6063 5.76607 14.8586L4.41898 19.0428C4.09207 20.0528 4.43564 21.1074 5.2943 21.7296C5.72047 22.0383 6.20837 22.1928 6.69663 22.1928C7.18821 22.1926 7.68033 22.0362 8.11001 21.7228L11.6344 19.1291C11.8445 18.9758 12.1269 18.9758 12.3391 19.1305L15.8647 21.6852C16.7181 22.3073 17.822 22.3091 18.6773 21.6896C19.5359 21.0676 19.8795 20.0128 19.5524 19.003C19.5516 18.9998 19.5507 18.9969 19.5496 18.9937Z" fill="#983134" stroke="white" stroke-width="0.3"/>
<path d="M11.5 2L9 8H3.5L2 9V10L6.5 14L5 20L6.5 21L12 18L17 21.5L18 21L19.5 19.5C19.1667 18.8333 19 17.5 18.5 16C18.1 14.8 18.3333 14.1667 18.5 14L21 12L21.5 8.5L15.5 8L13 2.5L11.5 2Z" fill="#983134"/>
</svg>
