<svg width="20" height="19" viewBox="0 0 20 19" fill="none" xmlns="http://www.w3.org/2000/svg">
<path d="M19.6196 3.54757L19.6196 3.54754C19.504 3.3882 19.3226 3.29375 19.1293 3.29375H5.39897L5.00468 1.44839L5.00467 1.44837C4.94265 1.15851 4.69471 0.95 4.40573 0.95H1.02532C0.68468 0.95 0.411914 1.23655 0.411914 1.58594C0.411914 1.93533 0.68468 2.22188 1.02532 2.22188H3.91339L5.93074 11.6634C5.33362 11.9506 4.91913 12.5786 4.91913 13.3047C4.91913 14.2997 5.69794 15.1125 6.65934 15.1125H16.8757C17.2163 15.1125 17.4891 14.826 17.4891 14.4766C17.4891 14.1272 17.2163 13.8406 16.8757 13.8406H6.65934C6.37818 13.8406 6.14594 13.602 6.14594 13.3047C6.14594 13.0079 6.37736 12.7696 6.658 12.7689H6.65875L6.66261 12.7688H16.8757C17.1509 12.7688 17.3908 12.5791 17.4656 12.3071L17.4174 12.2938L17.4656 12.3071L19.7192 4.10392L19.671 4.09067L19.7192 4.10391C19.7717 3.91262 19.735 3.7068 19.6196 3.54757ZM6.66503 12.7686C6.66539 12.7685 6.66515 12.7686 6.66453 12.7686L6.66503 12.7686ZM7.15168 11.4969L5.67064 4.56563H18.3168L16.4125 11.4969H7.15168Z" fill="#2D2F77" stroke="#2D2F77" stroke-width="0.1"/>
<path d="M6.0457 16.8203C6.0457 17.8153 6.8245 18.6281 7.78591 18.6281C8.74732 18.6281 9.52612 17.8153 9.52612 16.8203C9.52612 15.8253 8.74732 15.0125 7.78591 15.0125C6.8245 15.0125 6.0457 15.8253 6.0457 16.8203ZM7.78591 16.2844C8.06707 16.2844 8.29931 16.523 8.29931 16.8203C8.29931 17.1176 8.06707 17.3563 7.78591 17.3563C7.50475 17.3563 7.27251 17.1176 7.27251 16.8203C7.27251 16.523 7.50475 16.2844 7.78591 16.2844Z" fill="#2D2F77" stroke="#2D2F77" stroke-width="0.1"/>
<path d="M14.0086 16.8203C14.0086 17.8153 14.7874 18.6281 15.7488 18.6281C16.7102 18.6281 17.489 17.8153 17.489 16.8203C17.489 15.8253 16.7102 15.0125 15.7488 15.0125C14.7874 15.0125 14.0086 15.8253 14.0086 16.8203ZM15.7488 16.2844C16.03 16.2844 16.2622 16.523 16.2622 16.8203C16.2622 17.1176 16.03 17.3563 15.7488 17.3563C15.4676 17.3563 15.2354 17.1176 15.2354 16.8203C15.2354 16.523 15.4676 16.2844 15.7488 16.2844Z" fill="#2D2F77" stroke="#2D2F77" stroke-width="0.1"/>
</svg>
