<svg width="20" height="17" viewBox="0 0 20 17" fill="none" xmlns="http://www.w3.org/2000/svg">
<path d="M14.2399 0C12.6402 0 11.2378 0.741836 10.1845 2.14535C10.044 2.33254 9.91876 2.5198 9.80777 2.70117C9.69678 2.51977 9.57155 2.33254 9.43108 2.14535C8.3777 0.741836 6.97536 0 5.37568 0C2.35374 0 0.192383 2.63152 0.192383 5.78922C0.192383 9.39988 3.03782 12.8028 9.41853 16.8228C9.53816 16.8982 9.67297 16.9359 9.80777 16.9359C9.94257 16.9359 10.0774 16.8982 10.197 16.8229C16.5777 12.8028 19.4232 9.39992 19.4232 5.78926C19.4232 2.6332 17.2636 0 14.2399 0ZM15.936 10.2851C14.6076 11.8266 12.6002 13.4497 9.80777 15.2391C7.01536 13.4497 5.00796 11.8266 3.67957 10.2852C2.34401 8.73531 1.69479 7.26469 1.69479 5.78926C1.69479 3.51566 3.17218 1.5625 5.37568 1.5625C6.49782 1.5625 7.45463 2.06992 8.21954 3.0707C8.83117 3.87106 9.08887 4.6975 9.09067 4.7034C9.18851 5.02977 9.47908 5.25207 9.80781 5.25207C10.1365 5.25207 10.4271 5.02981 10.5249 4.7034C10.5273 4.69551 10.7773 3.89484 11.3688 3.10672C12.1378 2.08203 13.1038 1.56246 14.2399 1.56246C16.4457 1.56246 17.9207 3.5175 17.9207 5.78922C17.9207 7.26465 17.2715 8.73527 15.936 10.2851Z" fill="#2D2F77"/>
</svg>
