<svg width="85" height="51" viewBox="0 0 85 51" fill="none" xmlns="http://www.w3.org/2000/svg">
<path d="M11.5791 22.914L13.1023 22.5939C13.2678 22.5498 13.4003 22.4725 13.5107 22.3401C13.6211 22.2076 13.6762 22.0641 13.6762 21.8875V8.49895C13.6762 8.31131 13.6211 8.15678 13.5107 8.03537C13.4003 7.90292 13.2678 7.82566 13.1023 7.78151L11.5791 7.47245V6.90954H17.5725C18.7756 6.90954 19.7579 7.00888 20.5416 7.21859C21.3142 7.4283 21.9213 7.69321 22.3628 8.03537C22.8043 8.37754 23.1134 8.76385 23.2789 9.20535C23.4445 9.64686 23.5328 10.0994 23.5328 10.574C23.5328 11.0928 23.4445 11.5784 23.2789 12.0199C23.1134 12.4614 22.8705 12.8588 22.5615 13.212C22.2524 13.5652 21.8772 13.8632 21.4356 14.1171C20.9941 14.3709 20.5085 14.5696 19.9677 14.7131C20.6078 14.7352 21.2149 14.8455 21.7778 15.0442C22.3407 15.2429 22.8374 15.5078 23.2568 15.85C23.6763 16.1921 24.0074 16.6005 24.2502 17.0862C24.4931 17.5718 24.6145 18.1127 24.6145 18.7087C24.6145 19.3378 24.5262 19.9008 24.3385 20.3754C24.1619 20.861 23.9081 21.2694 23.588 21.6226C23.2679 21.9758 22.9036 22.2738 22.4732 22.5056C22.0427 22.7374 21.5791 22.9361 21.0935 23.0796C20.5968 23.2231 20.0891 23.3224 19.5482 23.3886C19.0074 23.4438 18.4776 23.4769 17.9367 23.4769H11.5901V22.914H11.5791ZM16.9323 14.5365C17.7381 14.5365 18.4114 14.4592 18.9632 14.3157C19.5151 14.1723 19.9566 13.9625 20.2877 13.6976C20.6299 13.4327 20.8617 13.1016 21.0162 12.7153C21.1597 12.329 21.237 11.8875 21.237 11.4018C21.237 10.7616 21.1597 10.2098 20.9941 9.75723C20.8286 9.30469 20.5858 8.92941 20.2546 8.6314C19.9235 8.33338 19.5151 8.12367 19.0184 7.99122C18.5217 7.85877 17.9478 7.78151 17.2966 7.78151H15.8396V14.5365H16.9323ZM18.3782 22.5829C19.6586 22.5829 20.6189 22.318 21.2701 21.7882C21.9103 21.2584 22.2304 20.3974 22.2304 19.1943C22.2304 18.4879 22.1421 17.8919 21.9655 17.4063C21.7889 16.9206 21.5129 16.5233 21.1487 16.2252C20.7844 15.9272 20.3098 15.7065 19.7359 15.574C19.1619 15.4416 18.4776 15.3643 17.6939 15.3643H15.8396V22.5829H18.3782Z" fill="#2D2F77"/>
<path d="M26.4688 22.9361L27.8043 22.638C27.9699 22.5939 28.0913 22.5166 28.1906 22.3952C28.2899 22.2738 28.3451 22.1303 28.3451 21.9537V14.0508C28.3451 13.8411 28.2899 13.6645 28.1796 13.51C28.0692 13.3554 27.8705 13.234 27.6056 13.1347L26.5019 12.7373V12.4173L30.2436 11.5894V14.2274C30.4312 13.9184 30.652 13.5983 30.8838 13.2671C31.1156 12.9471 31.3805 12.649 31.6785 12.3841C31.9765 12.1192 32.2966 11.9095 32.6608 11.744C33.014 11.5784 33.4114 11.4901 33.8529 11.4901C34.0736 11.4901 34.2723 11.5011 34.4268 11.5232C34.5924 11.5453 34.7359 11.5674 34.8573 11.6005C34.9897 11.6336 35.1112 11.6667 35.2215 11.7109C35.3319 11.755 35.4533 11.7992 35.5968 11.8543V14.6689H34.9787L34.5924 13.6535C34.5593 13.5762 34.4931 13.4989 34.3827 13.4438C34.2833 13.3886 34.1619 13.3334 34.0295 13.3003C33.897 13.2671 33.7535 13.234 33.6101 13.212C33.4666 13.1899 33.3231 13.1788 33.2017 13.1788C32.9147 13.1788 32.6387 13.212 32.3849 13.2892C32.131 13.3665 31.8882 13.4658 31.6564 13.5983C31.4246 13.7307 31.2039 13.9073 30.9942 14.117C30.7844 14.3268 30.5747 14.5696 30.376 14.8345V21.9427C30.376 22.1303 30.4312 22.2848 30.5306 22.3952C30.6299 22.5166 30.7624 22.5939 30.9169 22.627L32.4732 22.925V23.4659H26.4798V22.9361H26.4688Z" fill="#2D2F77"/>
<path d="M42.5611 22.7816C42.2299 23.0355 41.8878 23.2341 41.5456 23.3776C41.2035 23.5211 40.8723 23.6094 40.5302 23.6536C40.199 23.6977 39.89 23.7198 39.614 23.7198C39.1615 23.7198 38.7421 23.6315 38.3668 23.4659C37.9915 23.3004 37.6714 23.0686 37.4065 22.7926C37.1416 22.5167 36.9319 22.1856 36.7774 21.8103C36.6339 21.435 36.5566 21.0377 36.5566 20.6182C36.5566 20.1326 36.6449 19.6911 36.8105 19.3048C36.9871 18.9185 37.2189 18.5763 37.5059 18.2893C37.8039 17.9913 38.135 17.7485 38.5103 17.5388C38.8856 17.329 39.2719 17.1635 39.6803 17.0421C40.0776 16.9096 40.486 16.8213 40.8834 16.7551C41.2807 16.6999 41.656 16.6668 41.9982 16.6668C42.0754 16.6668 42.1748 16.6778 42.3072 16.6889C42.4397 16.6999 42.5832 16.7109 42.7377 16.722C42.8812 16.733 43.0357 16.7441 43.1681 16.7551C43.3116 16.7661 43.422 16.7661 43.4993 16.7661L43.5103 14.6028C43.5103 14.2165 43.4772 13.8964 43.411 13.6425C43.3447 13.3886 43.2344 13.1789 43.1019 13.0354C42.9584 12.8919 42.7818 12.7816 42.5721 12.7264C42.3514 12.6712 42.0975 12.6381 41.7884 12.6381C41.3911 12.6381 41.0158 12.7043 40.6405 12.8368C40.2653 12.9692 39.9121 13.1348 39.592 13.3224C39.2608 13.51 38.9628 13.7198 38.6759 13.9295C38.3999 14.1392 38.1571 14.3268 37.9584 14.4814H37.6935L37.3182 12.5829C37.55 12.4504 37.8039 12.329 38.0909 12.1966C38.3778 12.0641 38.6869 11.9427 39.007 11.8434C39.3381 11.744 39.6913 11.6557 40.0555 11.6005C40.4308 11.5343 40.8171 11.5012 41.2255 11.5012C41.7112 11.5012 42.2189 11.5674 42.7266 11.6999C43.2344 11.8323 43.709 12.0421 44.1174 12.3401C44.5368 12.6381 44.8679 13.0244 45.1328 13.5211C45.3977 14.0067 45.5191 14.6028 45.5081 15.3092L45.4308 21.6116C45.4308 21.733 45.4529 21.8434 45.486 21.9317C45.5302 22.02 45.5854 22.1083 45.6737 22.1745C45.762 22.2408 45.8613 22.2959 45.9827 22.3291C46.1041 22.3622 46.2587 22.3843 46.4242 22.3843C46.4684 22.3843 46.5236 22.3732 46.6119 22.3622C46.7002 22.3511 46.7995 22.3291 46.9099 22.307C47.0203 22.2849 47.1306 22.2628 47.23 22.2297C47.3403 22.1966 47.4286 22.1745 47.5169 22.1525H47.6384V22.7264C47.528 22.8147 47.3845 22.9141 47.1969 23.0355C47.0203 23.1569 46.8216 23.2562 46.6119 23.3556C46.4021 23.4549 46.1814 23.5432 45.9496 23.6094C45.7178 23.6867 45.4971 23.7198 45.2984 23.7198C44.9893 23.7198 44.7244 23.6867 44.4926 23.6205C44.2609 23.5542 44.0622 23.4549 43.9077 23.3004C43.7531 23.1569 43.6317 22.9472 43.5545 22.7043C43.4772 22.4505 43.4441 22.1414 43.4441 21.7551C43.2013 22.1856 42.8922 22.5277 42.5611 22.7816ZM43.5213 17.3842C42.7929 17.3842 42.1306 17.4394 41.5456 17.5388C40.9606 17.6381 40.4529 17.8037 40.0445 18.0354C39.6361 18.2562 39.316 18.5432 39.0842 18.8964C38.8635 19.2496 38.7421 19.669 38.7421 20.1547C38.7421 20.5741 38.8083 20.9273 38.9297 21.2032C39.0511 21.4902 39.2167 21.722 39.4154 21.8986C39.614 22.0752 39.8348 22.1966 40.0776 22.2739C40.3204 22.3511 40.5633 22.3843 40.7951 22.3843C41.0158 22.3843 41.2586 22.3622 41.5125 22.307C41.7664 22.2628 42.0092 22.1856 42.252 22.0862C42.4948 21.9869 42.7156 21.8544 42.9364 21.6999C43.1571 21.5344 43.3337 21.3467 43.4882 21.126L43.5213 17.3842Z" fill="#2D2F77"/>
<path d="M48.4005 22.9362L49.714 22.6381C49.8795 22.594 50.001 22.5167 50.1003 22.3953C50.1996 22.2739 50.2548 22.1304 50.2548 21.9538V14.0288C50.2548 13.8191 50.1996 13.6425 50.0893 13.499C49.9789 13.3555 49.7802 13.2341 49.5153 13.1348L48.4116 12.7374V12.4174L52.2195 11.5895V13.5432C52.5286 13.1238 52.8266 12.7706 53.1356 12.5057C53.4447 12.2408 53.7537 12.031 54.0628 11.8765C54.3718 11.733 54.6919 11.6226 55.012 11.5785C55.3321 11.5233 55.6522 11.5012 55.9833 11.5012C56.5021 11.5012 56.9988 11.5785 57.4513 11.733C57.9039 11.8876 58.3012 12.1304 58.6434 12.4615C58.9855 12.7926 59.2394 13.2231 59.4381 13.7529C59.6257 14.2827 59.7251 14.9008 59.7251 15.6403V21.9207C59.7251 22.1194 59.7802 22.2849 59.8906 22.4064C60.001 22.5278 60.1224 22.6161 60.2659 22.6492L61.4248 22.9472V23.488H55.8729V22.9472L57.1975 22.6492C57.352 22.605 57.4734 22.5278 57.5727 22.4064C57.6721 22.2849 57.7162 22.1194 57.7162 21.9207V16.4019C57.7162 15.8611 57.6831 15.3754 57.6279 14.945C57.5727 14.5035 57.4403 14.1392 57.2526 13.8302C57.065 13.5211 56.8001 13.2783 56.469 13.1127C56.1268 12.9472 55.6853 12.8589 55.1334 12.8589C54.8906 12.8589 54.6367 12.8809 54.3829 12.9361C54.118 12.9803 53.8641 13.0575 53.6102 13.1569C53.3564 13.2562 53.1136 13.3887 52.8928 13.5432C52.661 13.7087 52.4623 13.8964 52.2857 14.1171V21.9759C52.2857 22.1635 52.3409 22.307 52.4403 22.4284C52.5396 22.5498 52.6721 22.6271 52.8266 22.6602L53.9855 22.9582V23.4991H48.4116V22.9362H48.4005Z" fill="#2D2F77"/>
<path d="M71.1265 21.733C70.7844 22.1965 70.4312 22.5608 70.0669 22.8257C69.7027 23.0906 69.3605 23.2893 69.0184 23.4217C68.6762 23.5542 68.3561 23.6314 68.0691 23.6645C67.7711 23.6977 67.5283 23.7087 67.3296 23.7087C66.6122 23.7087 65.961 23.5652 65.398 23.2782C64.8351 22.9912 64.3495 22.5939 63.9632 22.0972C63.5658 21.5895 63.2678 20.9935 63.0581 20.3091C62.8484 19.6248 62.749 18.8632 62.749 18.0464C62.749 17.1413 62.8704 16.2914 63.1243 15.4857C63.3782 14.691 63.7314 13.9956 64.206 13.3996C64.6806 12.8036 65.2545 12.34 65.9278 11.9978C66.6122 11.6557 67.3848 11.4791 68.2457 11.4791C68.5879 11.4791 68.908 11.5122 69.1839 11.5784C69.4599 11.6446 69.7137 11.7329 69.9455 11.8323C70.1773 11.9426 70.376 12.0641 70.5636 12.2075C70.7402 12.351 70.9058 12.4945 71.0493 12.638V12.1192V7.83667C71.0493 7.62696 70.9941 7.45036 70.8947 7.30687C70.7954 7.16338 70.5967 7.04197 70.3208 6.95367L69.0735 6.55632V6.23623L73.0802 5.30907V21.2473C73.0802 21.457 73.1354 21.6336 73.2457 21.7771C73.3561 21.9206 73.5438 22.042 73.8307 22.1303L74.9345 22.4835V22.8036L71.3914 23.7308H71.1486V21.733H71.1265ZM71.0493 13.234C70.9168 13.1126 70.7292 13.0023 70.5084 12.914C70.2877 12.8146 70.0449 12.7374 69.802 12.6711C69.5592 12.6049 69.3164 12.5608 69.0846 12.5276C68.8528 12.4945 68.6541 12.4835 68.5106 12.4835C67.8925 12.4835 67.3627 12.6159 66.9102 12.8698C66.4576 13.1237 66.0824 13.4658 65.7733 13.9073C65.4643 14.3378 65.2435 14.8345 65.089 15.4084C64.9455 15.9714 64.8682 16.5674 64.8682 17.1965C64.8682 17.9471 64.9345 18.6424 65.0779 19.2826C65.2214 19.9118 65.4312 20.4636 65.7292 20.9162C66.0272 21.3687 66.3914 21.733 66.844 21.9868C67.2965 22.2407 67.8373 22.3731 68.4665 22.3731C68.6431 22.3731 68.8528 22.3511 69.0956 22.318C69.3385 22.2738 69.5813 22.2076 69.8131 22.1193C70.0559 22.031 70.2877 21.8985 70.5084 21.744C70.7292 21.5895 70.9168 21.3908 71.0603 21.159V13.234H71.0493Z" fill="#2D2F77"/>
<path d="M76.458 19.8344H77.0761L77.5287 21.2693C77.5949 21.468 77.7163 21.6335 77.9039 21.777C78.0916 21.9095 78.2571 22.0309 78.4227 22.1192C78.5551 22.1964 78.7207 22.2627 78.9194 22.351C79.1181 22.4282 79.3278 22.5055 79.5485 22.5828C79.7693 22.66 80.0011 22.7152 80.2439 22.7594C80.4757 22.8035 80.7075 22.8256 80.9282 22.8256C81.2262 22.8256 81.5132 22.7925 81.7892 22.7262C82.0651 22.66 82.319 22.5386 82.5397 22.3841C82.7605 22.2185 82.926 22.0198 83.0585 21.7549C83.1909 21.5011 83.2571 21.181 83.2571 20.7947C83.2571 20.4746 83.202 20.1986 83.0805 19.9779C82.9591 19.7571 82.8046 19.5695 82.6059 19.426C82.4073 19.2825 82.1755 19.1501 81.9106 19.0618C81.6457 18.9624 81.3697 18.8741 81.0717 18.7969C80.6633 18.6865 80.266 18.5761 79.8907 18.4768C79.5044 18.3774 79.1622 18.2671 78.8532 18.1677C78.522 18.0684 78.224 17.9139 77.9591 17.7262C77.6942 17.5386 77.4624 17.3068 77.2637 17.0309C77.0651 16.7549 76.9105 16.4569 76.8112 16.1147C76.7008 15.7726 76.6456 15.4194 76.6456 15.0331C76.6456 14.5143 76.756 14.0397 76.9878 13.5982C77.2196 13.1677 77.5287 12.7924 77.915 12.4834C78.3123 12.1743 78.7649 11.9315 79.2836 11.7659C79.8024 11.6004 80.3432 11.5121 80.9282 11.5121C81.2704 11.5121 81.5684 11.5231 81.8554 11.5452C82.1313 11.5673 82.4073 11.6004 82.6722 11.6445C82.9371 11.6887 83.1909 11.7439 83.4448 11.7991C83.6986 11.8542 83.9636 11.9205 84.2395 11.9977L84.4271 15.2207H83.7649L83.2351 13.7748C83.1688 13.5982 83.0695 13.4436 82.926 13.3112C82.7825 13.1787 82.628 13.0684 82.4624 12.9801C82.1865 12.8476 81.8885 12.7262 81.5463 12.6158C81.2042 12.5165 80.851 12.4613 80.4867 12.4613C80.2329 12.4613 79.979 12.4944 79.7251 12.5606C79.4713 12.6269 79.2505 12.7262 79.0518 12.8697C78.8532 13.0132 78.6876 13.2008 78.5662 13.4436C78.4448 13.6754 78.3785 13.9624 78.3785 14.3046C78.3785 14.6467 78.4337 14.9227 78.5331 15.1545C78.6324 15.3863 78.7649 15.5849 78.9304 15.7284C79.096 15.8829 79.2726 16.0044 79.4823 16.1037C79.681 16.203 79.8907 16.2803 80.1004 16.3465C80.266 16.4017 80.4536 16.4569 80.6412 16.5121C80.8289 16.5673 81.0165 16.6225 81.2042 16.6777C81.3808 16.7328 81.5574 16.777 81.7119 16.8211C81.8664 16.8653 81.9989 16.8984 82.0982 16.9315C82.5066 17.0529 82.8929 17.1964 83.2461 17.362C83.5993 17.5275 83.9084 17.7373 84.1622 17.9801C84.4271 18.2229 84.6258 18.4989 84.7803 18.83C84.9238 19.1501 85.0011 19.5364 85.0011 19.9668C85.0011 20.6401 84.8797 21.2251 84.6258 21.6997C84.3719 22.1854 84.0408 22.5828 83.6214 22.8918C83.202 23.2009 82.7053 23.4326 82.1424 23.5872C81.5794 23.7307 80.9724 23.8079 80.3432 23.8079C79.9348 23.8079 79.5596 23.7858 79.2064 23.7307C78.8532 23.6865 78.5331 23.6203 78.224 23.543C77.915 23.4658 77.617 23.3775 77.341 23.2892C77.0651 23.2009 76.7891 23.1015 76.5132 23.0132V19.8344H76.458Z" fill="#2D2F77"/>
<path d="M15.9374 46.2364L17.4606 45.9163C17.6261 45.8722 17.7586 45.7949 17.869 45.6625C17.9793 45.53 18.0345 45.3865 18.0345 45.2099V31.8324C18.0345 31.6447 17.9793 31.4902 17.869 31.3688C17.7586 31.2364 17.6261 31.1591 17.4606 31.1149L15.9374 30.8059V30.243H22.3723V30.8059L20.7718 31.1149C20.6063 31.1481 20.4738 31.2364 20.3634 31.3688C20.2531 31.5013 20.1979 31.6668 20.1979 31.8324V45.8942H26.2796C26.3568 45.8942 26.4341 45.8722 26.4893 45.828C26.5445 45.7839 26.5997 45.7287 26.6438 45.6625C26.688 45.5962 26.7211 45.519 26.7432 45.4527C26.7652 45.3755 26.7873 45.3203 26.7983 45.2651L27.7145 42.0863H28.3546V46.8104H15.9374V46.2364Z" fill="#2D2F77"/>
<path d="M35.5287 46.1039C35.1976 46.3578 34.8554 46.5564 34.5133 46.6999C34.1711 46.8434 33.84 46.9317 33.4978 46.9759C33.1667 47.02 32.8576 47.0421 32.5817 47.0421C32.1292 47.0421 31.7097 46.9538 31.3345 46.7882C30.9592 46.6227 30.6391 46.3909 30.3742 46.1149C30.1093 45.839 29.8996 45.5079 29.745 45.1326C29.6016 44.7573 29.5243 44.36 29.5243 43.9405C29.5243 43.4549 29.6126 43.0134 29.7782 42.6271C29.9548 42.2408 30.1865 41.8986 30.4735 41.6116C30.7715 41.3136 31.1027 41.0708 31.4779 40.8611C31.8532 40.6514 32.2395 40.4858 32.6479 40.3644C33.0453 40.2319 33.4537 40.1436 33.851 40.0774C34.2484 40.0222 34.6236 39.9891 34.9658 39.9891C35.0431 39.9891 35.1424 40.0001 35.2749 40.0112C35.4073 40.0222 35.5508 40.0332 35.7053 40.0443C35.8488 40.0553 36.0033 40.0664 36.1358 40.0774C36.2793 40.0884 36.3897 40.0884 36.4669 40.0884L36.478 37.9251C36.478 37.5388 36.4448 37.2187 36.3786 36.9648C36.3124 36.7109 36.202 36.5012 36.0696 36.3577C35.9261 36.2142 35.7495 36.1039 35.5398 36.0487C35.319 35.9935 35.0651 35.9604 34.7561 35.9604C34.3587 35.9604 33.9835 36.0266 33.6082 36.1591C33.2329 36.2915 32.8797 36.4571 32.5596 36.6447C32.2285 36.8324 31.9305 37.0421 31.6435 37.2518C31.3676 37.4615 31.1247 37.6491 30.9261 37.8037H30.6612L30.2859 35.9052C30.5177 35.7727 30.7715 35.6513 31.0585 35.5189C31.3455 35.3864 31.6545 35.265 31.9746 35.1657C32.3058 35.0663 32.659 34.978 33.0232 34.9229C33.3985 34.8566 33.7848 34.8235 34.1932 34.8235C34.6788 34.8235 35.1866 34.8897 35.6943 35.0222C36.202 35.1546 36.6766 35.3644 37.085 35.6624C37.5045 35.9604 37.8356 36.3467 38.1005 36.8434C38.3654 37.329 38.4868 37.9251 38.4758 38.6315L38.3985 44.9339C38.3985 45.0553 38.4206 45.1657 38.4537 45.254C38.4978 45.3423 38.553 45.4306 38.6413 45.4968C38.7296 45.5631 38.829 45.6183 38.9504 45.6514C39.0718 45.6845 39.2263 45.7066 39.3919 45.7066C39.436 45.7066 39.4912 45.6955 39.5795 45.6845C39.6678 45.6734 39.7672 45.6514 39.8775 45.6293C39.9879 45.6072 40.0983 45.5851 40.1976 45.552C40.308 45.5189 40.3963 45.4968 40.4846 45.4748H40.606V46.0487C40.4956 46.137 40.3521 46.2364 40.1645 46.3578C39.9879 46.4792 39.7892 46.5785 39.5795 46.6779C39.3698 46.7772 39.149 46.8655 38.9173 46.9317C38.6855 47.009 38.4647 47.0421 38.266 47.0421C37.957 47.0421 37.6921 47.009 37.4603 46.9428C37.2285 46.8765 37.0298 46.7772 36.8753 46.6227C36.7208 46.4792 36.5994 46.2695 36.5221 46.0266C36.4448 45.7728 36.4117 45.4637 36.4117 45.0774C36.1689 45.5079 35.8709 45.85 35.5287 46.1039ZM36.489 40.7065C35.7605 40.7065 35.0983 40.7617 34.5133 40.8611C33.9283 40.9604 33.4206 41.126 33.0122 41.3578C32.6038 41.5785 32.2837 41.8655 32.0519 42.2187C31.8311 42.5719 31.7097 42.9913 31.7097 43.477C31.7097 43.8964 31.776 44.2496 31.8974 44.5255C32.0188 44.8125 32.1843 45.0443 32.383 45.2209C32.5817 45.3975 32.8024 45.5189 33.0453 45.5962C33.2881 45.6734 33.5309 45.7066 33.7627 45.7066C33.9835 45.7066 34.2263 45.6845 34.4802 45.6293C34.734 45.5851 34.9769 45.5079 35.2197 45.4085C35.4625 45.3092 35.6833 45.1768 35.904 45.0222C36.1248 44.8567 36.3014 44.669 36.4559 44.4483L36.489 40.7065Z" fill="#2D2F77"/>
<path d="M42.7036 31.17C42.7036 30.9603 42.6484 30.7837 42.5381 30.6402C42.4277 30.4967 42.229 30.3753 41.9641 30.276L40.8604 29.8786V29.5585L44.7345 28.6314V36.2363V36.8323C45.0546 36.3687 45.3968 35.9935 45.75 35.7286C46.1032 35.4526 46.4454 35.2539 46.7765 35.1215C47.1076 34.989 47.4167 34.9007 47.7147 34.8676C48.0127 34.8345 48.2555 34.8124 48.4542 34.8124C49.1716 34.8124 49.8229 34.9559 50.3858 35.2319C50.9487 35.5078 51.4343 35.9051 51.8207 36.4129C52.218 36.9206 52.516 37.5166 52.7257 38.223C52.9354 38.9294 53.0348 39.691 53.0348 40.5299C53.0348 41.457 52.9023 42.318 52.6485 43.1127C52.3946 43.9184 52.0193 44.6138 51.5226 45.2098C51.0259 45.8058 50.4299 46.2805 49.7235 46.6116C49.0171 46.9538 48.2114 47.1193 47.2953 47.1193C46.9531 47.1193 46.6109 47.1083 46.2356 47.0752C45.8714 47.0421 45.4851 46.9979 45.1098 46.9096C44.7235 46.8323 44.3372 46.722 43.9288 46.5785C43.5314 46.435 43.1231 46.2584 42.7147 46.0266V31.17H42.7036ZM44.7235 45.254C44.8228 45.3643 44.9774 45.4858 45.165 45.6072C45.3526 45.7286 45.5734 45.85 45.7941 45.9604C46.0149 46.0707 46.2577 46.159 46.4895 46.2253C46.7213 46.2915 46.931 46.3246 47.1297 46.3246C47.7809 46.3246 48.3438 46.1811 48.8184 45.9052C49.293 45.6292 49.6904 45.265 49.9995 44.8014C50.3085 44.3378 50.5403 43.808 50.6838 43.2231C50.8273 42.627 50.9045 42.02 50.9045 41.3798C50.9045 40.6292 50.8383 39.9339 50.6948 39.2937C50.5513 38.6535 50.3416 38.1016 50.0436 37.638C49.7456 37.1745 49.3814 36.8102 48.9288 36.5453C48.4763 36.2804 47.9354 36.159 47.3063 36.159C47.1187 36.159 46.92 36.1811 46.6882 36.2142C46.4564 36.2584 46.2246 36.3246 45.9928 36.4239C45.761 36.5233 45.5292 36.6557 45.3085 36.8213C45.0877 36.9868 44.8891 37.1965 44.7235 37.4504V45.254Z" fill="#2D2F77"/>
<path d="M64.5137 44.2937V45.1547C64.2709 45.3865 63.9949 45.6183 63.6748 45.85C63.3547 46.0818 63.0015 46.2915 62.6152 46.4792C62.2289 46.6668 61.8095 46.8103 61.368 46.9317C60.9265 47.0531 60.4629 47.1083 59.9883 47.1083C59.2046 47.1083 58.4872 46.9759 57.836 46.711C57.1958 46.4461 56.6329 46.0598 56.1693 45.541C55.7057 45.0222 55.3415 44.3931 55.0876 43.6315C54.8337 42.8809 54.7013 42.009 54.7013 41.0266C54.7013 40.2098 54.8227 39.4262 55.0655 38.6756C55.3084 37.9251 55.6616 37.2628 56.1251 36.6999C56.5887 36.1259 57.1627 35.6734 57.8249 35.3312C58.4982 34.9891 59.2488 34.8235 60.0876 34.8235C60.8051 34.8235 61.4342 34.956 61.9861 35.2209C62.538 35.4858 63.0015 35.8279 63.3768 36.2584C63.7521 36.6889 64.0391 37.1745 64.2267 37.7154C64.4144 38.2672 64.5137 38.8191 64.5137 39.382C64.5137 39.4593 64.5137 39.5255 64.5027 39.6138C64.5027 39.6911 64.4916 39.7794 64.4916 39.8566C64.4916 39.9339 64.4806 40.0112 64.4695 40.0884C64.4585 40.1657 64.4475 40.2319 64.4364 40.2981H56.7874C56.7984 42.0421 57.1296 43.3887 57.7808 44.3379C58.432 45.2761 59.4143 45.7507 60.7388 45.7507C61.1914 45.7507 61.5998 45.6955 61.975 45.5962C62.3503 45.4968 62.6925 45.3754 62.9905 45.2319C63.2885 45.0885 63.5534 44.9339 63.7852 44.7684C64.017 44.6028 64.2046 44.4483 64.3702 44.3158H64.5137V44.2937ZM62.4055 39.4814C62.4055 38.9736 62.3614 38.488 62.2841 38.0244C62.1958 37.5608 62.0633 37.1414 61.8647 36.7772C61.677 36.4129 61.4232 36.1259 61.1141 35.9162C60.8051 35.7065 60.4298 35.5961 59.9883 35.5961C59.5468 35.5961 59.1494 35.6844 58.8073 35.8721C58.4541 36.0597 58.1561 36.3136 57.8911 36.6558C57.6262 36.9979 57.4165 37.4063 57.251 37.8809C57.0854 38.3666 56.964 38.8964 56.8867 39.4814H62.4055Z" fill="#2D2F77"/>
<path d="M65.8826 46.2695L67.185 45.9715C67.3506 45.9273 67.472 45.85 67.5713 45.7286C67.6707 45.6072 67.7258 45.4637 67.7258 45.2871V31.1701C67.7258 30.9604 67.6706 30.7838 67.5603 30.6403C67.4499 30.4968 67.2623 30.3754 66.9863 30.276L65.8826 29.8787V29.5586L69.7457 28.6314V45.2761C69.7457 45.4637 69.8009 45.6072 69.9002 45.7286C69.9996 45.85 70.132 45.9273 70.2866 45.9604L71.4455 46.2584V46.7993H65.8936V46.2695H65.8826Z" fill="#2D2F77"/>
<path d="M73.1335 43.1568H73.7517L74.2042 44.5917C74.2704 44.7904 74.3918 44.9559 74.5795 45.0994C74.7671 45.2319 74.9327 45.3533 75.0982 45.4416C75.2307 45.5189 75.3963 45.5851 75.5949 45.6734C75.7936 45.7506 76.0033 45.8279 76.2241 45.9052C76.4448 45.9824 76.6766 46.0376 76.9194 46.0818C77.1512 46.1259 77.383 46.148 77.6038 46.148C77.9018 46.148 78.1888 46.1149 78.4647 46.0487C78.7406 45.9824 78.9945 45.861 79.2152 45.7065C79.436 45.5409 79.6016 45.3423 79.734 45.0774C79.8665 44.8235 79.9327 44.5034 79.9327 44.1171C79.9327 43.797 79.8775 43.5211 79.7561 43.3003C79.6347 43.0796 79.4801 42.8919 79.2815 42.7484C79.0828 42.6049 78.851 42.4725 78.5861 42.3842C78.3212 42.2848 78.0453 42.1965 77.7473 42.1193C77.3389 42.0089 76.9415 41.8985 76.5662 41.7992C76.1799 41.6999 75.8377 41.5895 75.5287 41.4901C75.1976 41.3908 74.8996 41.2363 74.6347 41.0486C74.3698 40.861 74.138 40.6292 73.9393 40.3533C73.7406 40.0773 73.5861 39.7793 73.4867 39.4372C73.3764 39.095 73.3212 38.7418 73.3212 38.3555C73.3212 37.8367 73.4316 37.3621 73.6634 36.9206C73.8951 36.4901 74.2042 36.1148 74.5905 35.8058C74.9879 35.4967 75.4404 35.2539 75.9592 35.0884C76.4779 34.9228 77.0188 34.8345 77.6038 34.8345C77.9459 34.8345 78.2439 34.8455 78.5309 34.8676C78.8069 34.8897 79.0828 34.9228 79.3477 34.9669C79.6126 35.0111 79.8665 35.0663 80.1203 35.1215C80.3742 35.1767 80.6391 35.2429 80.915 35.3201L81.1027 38.5431H80.4404L79.9106 37.0972C79.8444 36.9206 79.7451 36.7661 79.6016 36.6336C79.4581 36.5012 79.3035 36.3908 79.138 36.3025C78.862 36.17 78.564 36.0486 78.2219 35.9383C77.8797 35.8389 77.5265 35.7837 77.1623 35.7837C76.9084 35.7837 76.6545 35.8168 76.4007 35.8831C76.1468 35.9493 75.926 36.0486 75.7274 36.1921C75.5287 36.3356 75.3631 36.5232 75.2417 36.7661C75.1203 36.9979 75.0541 37.2848 75.0541 37.627C75.0541 37.9692 75.1093 38.2451 75.2086 38.4769C75.308 38.7087 75.4404 38.9074 75.606 39.0508C75.7715 39.2054 75.9481 39.3268 76.1578 39.4261C76.3565 39.5255 76.5662 39.6027 76.7759 39.6689C76.9415 39.7241 77.1291 39.7793 77.3168 39.8345C77.5044 39.8897 77.6921 39.9449 77.8797 40.0001C78.0563 40.0553 78.2329 40.0994 78.3874 40.1436C78.542 40.1877 78.6744 40.2208 78.7737 40.2539C79.1821 40.3754 79.5684 40.5188 79.9216 40.6844C80.2748 40.85 80.5839 41.0597 80.8378 41.3025C81.1027 41.5453 81.3013 41.8213 81.4559 42.1524C81.5994 42.4725 81.6766 42.8588 81.6766 43.2893C81.6766 43.9626 81.5552 44.5475 81.3013 45.0222C81.0475 45.5078 80.7164 45.9052 80.2969 46.2142C79.8775 46.5233 79.3808 46.7551 78.8179 46.9096C78.255 47.0531 77.6479 47.1303 77.0188 47.1303C76.6104 47.1303 76.2351 47.1083 75.8819 47.0531C75.5287 47.0089 75.2086 46.9427 74.8996 46.8654C74.5905 46.7882 74.2925 46.6999 74.0166 46.6116C73.7406 46.5233 73.4647 46.4239 73.1887 46.3356V43.1568H73.1335Z" fill="#2D2F77"/>
<path d="M68.4328 50.53H60.0112L59.978 50.4859C59.9339 50.4197 55.85 44.4704 54.9891 43.2342C52.5718 46.6779 49.8124 50.53 44.5034 50.53C41.159 50.53 38.1237 49.1835 35.9382 46.7331C33.808 44.338 32.627 41.0488 32.627 37.4947C32.627 34.349 33.3554 31.5013 34.7793 29.0289C36.159 26.6448 38.2451 24.5366 40.9824 22.7595L40.8058 22.4946C38.1788 18.6867 36.9537 15.0443 36.9537 11.0597C36.9537 8.06853 37.8477 5.51885 39.5365 3.69765C41.159 1.95372 43.4769 0.98241 46.0486 0.98241C51.2804 0.98241 54.5365 4.49236 54.5365 10.1326C54.5365 14.8566 52.1524 18.4328 46.3246 22.4726C47.2186 23.7529 48.201 25.1216 49.4261 26.8324C49.8345 27.4063 50.265 28.0134 50.7396 28.6646C52.925 31.6889 54.6359 34.051 56.8213 37.0311C58.7308 33.0576 58.8522 30.9053 59.084 26.6558C59.095 26.3909 59.1171 26.115 59.1282 25.828L53.9736 24.2386V21.4902H54.0729C69.7794 21.4571 70.1547 21.4571 70.1657 21.4571V21.6558C70.2099 21.6558 70.243 21.6227 70.254 21.6006C70.2209 21.711 70.243 22.6823 70.2651 23.3335V23.4107L70.1878 23.4328C68.499 23.9185 64.0509 25.3313 63.6977 25.9383C63.6977 25.9383 63.6536 26.0046 63.5984 26.0929C63.4328 26.3688 63.0465 27.02 63.0244 27.0642C62.1966 28.7419 61.5454 30.4638 60.8831 32.2408C60.7286 32.6713 60.5741 33.1017 60.4195 33.5212C60.1215 34.36 59.8125 35.232 59.4593 36.0708C59.4151 36.1702 59.3158 36.3689 59.1613 36.6448C58.9515 37.0421 58.6535 37.583 58.4438 38.0466C58.1017 38.7971 58.1679 38.9185 58.1789 38.9296C58.8191 39.8015 59.6248 40.9274 60.4858 42.1305C61.4902 43.5322 62.5277 44.9892 63.4549 46.2475L68.4328 48.0356V50.53ZM60.1215 50.3314H68.2341V48.2011L63.3335 46.4461L63.3114 46.4241C62.3842 45.1658 61.3357 43.6978 60.3312 42.285C59.4703 41.0929 58.6646 39.9561 58.0244 39.0841C57.8368 38.8302 58.2231 38.0134 58.9847 36.5896C59.1282 36.3247 59.2385 36.115 59.2716 36.0267C59.6138 35.1878 59.9229 34.3159 60.2209 33.477C60.3754 33.0576 60.5299 32.6161 60.6844 32.1856C61.3467 30.4086 61.9979 28.6757 62.8368 26.9869C62.8368 26.9759 62.8809 26.9097 63.4218 26.0046C63.4769 25.9163 63.5101 25.85 63.5211 25.85C63.9736 25.0774 69.1503 23.5322 70.0553 23.2673C70.0222 22.2849 70.0222 21.8544 70.0443 21.6558L54.1723 21.6889V24.084L59.3489 25.6734V25.7507C59.3268 26.0598 59.3158 26.3688 59.2937 26.6558C59.0509 30.9825 58.9295 33.1569 56.9427 37.2629L56.8654 37.4174L56.7661 37.285C54.5365 34.2386 52.8036 31.8545 50.5851 28.786C50.1215 28.1348 49.68 27.5278 49.2716 26.9538C48.0133 25.1988 47.0199 23.8081 46.1038 22.5057L46.0486 22.4174L46.1369 22.3622C51.9648 18.3445 54.3489 14.8014 54.3489 10.1326C54.3489 4.61377 51.1811 1.18109 46.0707 1.18109C40.7506 1.18109 37.1744 5.14357 37.1744 11.0487C37.1744 15.0001 38.3886 18.5984 40.9824 22.3732L41.2804 22.8147L41.1921 22.8699C35.574 26.4792 32.8367 31.2695 32.8367 37.4947C32.8367 44.8126 37.8477 50.3314 44.5034 50.3314C49.7573 50.3314 52.4835 46.4461 54.8897 43.0135L54.978 42.881L55.0663 43.0024C55.6844 43.8523 59.7352 49.7574 60.1215 50.3314ZM45.85 46.0819C43.2782 46.0819 41.0817 44.9561 39.5034 42.8148C38.1126 40.9163 37.3069 38.3115 37.3069 35.6514C37.3069 32.3843 38.2009 27.8368 42.4283 24.6911L42.5166 24.6249L42.5718 24.7132C43.8853 26.6668 45.0773 28.477 46.5895 30.7728C47.2186 31.722 47.8919 32.7485 48.6425 33.8964C49.7573 35.4748 50.6182 36.711 51.5343 38.0245C52.1634 38.9296 52.8367 39.9009 53.6646 41.0709L53.7087 41.1371L53.6535 41.1923C51.6116 43.5653 49.1392 46.0819 45.85 46.0819ZM42.4725 24.9229C38.3775 28.0134 37.5166 32.4616 37.5166 35.6514C37.5166 40.6073 40.4415 45.8722 45.85 45.8722C49.0288 45.8722 51.446 43.4329 53.4659 41.1371C52.6601 39.9892 52.0089 39.051 51.3798 38.1569C50.4637 36.8435 49.6027 35.6073 48.4879 34.0289C47.7374 32.892 47.0531 31.8655 46.4349 30.9053C44.9449 28.6315 43.7639 26.8434 42.4725 24.9229ZM44.9007 20.7286L44.8345 20.6293C44.3268 19.8677 43.8301 19.1171 43.3224 18.3114C41.2252 14.9229 40.8058 12.6933 40.8058 10.1988C40.8058 8.34447 41.3466 6.63364 42.3179 5.3864C43.2892 4.13915 44.6027 3.45483 46.0155 3.45483C47.4173 3.45483 48.6866 4.10604 49.5807 5.28706C50.5078 6.52327 51.0045 8.24513 51.0045 10.265C51.0045 12.2518 50.4526 14.095 49.3158 15.9052C48.3555 17.4394 46.9758 18.9405 44.989 20.6514L44.9007 20.7286ZM46.0155 3.66454C44.6689 3.66454 43.4107 4.32679 42.4835 5.51885C41.5343 6.73298 41.0155 8.39965 41.0155 10.2098C41.0155 12.6712 41.4349 14.8677 43.499 18.2121C43.9846 18.9736 44.4592 19.7021 44.9449 20.4196C49.0509 16.8765 50.8058 13.8412 50.8058 10.276C50.8058 8.28928 50.3312 6.61157 49.4261 5.41951C48.5652 4.28264 47.3511 3.66454 46.0155 3.66454Z" fill="#2D2F77"/>
<path d="M2.57175 0H0V50.7618H2.57175V0Z" fill="#2D2F77"/>
</svg>
