<svg width="19" height="23" viewBox="0 0 19 23" fill="none" xmlns="http://www.w3.org/2000/svg">
<path d="M16.2561 22.5827H3.20275C2.90435 22.5831 2.60899 22.5228 2.33464 22.4054C2.06029 22.288 1.81269 22.1161 1.6069 21.9C1.4011 21.6839 1.24142 21.4282 1.13756 21.1484C1.0337 20.8687 0.987832 20.5708 1.00275 20.2727L1.59675 7.63006C1.62134 7.06326 1.86393 6.52788 2.27388 6.13569C2.68382 5.74351 3.22942 5.52486 3.79675 5.52539H15.6621C16.2294 5.52486 16.775 5.74351 17.185 6.13569C17.5949 6.52788 17.8375 7.06326 17.8621 7.63006L18.4561 20.2727C18.471 20.5708 18.4251 20.8687 18.3213 21.1484C18.2174 21.4282 18.0577 21.6839 17.8519 21.9C17.6461 22.1161 17.3985 22.288 17.1242 22.4054C16.8498 22.5228 16.5545 22.5831 16.2561 22.5827ZM3.79675 6.99939C3.60226 6.99939 3.41573 7.07665 3.27821 7.21418C3.14068 7.35171 3.06342 7.53823 3.06342 7.73273L2.46942 20.3461C2.46445 20.4454 2.47973 20.5447 2.51435 20.638C2.54897 20.7312 2.6022 20.8164 2.6708 20.8885C2.7394 20.9605 2.82193 21.0178 2.91338 21.0569C3.00483 21.0961 3.10328 21.1162 3.20275 21.1161H16.2561C16.3556 21.1162 16.454 21.0961 16.5455 21.0569C16.6369 21.0178 16.7194 20.9605 16.788 20.8885C16.8566 20.8164 16.9099 20.7312 16.9445 20.638C16.9791 20.5447 16.9944 20.4454 16.9894 20.3461L16.3954 7.70339C16.3954 7.5089 16.3182 7.32237 16.1806 7.18485C16.0431 7.04732 15.8566 6.97006 15.6621 6.97006L3.79675 6.99939Z" fill="#2D2F77" stroke="#2D2F77" stroke-width="0.3"/>
<path d="M14.1291 6.26536H12.6624V4.98203C12.6624 4.20406 12.3534 3.45796 11.8033 2.90785C11.2532 2.35774 10.5071 2.0487 9.7291 2.0487C8.95113 2.0487 8.20503 2.35774 7.65492 2.90785C7.10481 3.45796 6.79577 4.20406 6.79577 4.98203V6.26536H5.3291V4.98203C5.3291 3.81508 5.79267 2.69592 6.61783 1.87076C7.44299 1.0456 8.56215 0.582031 9.7291 0.582031C10.8961 0.582031 12.0152 1.0456 12.8404 1.87076C13.6655 2.69592 14.1291 3.81508 14.1291 4.98203V6.26536Z" fill="#2D2F77" stroke="#2D2F77" stroke-width="0.3"/>
</svg>
