<svg width="19" height="24" viewBox="0 0 19 24" fill="none" xmlns="http://www.w3.org/2000/svg">
<path d="M16.2561 23.0007H3.20275C2.90435 23.0011 2.60899 22.9407 2.33464 22.8234C2.06029 22.706 1.81269 22.534 1.6069 22.3179C1.4011 22.1019 1.24142 21.8462 1.13756 21.5664C1.0337 21.2867 0.987832 20.9887 1.00275 20.6907L1.59675 8.04803C1.62134 7.48123 1.86393 6.94584 2.27388 6.55366C2.68382 6.16148 3.22942 5.94283 3.79675 5.94336H15.6621C16.2294 5.94283 16.775 6.16148 17.185 6.55366C17.5949 6.94584 17.8375 7.48123 17.8621 8.04803L18.4561 20.6907C18.471 20.9887 18.4251 21.2867 18.3213 21.5664C18.2174 21.8462 18.0577 22.1019 17.8519 22.3179C17.6461 22.534 17.3985 22.706 17.1242 22.8234C16.8498 22.9407 16.5545 23.0011 16.2561 23.0007ZM3.79675 7.41736C3.60226 7.41736 3.41573 7.49462 3.27821 7.63215C3.14068 7.76968 3.06342 7.9562 3.06342 8.15069L2.46942 20.764C2.46445 20.8634 2.47973 20.9627 2.51435 21.0559C2.54897 21.1492 2.6022 21.2344 2.6708 21.3064C2.7394 21.3785 2.82193 21.4358 2.91338 21.4749C3.00483 21.514 3.10328 21.5342 3.20275 21.534H16.2561C16.3556 21.5342 16.454 21.514 16.5455 21.4749C16.6369 21.4358 16.7194 21.3785 16.788 21.3064C16.8566 21.2344 16.9099 21.1492 16.9445 21.0559C16.9791 20.9627 16.9944 20.8634 16.9894 20.764L16.3954 8.12136C16.3954 7.92687 16.3182 7.74034 16.1806 7.60282C16.0431 7.46529 15.8566 7.38803 15.6621 7.38803L3.79675 7.41736Z" fill="#2D2F77" stroke="#2D2F77" stroke-width="0.3"/>
<path d="M14.1291 6.68333H12.6624V5.4C12.6624 4.62203 12.3534 3.87593 11.8033 3.32582C11.2532 2.77571 10.5071 2.46667 9.7291 2.46667C8.95113 2.46667 8.20503 2.77571 7.65492 3.32582C7.10481 3.87593 6.79577 4.62203 6.79577 5.4V6.68333H5.3291V5.4C5.3291 4.23305 5.79267 3.11389 6.61783 2.28873C7.44299 1.46357 8.56215 1 9.7291 1C10.8961 1 12.0152 1.46357 12.8404 2.28873C13.6655 3.11389 14.1291 4.23305 14.1291 5.4V6.68333Z" fill="#2D2F77" stroke="#2D2F77" stroke-width="0.3"/>
<path d="M2 18.918L2.5 7.41797L4.5 6.41797L16.5 6.91797L17 9.91797L17.5 20.418L17 21.918H2L1.5 18.918H2Z" fill="#2D2F77" stroke="#2D2F77"/>
</svg>
