<svg width="24" height="24" viewBox="0 0 24 24" fill="none" xmlns="http://www.w3.org/2000/svg">
<path d="M10.4231 23.0015H10.4212C9.73271 23.001 9.08532 22.7324 8.59866 22.245L1.74413 15.3806C0.741541 14.3762 0.741541 12.7418 1.74413 11.7374L10.9841 2.47971C11.9364 1.5256 13.2034 1 14.5516 1H20.4139C21.8354 1 22.9922 2.15648 22.9922 3.57831V9.4226C22.9922 10.7699 22.4671 12.0364 21.514 12.9885L12.2452 22.2475C11.7583 22.7338 11.1112 23.0015 10.4231 23.0015ZM14.5516 2.71887C13.6632 2.71887 12.8283 3.0652 12.2008 3.69393L2.96063 12.9517C2.62639 13.2866 2.62639 13.8312 2.96063 14.1661L9.81516 21.0305C9.97725 21.1928 10.1929 21.2825 10.4225 21.2827C10.6519 21.2827 10.8682 21.1934 11.0305 21.0314L20.2992 11.7725C20.9274 11.1451 21.2733 10.3104 21.2733 9.4226V3.57831C21.2733 3.10441 20.8878 2.71887 20.4139 2.71887H14.5516Z" fill="#2D2F77" stroke="#2D2F77" stroke-width="0.4"/>
</svg>
