<svg width="22" height="22" viewBox="0 0 22 22" fill="none" xmlns="http://www.w3.org/2000/svg">
<path d="M18.37 22H3.63C1.65 22 0 20.328 0 18.326V10.296C0 9.284 0.44 8.294 1.21 7.612L8.58 0.924C10.01 -0.308 11.99 -0.308 13.42 0.924L20.79 7.612C21.56 8.272 22 9.284 22 10.296V18.326C21.89 20.438 20.35 22 18.37 22ZM11 2.266C10.67 2.266 10.34 2.376 10.01 2.596L2.64 9.284C2.31 9.504 2.2 9.944 2.2 10.406V18.436C2.2 19.206 2.86 19.888 3.63 19.888H18.26C19.03 19.888 19.69 19.228 19.69 18.436V10.406C19.69 9.966 19.47 9.636 19.25 9.284L11.88 2.596C11.66 2.376 11.33 2.266 11 2.266Z" fill="#2D2F77"/>
<path d="M1 9.5V18.5L2.5 21H18L20.5 20V9L10.5 1L1 9.5Z" fill="#2D2F77"/>
</svg>
