<svg width="752" height="449" viewBox="0 0 752 449" fill="none" xmlns="http://www.w3.org/2000/svg">
<path d="M102.335 202.523L115.797 199.694C117.261 199.304 118.431 198.621 119.407 197.451C120.383 196.28 120.87 195.012 120.87 193.451V75.1171C120.87 73.4587 120.383 72.0929 119.407 71.0198C118.431 69.8491 117.261 69.1662 115.797 68.776L102.335 66.0445V61.0692H155.307C165.941 61.0692 174.623 61.9472 181.549 63.8007C188.378 65.6543 193.744 67.9956 197.646 71.0198C201.548 74.044 204.28 77.4584 205.743 81.3606C207.206 85.2628 207.987 89.2625 207.987 93.4574C207.987 98.0424 207.206 102.335 205.743 106.237C204.28 110.139 202.133 113.651 199.402 116.773C196.67 119.895 193.353 122.529 189.451 124.772C185.549 127.016 181.257 128.772 176.476 130.04C182.135 130.235 187.5 131.211 192.475 132.967C197.451 134.723 201.841 137.064 205.548 140.088C209.255 143.113 212.181 146.722 214.328 151.015C216.474 155.307 217.547 160.087 217.547 165.355C217.547 170.916 216.767 175.891 215.108 180.086C213.547 184.378 211.303 187.988 208.474 191.11C205.645 194.231 202.426 196.865 198.621 198.914C194.817 200.963 190.719 202.719 186.427 203.987C182.037 205.255 177.55 206.133 172.769 206.718C167.989 207.206 163.307 207.499 158.526 207.499H102.433V202.523H102.335ZM149.649 128.479C156.77 128.479 162.721 127.797 167.599 126.528C172.477 125.26 176.379 123.407 179.306 121.065C182.33 118.724 184.378 115.797 185.744 112.383C187.012 108.969 187.695 105.066 187.695 100.774C187.695 95.1158 187.012 90.238 185.549 86.2383C184.086 82.2386 181.94 78.9217 179.013 76.2877C176.086 73.6538 172.477 71.8002 168.087 70.6296C163.697 69.4589 158.624 68.776 152.868 68.776H139.991V128.479H149.649ZM162.429 199.597C173.745 199.597 182.232 197.255 187.988 192.573C193.646 187.89 196.475 180.281 196.475 169.647C196.475 163.404 195.695 158.136 194.134 153.844C192.573 149.551 190.134 146.039 186.915 143.405C183.696 140.771 179.501 138.82 174.428 137.65C169.355 136.479 163.307 135.796 156.38 135.796H139.991V199.597H162.429Z" fill="#2D2F77"/>
<path d="M233.936 202.718L245.74 200.084C247.203 199.694 248.277 199.011 249.155 197.938C250.033 196.865 250.52 195.597 250.52 194.036V124.187C250.52 122.333 250.033 120.772 249.057 119.407C248.081 118.041 246.325 116.968 243.984 116.09L234.229 112.578V109.749L267.3 102.432V125.748C268.958 123.016 270.909 120.187 272.958 117.26C275.007 114.431 277.348 111.797 279.982 109.456C282.616 107.115 285.445 105.261 288.664 103.798C291.786 102.335 295.298 101.554 299.2 101.554C301.151 101.554 302.907 101.652 304.273 101.847C305.736 102.042 307.004 102.237 308.078 102.53C309.248 102.822 310.321 103.115 311.297 103.505C312.272 103.896 313.345 104.286 314.614 104.774V129.65H309.151L305.736 120.675C305.444 119.992 304.858 119.309 303.883 118.821C303.005 118.334 301.932 117.846 300.761 117.553C299.59 117.26 298.322 116.968 297.054 116.773C295.786 116.578 294.517 116.48 293.444 116.48C290.908 116.48 288.469 116.773 286.225 117.456C283.982 118.138 281.835 119.016 279.787 120.187C277.738 121.358 275.787 122.919 273.933 124.772C272.08 126.626 270.226 128.772 268.47 131.113V193.938C268.47 195.597 268.958 196.963 269.836 197.938C270.714 199.011 271.885 199.694 273.251 199.987L287.006 202.621V207.401H234.034V202.718H233.936Z" fill="#2D2F77"/>
<path d="M376.171 201.353C373.244 203.596 370.22 205.352 367.195 206.621C364.171 207.889 361.245 208.669 358.22 209.06C355.294 209.45 352.562 209.645 350.123 209.645C346.124 209.645 342.417 208.864 339.1 207.401C335.783 205.938 332.954 203.889 330.613 201.45C328.271 199.011 326.418 196.085 325.052 192.768C323.784 189.451 323.101 185.939 323.101 182.232C323.101 177.94 323.881 174.037 325.345 170.623C326.905 167.209 328.954 164.184 331.491 161.648C334.124 159.014 337.051 156.868 340.368 155.014C343.685 153.161 347.099 151.697 350.709 150.624C354.221 149.454 357.83 148.673 361.342 148.088C364.854 147.6 368.171 147.307 371.195 147.307C371.878 147.307 372.756 147.405 373.927 147.503C375.097 147.6 376.366 147.698 377.731 147.795C379 147.893 380.365 147.99 381.536 148.088C382.804 148.185 383.78 148.185 384.463 148.185L384.56 129.065C384.56 125.65 384.268 122.821 383.682 120.577C383.097 118.334 382.121 116.48 380.951 115.212C379.682 113.944 378.122 112.968 376.268 112.48C374.317 111.993 372.073 111.7 369.342 111.7C365.83 111.7 362.513 112.285 359.196 113.456C355.879 114.627 352.757 116.09 349.928 117.748C347.002 119.407 344.368 121.26 341.831 123.114C339.392 124.967 337.246 126.626 335.49 127.992H333.149L329.832 111.212C331.881 110.042 334.124 108.968 336.661 107.798C339.197 106.627 341.929 105.554 344.758 104.676C347.685 103.798 350.806 103.018 354.026 102.53C357.342 101.945 360.757 101.652 364.366 101.652C368.659 101.652 373.146 102.237 377.634 103.408C382.121 104.578 386.316 106.432 389.926 109.066C393.633 111.7 396.559 115.114 398.901 119.504C401.242 123.797 402.315 129.065 402.218 135.308L401.535 191.012C401.535 192.085 401.73 193.061 402.023 193.841C402.413 194.621 402.9 195.402 403.681 195.987C404.461 196.573 405.339 197.06 406.412 197.353C407.486 197.646 408.851 197.841 410.315 197.841C410.705 197.841 411.193 197.743 411.973 197.646C412.754 197.548 413.632 197.353 414.607 197.158C415.583 196.963 416.558 196.768 417.436 196.475C418.412 196.182 419.192 195.987 419.973 195.792H421.046V200.865C420.07 201.645 418.802 202.523 417.143 203.596C415.583 204.67 413.827 205.548 411.973 206.426C410.12 207.304 408.168 208.084 406.12 208.669C404.071 209.352 402.12 209.645 400.364 209.645C397.633 209.645 395.291 209.352 393.243 208.767C391.194 208.182 389.438 207.304 388.072 205.938C386.706 204.67 385.633 202.816 384.95 200.67C384.268 198.426 383.975 195.695 383.975 192.28C381.829 196.085 379.097 199.109 376.171 201.353ZM384.658 153.648C378.219 153.648 372.366 154.136 367.195 155.014C362.025 155.892 357.538 157.356 353.928 159.404C350.319 161.355 347.489 163.892 345.441 167.013C343.49 170.135 342.417 173.842 342.417 178.135C342.417 181.842 343.002 184.964 344.075 187.402C345.148 189.939 346.611 191.987 348.367 193.548C350.123 195.109 352.075 196.182 354.221 196.865C356.367 197.548 358.513 197.841 360.562 197.841C362.513 197.841 364.659 197.646 366.903 197.158C369.147 196.768 371.293 196.085 373.439 195.207C375.585 194.329 377.536 193.158 379.487 191.792C381.438 190.329 382.999 188.671 384.365 186.719L384.658 153.648Z" fill="#2D2F77"/>
<path d="M427.777 202.718L439.386 200.084C440.849 199.694 441.923 199.011 442.801 197.938C443.678 196.865 444.166 195.597 444.166 194.036V123.992C444.166 122.138 443.678 120.577 442.703 119.309C441.727 118.041 439.971 116.968 437.63 116.09L427.875 112.578V109.749L461.531 102.432V119.699C464.263 115.992 466.896 112.871 469.628 110.529C472.36 108.188 475.091 106.334 477.823 104.969C480.554 103.701 483.383 102.725 486.212 102.335C489.041 101.847 491.87 101.652 494.797 101.652C499.382 101.652 503.772 102.335 507.772 103.701C511.772 105.066 515.284 107.212 518.308 110.139C521.332 113.066 523.576 116.87 525.332 121.553C526.99 126.236 527.868 131.699 527.868 138.235V193.743C527.868 195.499 528.356 196.963 529.331 198.036C530.307 199.109 531.38 199.889 532.648 200.182L542.892 202.816V207.596H493.822V202.816L505.528 200.182C506.894 199.792 507.967 199.109 508.845 198.036C509.723 196.963 510.113 195.499 510.113 193.743V144.966C510.113 140.186 509.821 135.894 509.333 132.089C508.845 128.187 507.674 124.967 506.016 122.236C504.357 119.504 502.016 117.358 499.09 115.895C496.065 114.432 492.163 113.651 487.285 113.651C485.139 113.651 482.895 113.846 480.652 114.334C478.31 114.724 476.067 115.407 473.823 116.285C471.579 117.163 469.433 118.334 467.482 119.699C465.433 121.163 463.677 122.821 462.116 124.772V194.231C462.116 195.89 462.604 197.158 463.482 198.231C464.36 199.304 465.531 199.987 466.897 200.28L477.14 202.914V207.694H427.875V202.718H427.777Z" fill="#2D2F77"/>
<path d="M628.642 192.085C625.618 196.182 622.496 199.402 619.277 201.743C616.057 204.084 613.033 205.84 610.009 207.011C606.985 208.182 604.156 208.864 601.619 209.157C598.985 209.45 596.839 209.547 595.083 209.547C588.742 209.547 582.986 208.279 578.011 205.743C573.036 203.206 568.743 199.694 565.329 195.304C561.817 190.817 559.183 185.549 557.329 179.5C555.476 173.452 554.598 166.721 554.598 159.502C554.598 151.502 555.671 143.991 557.915 136.869C560.159 129.845 563.28 123.699 567.475 118.431C571.67 113.163 576.743 109.066 582.694 106.042C588.742 103.018 595.571 101.457 603.18 101.457C606.204 101.457 609.033 101.749 611.472 102.335C613.911 102.92 616.155 103.7 618.204 104.578C620.252 105.554 622.008 106.627 623.667 107.895C625.227 109.164 626.691 110.432 627.959 111.7V107.115V69.2637C627.959 67.4102 627.471 65.8493 626.593 64.5811C625.715 63.3129 623.959 62.2398 621.52 61.4593L610.497 57.9474V55.1183L645.909 46.9237V187.793C645.909 189.646 646.397 191.207 647.372 192.475C648.348 193.743 650.006 194.816 652.543 195.597L662.298 198.719V201.548L630.983 209.742H628.837V192.085H628.642ZM627.959 116.968C626.788 115.895 625.13 114.919 623.179 114.139C621.228 113.261 619.082 112.578 616.935 111.993C614.789 111.407 612.643 111.017 610.594 110.724C608.546 110.432 606.79 110.334 605.521 110.334C600.058 110.334 595.376 111.505 591.376 113.749C587.376 115.992 584.059 119.017 581.328 122.919C578.596 126.723 576.645 131.113 575.279 136.186C574.011 141.161 573.328 146.429 573.328 151.99C573.328 158.624 573.914 164.77 575.182 170.428C576.45 175.988 578.304 180.866 580.938 184.866C583.572 188.866 586.791 192.085 590.791 194.329C594.79 196.572 599.571 197.743 605.131 197.743C606.692 197.743 608.546 197.548 610.692 197.255C612.838 196.865 614.984 196.28 617.033 195.499C619.179 194.719 621.228 193.548 623.179 192.183C625.13 190.817 626.788 189.061 628.057 187.012V116.968H627.959Z" fill="#2D2F77"/>
<path d="M675.761 175.305H681.224L685.224 187.988C685.809 189.744 686.882 191.207 688.54 192.475C690.199 193.646 691.662 194.719 693.125 195.499C694.296 196.182 695.759 196.767 697.515 197.548C699.271 198.231 701.125 198.914 703.076 199.597C705.027 200.279 707.076 200.767 709.222 201.157C711.271 201.548 713.319 201.743 715.27 201.743C717.904 201.743 720.441 201.45 722.88 200.865C725.318 200.279 727.562 199.206 729.513 197.841C731.464 196.377 732.928 194.621 734.098 192.28C735.269 190.036 735.854 187.207 735.854 183.793C735.854 180.964 735.367 178.525 734.294 176.574C733.22 174.623 731.855 172.964 730.099 171.696C728.343 170.428 726.294 169.257 723.953 168.477C721.611 167.599 719.173 166.818 716.539 166.135C712.929 165.16 709.417 164.184 706.1 163.306C702.686 162.428 699.662 161.453 696.93 160.575C694.003 159.697 691.369 158.331 689.028 156.673C686.687 155.014 684.638 152.965 682.882 150.527C681.126 148.088 679.76 145.454 678.883 142.43C677.907 139.405 677.419 136.284 677.419 132.869C677.419 128.284 678.395 124.089 680.443 120.187C682.492 116.382 685.224 113.066 688.638 110.334C692.15 107.603 696.15 105.456 700.735 103.993C705.32 102.53 710.1 101.749 715.27 101.749C718.295 101.749 720.928 101.847 723.465 102.042C725.904 102.237 728.343 102.53 730.684 102.92C733.025 103.31 735.269 103.798 737.513 104.286C739.757 104.773 742.098 105.359 744.537 106.042L746.195 134.528H740.342L735.659 121.748C735.074 120.187 734.196 118.821 732.928 117.651C731.66 116.48 730.294 115.504 728.83 114.724C726.392 113.553 723.758 112.48 720.733 111.505C717.709 110.627 714.587 110.139 711.368 110.139C709.124 110.139 706.881 110.432 704.637 111.017C702.393 111.602 700.442 112.48 698.686 113.748C696.93 115.017 695.467 116.675 694.394 118.821C693.321 120.87 692.735 123.406 692.735 126.431C692.735 129.455 693.223 131.894 694.101 133.942C694.979 135.991 696.15 137.747 697.613 139.015C699.076 140.381 700.637 141.454 702.491 142.332C704.247 143.21 706.1 143.893 707.954 144.478C709.417 144.966 711.075 145.454 712.734 145.942C714.392 146.429 716.051 146.917 717.709 147.405C719.27 147.893 720.831 148.283 722.197 148.673C723.562 149.063 724.733 149.356 725.611 149.649C729.221 150.722 732.635 151.99 735.757 153.453C738.879 154.917 741.61 156.77 743.854 158.916C746.195 161.062 747.951 163.501 749.317 166.428C750.585 169.257 751.268 172.671 751.268 176.476C751.268 182.427 750.195 187.597 747.951 191.792C745.707 196.085 742.781 199.597 739.074 202.328C735.367 205.06 730.977 207.108 726.001 208.474C721.026 209.742 715.661 210.425 710.1 210.425C706.49 210.425 703.174 210.23 700.052 209.742C696.93 209.352 694.101 208.767 691.369 208.084C688.638 207.401 686.004 206.62 683.565 205.84C681.126 205.06 678.687 204.182 676.249 203.401V175.305H675.761Z" fill="#2D2F77"/>
<path d="M140.869 408.656L154.331 405.827C155.795 405.437 156.965 404.754 157.941 403.583C158.917 402.413 159.404 401.145 159.404 399.584V281.347C159.404 279.689 158.917 278.323 157.941 277.25C156.965 276.079 155.795 275.397 154.331 275.006L140.869 272.275V267.3H197.743V272.275L183.598 275.006C182.135 275.299 180.964 276.079 179.988 277.25C179.013 278.421 178.525 279.884 178.525 281.347V405.632H232.278C232.96 405.632 233.643 405.437 234.131 405.047C234.619 404.656 235.107 404.169 235.497 403.583C235.887 402.998 236.18 402.315 236.375 401.73C236.57 401.047 236.765 400.559 236.863 400.071L244.96 371.976H250.618V413.729H140.869V408.656Z" fill="#2D2F77"/>
<path d="M314.028 407.486C311.102 409.729 308.078 411.485 305.053 412.754C302.029 414.022 299.103 414.802 296.078 415.192C293.152 415.583 290.42 415.778 287.981 415.778C283.982 415.778 280.275 414.997 276.958 413.534C273.641 412.071 270.812 410.022 268.47 407.583C266.129 405.144 264.276 402.218 262.91 398.901C261.642 395.584 260.959 392.072 260.959 388.365C260.959 384.073 261.739 380.17 263.202 376.756C264.763 373.342 266.812 370.317 269.348 367.781C271.982 365.147 274.909 363.001 278.226 361.147C281.543 359.294 284.957 357.83 288.567 356.757C292.079 355.587 295.688 354.806 299.2 354.221C302.712 353.733 306.029 353.44 309.053 353.44C309.736 353.44 310.614 353.538 311.785 353.635C312.955 353.733 314.224 353.831 315.589 353.928C316.858 354.026 318.223 354.123 319.394 354.221C320.662 354.318 321.638 354.318 322.321 354.318L322.418 335.198C322.418 331.783 322.125 328.954 321.54 326.71C320.955 324.467 319.979 322.613 318.809 321.345C317.54 320.077 315.98 319.101 314.126 318.613C312.175 318.126 309.931 317.833 307.2 317.833C303.688 317.833 300.371 318.418 297.054 319.589C293.737 320.76 290.615 322.223 287.786 323.881C284.86 325.54 282.226 327.393 279.689 329.247C277.25 331.1 275.104 332.759 273.348 334.125H271.007L267.69 317.345C269.739 316.174 271.982 315.101 274.519 313.931C277.055 312.76 279.787 311.687 282.616 310.809C285.543 309.931 288.664 309.151 291.884 308.663C295.2 308.077 298.615 307.785 302.224 307.785C306.517 307.785 311.004 308.37 315.492 309.541C319.979 310.711 324.174 312.565 327.784 315.199C331.491 317.833 334.417 321.247 336.759 325.637C339.1 329.93 340.173 335.198 340.076 341.441L339.393 397.145C339.393 398.218 339.588 399.193 339.88 399.974C340.271 400.754 340.758 401.535 341.539 402.12C342.319 402.705 343.197 403.193 344.27 403.486C345.343 403.779 346.709 403.974 348.173 403.974C348.563 403.974 349.051 403.876 349.831 403.779C350.611 403.681 351.489 403.486 352.465 403.291C353.441 403.096 354.416 402.901 355.294 402.608C356.27 402.315 357.05 402.12 357.83 401.925H358.904V406.998C357.928 407.778 356.66 408.656 355.001 409.729C353.441 410.802 351.685 411.68 349.831 412.558C347.977 413.436 346.026 414.217 343.978 414.802C341.929 415.485 339.978 415.778 338.222 415.778C335.49 415.778 333.149 415.485 331.101 414.9C329.052 414.314 327.296 413.436 325.93 412.071C324.564 410.802 323.491 408.949 322.808 406.803C322.125 404.559 321.833 401.827 321.833 398.413C319.687 402.218 317.053 405.242 314.028 407.486ZM322.516 359.781C316.077 359.781 310.224 360.269 305.053 361.147C299.883 362.025 295.396 363.488 291.786 365.537C288.176 367.488 285.347 370.025 283.299 373.146C281.348 376.268 280.275 379.975 280.275 384.268C280.275 387.975 280.86 391.096 281.933 393.535C283.006 396.072 284.469 398.12 286.225 399.681C287.981 401.242 289.932 402.315 292.079 402.998C294.225 403.681 296.371 403.974 298.42 403.974C300.371 403.974 302.517 403.779 304.761 403.291C307.005 402.901 309.151 402.218 311.297 401.34C313.443 400.462 315.394 399.291 317.345 397.925C319.296 396.462 320.857 394.804 322.223 392.852L322.516 359.781Z" fill="#2D2F77"/>
<path d="M377.439 275.494C377.439 273.641 376.951 272.08 375.976 270.812C375 269.543 373.244 268.47 370.903 267.592L361.147 264.08V261.251L395.389 253.057V320.272V325.54C398.218 321.442 401.242 318.126 404.364 315.784C407.486 313.345 410.51 311.589 413.436 310.419C416.363 309.248 419.095 308.468 421.729 308.175C424.363 307.882 426.509 307.687 428.265 307.687C434.606 307.687 440.362 308.955 445.337 311.394C450.312 313.833 454.605 317.345 458.019 321.833C461.531 326.32 464.165 331.588 466.018 337.832C467.872 344.075 468.75 350.806 468.75 358.221C468.75 366.415 467.579 374.024 465.336 381.048C463.092 388.17 459.775 394.316 455.385 399.584C450.995 404.852 445.727 409.046 439.484 411.973C433.24 414.997 426.119 416.461 418.022 416.461C414.997 416.461 411.973 416.363 408.656 416.07C405.437 415.778 402.023 415.388 398.706 414.607C395.291 413.924 391.877 412.949 388.267 411.68C384.755 410.412 381.146 408.851 377.536 406.803V275.494H377.439ZM395.291 399.974C396.169 400.949 397.535 402.023 399.194 403.096C400.852 404.169 402.803 405.242 404.754 406.217C406.705 407.193 408.851 407.973 410.9 408.559C412.949 409.144 414.802 409.437 416.558 409.437C422.314 409.437 427.289 408.168 431.484 405.73C435.679 403.291 439.191 400.071 441.922 395.974C444.654 391.877 446.703 387.194 447.971 382.024C449.239 376.756 449.922 371.39 449.922 365.732C449.922 359.099 449.337 352.953 448.068 347.294C446.8 341.636 444.947 336.759 442.313 332.661C439.679 328.564 436.459 325.345 432.46 323.003C428.46 320.662 423.68 319.589 418.119 319.589C416.461 319.589 414.705 319.784 412.656 320.077C410.607 320.467 408.559 321.052 406.51 321.93C404.461 322.808 402.413 323.979 400.462 325.442C398.511 326.906 396.755 328.759 395.291 331.003V399.974Z" fill="#2D2F77"/>
<path d="M570.207 391.487V399.096C568.061 401.145 565.622 403.193 562.793 405.242C559.964 407.29 556.842 409.144 553.428 410.802C550.013 412.461 546.306 413.729 542.404 414.802C538.502 415.875 534.404 416.363 530.21 416.363C523.283 416.363 516.942 415.192 511.186 412.851C505.528 410.51 500.553 407.095 496.456 402.51C492.358 397.925 489.139 392.365 486.895 385.633C484.652 379 483.481 371.293 483.481 362.61C483.481 355.391 484.554 348.465 486.7 341.831C488.846 335.198 491.968 329.344 496.065 324.369C500.163 319.296 505.236 315.297 511.089 312.272C517.04 309.248 523.673 307.785 531.088 307.785C537.429 307.785 542.989 308.955 547.867 311.297C552.745 313.638 556.842 316.662 560.159 320.467C563.476 324.272 566.012 328.564 567.671 333.344C569.329 338.222 570.207 343.1 570.207 348.075C570.207 348.758 570.207 349.343 570.109 350.123C570.109 350.806 570.012 351.587 570.012 352.27C570.012 352.953 569.914 353.635 569.817 354.318C569.719 355.001 569.622 355.587 569.524 356.172H501.919C502.016 371.586 504.943 383.487 510.699 391.877C516.454 400.169 525.137 404.364 536.843 404.364C540.843 404.364 544.453 403.876 547.769 402.998C551.086 402.12 554.111 401.047 556.744 399.779C559.378 398.511 561.72 397.145 563.768 395.682C565.817 394.218 567.475 392.852 568.939 391.682H570.207V391.487ZM551.574 348.953C551.574 344.465 551.184 340.173 550.501 336.076C549.721 331.978 548.55 328.271 546.794 325.052C545.135 321.833 542.892 319.296 540.16 317.443C537.429 315.589 534.112 314.614 530.21 314.614C526.307 314.614 522.795 315.394 519.771 317.052C516.65 318.711 514.016 320.955 511.674 323.979C509.333 327.003 507.479 330.613 506.016 334.807C504.553 339.1 503.48 343.782 502.797 348.953H551.574Z" fill="#2D2F77"/>
<path d="M582.303 408.949L593.815 406.315C595.278 405.925 596.351 405.242 597.229 404.169C598.107 403.096 598.595 401.827 598.595 400.267V275.494C598.595 273.641 598.107 272.08 597.132 270.812C596.156 269.543 594.498 268.47 592.059 267.592L582.303 264.08V261.251L616.448 253.057V400.169C616.448 401.827 616.935 403.096 617.813 404.169C618.691 405.242 619.862 405.925 621.228 406.217L631.471 408.851V413.632H582.401V408.949H582.303Z" fill="#2D2F77"/>
<path d="M646.397 381.438H651.86L655.86 394.12C656.445 395.876 657.518 397.34 659.176 398.608C660.835 399.779 662.298 400.852 663.761 401.632C664.932 402.315 666.395 402.9 668.151 403.681C669.907 404.364 671.761 405.047 673.712 405.729C675.663 406.412 677.712 406.9 679.858 407.29C681.907 407.681 683.955 407.876 685.906 407.876C688.54 407.876 691.077 407.583 693.516 406.998C695.955 406.412 698.198 405.339 700.149 403.973C702.1 402.51 703.564 400.754 704.734 398.413C705.905 396.169 706.49 393.34 706.49 389.926C706.49 387.097 706.003 384.658 704.93 382.707C703.856 380.755 702.491 379.097 700.735 377.829C698.979 376.561 696.93 375.39 694.589 374.61C692.247 373.732 689.809 372.951 687.175 372.268C683.565 371.293 680.053 370.317 676.736 369.439C673.322 368.561 670.298 367.586 667.566 366.708C664.639 365.83 662.006 364.464 659.664 362.805C657.323 361.147 655.274 359.098 653.518 356.66C651.762 354.221 650.396 351.587 649.518 348.562C648.543 345.538 648.055 342.417 648.055 339.002C648.055 334.417 649.031 330.222 651.079 326.32C653.128 322.515 655.86 319.199 659.274 316.467C662.786 313.735 666.786 311.589 671.371 310.126C675.956 308.663 680.736 307.882 685.906 307.882C688.931 307.882 691.565 307.98 694.101 308.175C696.54 308.37 698.979 308.663 701.32 309.053C703.661 309.443 705.905 309.931 708.149 310.419C710.393 310.906 712.734 311.492 715.173 312.175L716.831 340.661H710.978L706.295 327.881C705.71 326.32 704.832 324.954 703.564 323.784C702.296 322.613 700.93 321.637 699.466 320.857C697.028 319.686 694.394 318.613 691.369 317.638C688.345 316.76 685.223 316.272 682.004 316.272C679.76 316.272 677.517 316.565 675.273 317.15C673.029 317.735 671.078 318.613 669.322 319.881C667.566 321.15 666.103 322.808 665.03 324.954C663.957 327.003 663.371 329.539 663.371 332.564C663.371 335.588 663.859 338.027 664.737 340.075C665.615 342.124 666.786 343.88 668.249 345.148C669.712 346.514 671.273 347.587 673.127 348.465C674.883 349.343 676.736 350.026 678.59 350.611C680.053 351.099 681.712 351.587 683.37 352.074C685.028 352.562 686.687 353.05 688.345 353.538C689.906 354.026 691.467 354.416 692.833 354.806C694.199 355.196 695.369 355.489 696.247 355.782C699.857 356.855 703.271 358.123 706.393 359.586C709.515 361.049 712.246 362.903 714.49 365.049C716.831 367.195 718.587 369.634 719.953 372.561C721.221 375.39 721.904 378.804 721.904 382.609C721.904 388.56 720.831 393.73 718.587 397.925C716.343 402.217 713.417 405.729 709.71 408.461C706.003 411.193 701.613 413.241 696.637 414.607C691.662 415.875 686.297 416.558 680.736 416.558C677.126 416.558 673.81 416.363 670.688 415.875C667.566 415.485 664.737 414.9 662.005 414.217C659.274 413.534 656.64 412.753 654.201 411.973C651.762 411.193 649.323 410.315 646.885 409.534V381.438H646.397Z" fill="#2D2F77"/>
<path d="M604.839 446.605H530.404L530.112 446.215C529.721 445.63 493.626 393.048 486.017 382.121C464.653 412.559 440.264 446.605 393.34 446.605C363.781 446.605 336.954 434.703 317.638 413.046C298.81 391.877 288.371 362.806 288.371 331.393C288.371 303.59 294.81 278.421 307.394 256.569C319.589 235.497 338.027 216.864 362.22 201.158L360.659 198.816C337.441 165.16 326.613 132.967 326.613 97.7497C326.613 71.3124 334.515 48.7773 349.441 32.6808C363.781 17.2672 384.268 8.68237 406.998 8.68237C453.239 8.68237 482.017 39.7047 482.017 89.5552C482.017 131.309 460.945 162.916 409.437 198.621C417.339 209.938 426.021 222.034 436.849 237.155C440.459 242.228 444.264 247.594 448.458 253.349C467.774 280.079 482.895 300.956 502.211 327.296C519.088 292.176 520.161 273.153 522.21 235.594C522.307 233.253 522.502 230.814 522.6 228.278L477.042 214.23V189.939H477.92C616.74 189.646 620.057 189.646 620.155 189.646V191.402C620.545 191.402 620.837 191.11 620.935 190.914C620.642 191.89 620.837 200.475 621.033 206.23V206.913L620.35 207.108C605.424 211.401 566.109 223.888 562.988 229.253C562.988 229.253 562.597 229.839 562.11 230.619C560.646 233.058 557.232 238.814 557.037 239.204C549.72 254.032 543.964 269.251 538.111 284.957C536.745 288.762 535.38 292.566 534.014 296.273C531.38 303.688 528.648 311.394 525.527 318.809C525.136 319.686 524.258 321.442 522.893 323.881C521.039 327.393 518.405 332.173 516.552 336.271C513.527 342.905 514.113 343.978 514.21 344.075C519.868 351.782 526.99 361.733 534.599 372.366C543.477 384.755 552.647 397.633 560.841 408.754L604.839 424.558V446.605ZM531.38 444.849H603.083V426.021L559.768 410.51L559.573 410.315C551.379 399.194 542.111 386.219 533.233 373.732C525.624 363.196 518.503 353.148 512.845 345.441C511.186 343.197 514.601 335.978 521.332 323.394C522.6 321.052 523.576 319.199 523.868 318.418C526.892 311.004 529.624 303.297 532.258 295.883C533.624 292.176 534.989 288.274 536.355 284.469C542.208 268.763 547.964 253.447 555.378 238.521C555.378 238.424 555.769 237.838 560.549 229.839C561.036 229.058 561.329 228.473 561.427 228.473C565.426 221.644 611.18 207.986 619.179 205.645C618.886 196.963 618.886 193.158 619.081 191.402L478.798 191.695V212.864L524.551 226.912V227.595C524.356 230.326 524.258 233.058 524.063 235.594C521.917 273.836 520.844 293.054 503.284 329.344L502.601 330.71L501.723 329.54C482.017 302.614 466.701 281.543 447.093 254.422C442.995 248.667 439.093 243.301 435.484 238.228C424.362 222.717 415.583 210.425 407.486 198.914L406.998 198.133L407.778 197.646C459.287 162.136 480.359 130.821 480.359 89.5552C480.359 40.7778 452.361 10.4384 407.193 10.4384C360.172 10.4384 328.564 45.4605 328.564 97.6522C328.564 132.577 339.295 164.38 362.22 197.743L364.854 201.645L364.074 202.133C314.418 234.034 290.225 276.372 290.225 331.393C290.225 396.072 334.515 444.849 393.34 444.849C439.776 444.849 463.872 410.51 485.139 380.17L485.919 379L486.7 380.073C492.163 387.585 527.965 439.776 531.38 444.849ZM405.242 407.291C382.512 407.291 363.098 397.34 349.148 378.414C336.856 361.635 329.734 338.612 329.734 315.101C329.734 286.225 337.636 246.033 375 218.23L375.78 217.644L376.268 218.425C387.877 235.692 398.413 251.691 411.778 271.982C417.339 280.372 423.289 289.445 429.923 299.59C439.776 313.541 447.385 324.467 455.482 336.076C461.043 344.075 466.994 352.66 474.31 363.001L474.701 363.586L474.213 364.074C456.165 385.048 434.313 407.291 405.242 407.291ZM375.39 220.278C339.197 247.594 331.588 286.908 331.588 315.101C331.588 358.903 357.44 405.437 405.242 405.437C433.337 405.437 454.702 383.877 472.554 363.586C465.433 353.44 459.677 345.148 454.117 337.246C446.02 325.637 438.41 314.711 428.557 300.761C421.924 290.713 415.875 281.64 410.412 273.153C397.242 253.057 386.804 237.253 375.39 220.278ZM396.852 183.208L396.267 182.33C391.779 175.598 387.389 168.965 382.902 161.843C364.366 131.894 360.659 112.188 360.659 90.1405C360.659 73.7513 365.439 58.6303 374.024 47.6067C382.609 36.583 394.218 30.5346 406.705 30.5346C419.095 30.5346 430.313 36.2903 438.215 46.7287C446.41 57.6548 450.8 72.8733 450.8 90.7258C450.8 108.286 445.922 124.577 435.874 140.576C427.387 154.136 415.192 167.404 397.633 182.525L396.852 183.208ZM406.705 32.3881C394.803 32.3881 383.682 38.2414 375.488 48.7773C367.098 59.5083 362.513 74.2391 362.513 90.238C362.513 111.993 366.22 131.406 384.463 160.965C388.755 167.696 392.95 174.135 397.242 180.476C433.533 149.161 449.044 122.333 449.044 90.8234C449.044 73.2635 444.849 58.4352 436.849 47.8993C429.24 37.8512 418.509 32.3881 406.705 32.3881Z" fill="#2D2F77"/>
<path d="M22.7302 0H0V448.654H22.7302V0Z" fill="#2D2F77"/>
</svg>
