<svg width="22" height="22" viewBox="0 0 22 22" fill="none" xmlns="http://www.w3.org/2000/svg">
<path d="M9.87115 0C4.43127 0 0 4.43127 0 9.87116C0 15.311 4.43127 19.7509 9.87115 19.7509C12.1947 19.7509 14.3316 18.9366 16.0205 17.5847L20.1323 21.6942C20.3398 21.8931 20.6169 22.0029 20.9043 21.9999C21.1917 21.997 21.4666 21.8817 21.67 21.6785C21.8733 21.4754 21.9891 21.2008 21.9924 20.9134C21.9958 20.626 21.8864 20.3487 21.6878 20.1409L17.5761 16.0292C18.9292 14.3377 19.7444 12.1974 19.7444 9.87116C19.7444 4.43127 15.311 0 9.87115 0ZM9.87115 2.1941C14.1253 2.1941 17.5482 5.61705 17.5482 9.87116C17.5482 14.1253 14.1253 17.5568 9.87115 17.5568C5.61703 17.5568 2.19406 14.1253 2.19406 9.87116C2.19406 5.61705 5.61703 2.1941 9.87115 2.1941Z" fill="#2D2F77"/>
<path d="M10.5 5.5L9.18876 5.59366L9 7.16667L9.42145 7.75202L11.9302 7.57024L11.5 6L11 5.16667L10.5 5.5Z" fill="#D9D9D9"/>
<path d="M11.9637 10.0363L11.4419 10.5581L12.9907 12.7093H14.7258L13.9516 8.3062L11.9637 10.0363Z" fill="#D9D9D9"/>
<path d="M10.1918 8.82192L12.5 9.5L11.9637 10.0363L13.9516 8.3062L14.9114 7.35423L11.9302 7.57024L10.1918 8.82192Z" fill="#2D2F77"/>
<path d="M15 15.5L14.938 15.9961L16.0757 16.1384L15.4058 15.2078L15 15.5ZM3 14L2.70785 13.5942L1.67455 14.3382L2.93798 14.4961L3 14ZM15.5 5L15.9808 4.86264L15.7853 4.17848L15.2078 4.59423L15.5 5ZM17.5 12L17.715 12.4514L18.097 12.2695L17.9808 11.8626L17.5 12ZM7 17L6.52354 17.1516L6.69736 17.6979L7.21497 17.4514L7 17ZM3.5 6L3.46438 5.50127L2.83101 5.54651L3.02354 6.1516L3.5 6ZM10.5 5.5L10.5356 5.99873L10.6674 5.98932L10.7774 5.91603L10.5 5.5ZM13.5 3.5L13.7774 3.91603L14.8956 3.17055L13.562 3.00386L13.5 3.5ZM9.5 3L9.56202 2.50386L9.06343 2.44154L9.00356 2.94043L9.5 3ZM9 7.16667L8.59423 7.45882L8.59423 7.45882L9 7.16667ZM12.5 9.5L12.8536 9.85355L13.4493 9.25776L12.6409 9.02027L12.5 9.5ZM12.5 17L12.0699 17.2549L12.5291 18.0298L12.9438 17.2302L12.5 17ZM9.5 11.7662L9.62886 12.2493L9.71466 12.2264L9.78732 12.1754L9.5 11.7662ZM3 13.5L2.52566 13.6581L2.6744 14.1043L3.12886 13.9831L3 13.5ZM2.5 12L2.1 11.7L1.94281 11.9096L2.02566 12.1581L2.5 12ZM4 10V9.5H3.75L3.6 9.7L4 10ZM6 10L6.48507 9.87873L6.39039 9.5H6V10ZM6.5 12L6.96277 12.1893L7.02481 12.0377L6.98507 11.8787L6.5 12ZM4 11V10.5H3.5V11H4ZM4.5 11V11.5H4.80902L4.94721 11.2236L4.5 11ZM9 10L9.49368 9.92077L9.47411 9.79881L9.4 9.7L9 10ZM9.24074 11.5L8.8106 11.7549L8.8106 11.7549L9.24074 11.5ZM17.5 8L17.9308 8.25378L18.2706 7.67693L17.621 7.51487L17.5 8ZM2.5 8.25353L2.01431 8.13477L2.5 8.25353ZM11.9074 16L12.3376 15.7451L12.3376 15.7451L11.9074 16ZM15.125 6.5L15.6101 6.62127L15.6101 6.62127L15.125 6.5ZM8.5 2.5L8.34186 2.97443L8.35086 2.97724L8.5 2.5ZM7 2L7.15811 1.52566L6.68377 1.36754L6.52566 1.84189L7 2ZM10 3.5L10.4287 3.24275L10.31 3.04476L10.0822 3.0068L10 3.5ZM11.5 6L11.9822 5.86788L11.9641 5.80164L11.9287 5.74275L11.5 6ZM15.062 15.0039L3.06202 13.5039L2.93798 14.4961L14.938 15.9961L15.062 15.0039ZM15.0192 5.13736L17.0192 12.1374L17.9808 11.8626L15.9808 4.86264L15.0192 5.13736ZM5.59423 3.29215L8.59423 7.45882L9.40577 6.87451L6.40577 2.70785L5.59423 3.29215ZM3.29215 14.4058L10.4839 9.22768L9.89963 8.41615L2.70785 13.5942L3.29215 14.4058ZM12.6409 9.02027L10.3327 8.34219L10.0509 9.30165L12.3591 9.97973L12.6409 9.02027ZM9.37114 11.2831L2.87114 13.0169L3.12886 13.9831L9.62886 12.2493L9.37114 11.2831ZM3.47434 13.3419L2.97434 11.8419L2.02566 12.1581L2.52566 13.6581L3.47434 13.3419ZM2.9 12.3L4.4 10.3L3.6 9.7L2.1 11.7L2.9 12.3ZM7.47646 16.8484L6.36283 13.3484L5.4099 13.6516L6.52354 17.1516L7.47646 16.8484ZM6.36283 13.3484L3.97646 5.8484L3.02354 6.1516L5.4099 13.6516L6.36283 13.3484ZM6.03723 11.8107L5.42359 13.3107L6.34914 13.6893L6.96277 12.1893L6.03723 11.8107ZM4.5 12.5V11H3.5V12.5H4.5ZM4 11.5H4.5V10.5H4V11.5ZM4 10.5H5V9.5H4V10.5ZM5 10.5H6V9.5H5V10.5ZM4.94721 11.2236L5.44721 10.2236L4.55279 9.77639L4.05279 10.7764L4.94721 11.2236ZM4.06985 3.7549L5.84763 6.7549L6.70792 6.2451L4.93015 3.2451L4.06985 3.7549ZM5.30815 7.89375L5.94704 7.39375L5.33073 6.60625L4.69185 7.10625L5.30815 7.89375ZM5.94704 7.39375L6.58593 6.89375L5.96962 6.10625L5.33073 6.60625L5.94704 7.39375ZM3 7.66667C3.42486 7.66667 4.97684 7.5531 5.67773 7.49849L5.60005 6.50151C4.87501 6.55801 3.37514 6.66667 3 6.66667V7.66667ZM7.1 8.3L8.6 10.3L9.4 9.7L7.9 7.7L7.1 8.3ZM5.84763 6.7549L8.8106 11.7549L9.67089 11.2451L6.70792 6.2451L5.84763 6.7549ZM8.50632 10.0792L8.74706 11.5792L9.73442 11.4208L9.49368 9.92077L8.50632 10.0792ZM2.5 11.5C2.5 11.3784 2.54732 10.8957 2.63736 10.2652C2.72545 9.6483 2.84775 8.93641 2.98569 8.37229L2.01431 8.13477C1.86526 8.74434 1.73756 9.49251 1.6474 10.1238C1.55919 10.7416 1.5 11.2952 1.5 11.5H2.5ZM2.98569 8.37229C3.06 8.06838 3.13363 7.82948 3.20067 7.67529C3.2167 7.63843 3.2306 7.61054 3.24191 7.59036C3.25362 7.56947 3.25956 7.56222 3.25837 7.56369C3.25828 7.5638 3.24144 7.58522 3.2044 7.60892C3.16454 7.63442 3.09403 7.66667 3 7.66667V6.66667C2.72614 6.66667 2.55444 6.84413 2.48181 6.93365C2.39724 7.03788 2.33319 7.16252 2.28362 7.27653C2.18225 7.50965 2.0927 7.81417 2.01431 8.13477L2.98569 8.37229ZM9.19012 8.28644L9.78601 9.11407L10.5975 8.52977L10.0017 7.70214L9.19012 8.28644ZM9.10162 8.0698C9.20069 8.71829 9.34927 9.72115 9.47298 10.6214C9.53486 11.0717 9.59022 11.4942 9.63002 11.833C9.67133 12.1848 9.69178 12.4142 9.69178 12.5H10.6918C10.6918 12.3438 10.6626 12.0516 10.6232 11.7164C10.5823 11.3682 10.5259 10.9383 10.4637 10.4852C10.3391 9.57862 10.1897 8.57057 10.0902 7.91879L9.10162 8.0698ZM8.8106 11.7549L11.4773 16.2549L12.3376 15.7451L9.67089 11.2451L8.8106 11.7549ZM11.4773 16.2549L12.0699 17.2549L12.9301 16.7451L12.3376 15.7451L11.4773 16.2549ZM9.69178 12.5C9.69178 12.6352 9.72049 12.7924 9.75418 12.9373C9.79005 13.0916 9.84041 13.2681 9.90049 13.455C10.0207 13.8292 10.186 14.2644 10.3704 14.6797C10.5532 15.0917 10.7627 15.5019 10.9743 15.8169C11.079 15.9729 11.1967 16.1245 11.3252 16.2426C11.4384 16.3466 11.6402 16.5 11.9074 16.5V15.5C12.0265 15.5 12.0635 15.5629 12.0019 15.5063C11.9555 15.4637 11.8883 15.3843 11.8044 15.2594C11.6388 15.0127 11.4563 14.6614 11.2844 14.274C11.1139 13.8898 10.9614 13.4879 10.8525 13.1491C10.7981 12.9796 10.7561 12.8307 10.7282 12.7108C10.7143 12.651 10.7047 12.6017 10.6987 12.563C10.6958 12.5438 10.694 12.5287 10.6929 12.5173C10.6924 12.5117 10.6921 12.5074 10.6919 12.5044C10.6918 12.5013 10.6918 12.4999 10.6918 12.5H9.69178ZM17.285 11.5486L16.285 12.0248L16.715 12.9276L17.715 12.4514L17.285 11.5486ZM16.285 12.0248L6.78503 16.5486L7.21497 17.4514L16.715 12.9276L16.285 12.0248ZM17 15.5C17 15.499 17 15.498 17 15.4971C17 15.4961 17 15.4951 17 15.4941C17 15.4931 17 15.4921 17 15.4911C17 15.4901 17 15.4891 17 15.4881C17 15.4871 17 15.4861 17 15.4851C17 15.484 17 15.483 17 15.482C17 15.481 17 15.4799 17 15.4789C17 15.4779 17 15.4768 17 15.4758C17 15.4748 17 15.4737 17 15.4727C17 15.4716 17 15.4706 17 15.4695C17 15.4685 17 15.4674 17 15.4663C17 15.4653 17 15.4642 17 15.4631C17 15.4621 17 15.461 17 15.4599C17 15.4588 17 15.4578 17 15.4567C17 15.4556 17 15.4545 17 15.4534C17 15.4523 17 15.4512 17 15.4501C17 15.449 17 15.4479 17 15.4468C17 15.4457 17 15.4446 17 15.4435C17 15.4423 17 15.4412 17 15.4401C17 15.439 17 15.4378 17 15.4367C17 15.4356 17 15.4344 17 15.4333C17 15.4322 17 15.431 17 15.4299C17 15.4287 17 15.4276 17 15.4264C17 15.4253 17 15.4241 17 15.4229C17 15.4218 17 15.4206 17 15.4195C17 15.4183 17 15.4171 17 15.4159C17 15.4148 17 15.4136 17 15.4124C17 15.4112 17 15.41 17 15.4088C17 15.4076 17 15.4064 17 15.4053C17 15.4041 17 15.4029 17 15.4016C17 15.4004 17 15.3992 17 15.398C17 15.3968 17 15.3956 17 15.3944C17 15.3931 17 15.3919 17 15.3907C17 15.3895 17 15.3882 17 15.387C17 15.3858 17 15.3845 17 15.3833C17 15.3821 17 15.3808 17 15.3796C17 15.3783 17 15.3771 17 15.3758C17 15.3745 17 15.3733 17 15.372C17 15.3708 17 15.3695 17 15.3682C17 15.367 17 15.3657 17 15.3644C17 15.3631 17 15.3618 17 15.3606C17 15.3593 17 15.358 17 15.3567C17 15.3554 17 15.3541 17 15.3528C17 15.3515 17 15.3502 17 15.3489C17 15.3476 17 15.3463 17 15.345C17 15.3437 17 15.3424 17 15.341C17 15.3397 17 15.3384 17 15.3371C17 15.3357 17 15.3344 17 15.3331C17 15.3318 17 15.3304 17 15.3291C17 15.3277 17 15.3264 17 15.3251C17 15.3237 17 15.3224 17 15.321C17 15.3196 17 15.3183 17 15.3169C17 15.3156 17 15.3142 17 15.3128C17 15.3115 17 15.3101 17 15.3087C17 15.3074 17 15.306 17 15.3046C17 15.3032 17 15.3018 17 15.3005C17 15.2991 17 15.2977 17 15.2963C17 15.2949 17 15.2935 17 15.2921C17 15.2907 17 15.2893 17 15.2879C17 15.2865 17 15.2851 17 15.2837C17 15.2823 17 15.2808 17 15.2794C17 15.278 17 15.2766 17 15.2751C17 15.2737 17 15.2723 17 15.2709C17 15.2694 17 15.268 17 15.2666C17 15.2651 17 15.2637 17 15.2622C17 15.2608 17 15.2593 17 15.2579C17 15.2564 17 15.255 17 15.2535C17 15.2521 17 15.2506 17 15.2491C17 15.2477 17 15.2462 17 15.2447C17 15.2433 17 15.2418 17 15.2403C17 15.2388 17 15.2374 17 15.2359C17 15.2344 17 15.2329 17 15.2314C17 15.2299 17 15.2284 17 15.2269C17 15.2254 17 15.2239 17 15.2224C17 15.2209 17 15.2194 17 15.2179C17 15.2164 17 15.2149 17 15.2134C17 15.2119 17 15.2104 17 15.2088C17 15.2073 17 15.2058 17 15.2043C17 15.2027 17 15.2012 17 15.1997C17 15.1981 17 15.1966 17 15.1951C17 15.1935 17 15.192 17 15.1904C17 15.1889 17 15.1874 17 15.1858C17 15.1843 17 15.1827 17 15.1811C17 15.1796 17 15.178 17 15.1765C17 15.1749 17 15.1733 17 15.1718C17 15.1702 17 15.1686 17 15.167C17 15.1655 17 15.1639 17 15.1623C17 15.1607 17 15.1592 17 15.1576C17 15.156 17 15.1544 17 15.1528C17 15.1512 17 15.1496 17 15.148C17 15.1464 17 15.1448 17 15.1432C17 15.1416 17 15.14 17 15.1384C17 15.1368 17 15.1352 17 15.1335C17 15.1319 17 15.1303 17 15.1287C17 15.1271 17 15.1254 17 15.1238C17 15.1222 17 15.1206 17 15.1189C17 15.1173 17 15.1157 17 15.114C17 15.1124 17 15.1107 17 15.1091C17 15.1075 17 15.1058 17 15.1042C17 15.1025 17 15.1009 17 15.0992C17 15.0975 17 15.0959 17 15.0942C17 15.0926 17 15.0909 17 15.0892C17 15.0876 17 15.0859 17 15.0842C17 15.0826 17 15.0809 17 15.0792C17 15.0775 17 15.0759 17 15.0742C17 15.0725 17 15.0708 17 15.0691C17 15.0674 17 15.0657 17 15.064C17 15.0623 17 15.0606 17 15.0589C17 15.0573 17 15.0555 17 15.0538C17 15.0521 17 15.0504 17 15.0487C17 15.047 17 15.0453 17 15.0436C17 15.0419 17 15.0402 17 15.0384C17 15.0367 17 15.035 17 15.0333C17 15.0315 17 15.0298 17 15.0281C17 15.0263 17 15.0246 17 15.0229C17 15.0211 17 15.0194 17 15.0177C17 15.0159 17 15.0142 17 15.0124C17 15.0107 17 15.0089 17 15.0072C17 15.0054 17 15.0037 17 15.0019C17 15.0002 17 14.9984 17 14.9966C17 14.9949 17 14.9931 17 14.9913C17 14.9896 17 14.9878 17 14.986C17 14.9843 17 14.9825 17 14.9807C17 14.9789 17 14.9772 17 14.9754C17 14.9736 17 14.9718 17 14.97C17 14.9682 17 14.9664 17 14.9647C17 14.9629 17 14.9611 17 14.9593C17 14.9575 17 14.9557 17 14.9539C17 14.9521 17 14.9503 17 14.9485C17 14.9466 17 14.9448 17 14.943C17 14.9412 17 14.9394 17 14.9376C17 14.9358 17 14.9339 17 14.9321C17 14.9303 17 14.9285 17 14.9267C17 14.9248 17 14.923 17 14.9212C17 14.9193 17 14.9175 17 14.9157C17 14.9138 17 14.912 17 14.9102C17 14.9083 17 14.9065 17 14.9046C17 14.9028 17 14.9009 17 14.8991C17 14.8972 17 14.8954 17 14.8935C17 14.8917 17 14.8898 17 14.888C17 14.8861 17 14.8842 17 14.8824C17 14.8805 17 14.8786 17 14.8768C17 14.8749 17 14.873 17 14.8712C17 14.8693 17 14.8674 17 14.8655C17 14.8637 17 14.8618 17 14.8599C17 14.858 17 14.8561 17 14.8542C17 14.8524 17 14.8505 17 14.8486C17 14.8467 17 14.8448 17 14.8429C17 14.841 17 14.8391 17 14.8372C17 14.8353 17 14.8334 17 14.8315C17 14.8296 17 14.8277 17 14.8258C17 14.8239 17 14.822 17 14.8201C17 14.8181 17 14.8162 17 14.8143C17 14.8124 17 14.8105 17 14.8086C17 14.8066 17 14.8047 17 14.8028C17 14.8009 17 14.7989 17 14.797C17 14.7951 17 14.7931 17 14.7912C17 14.7893 17 14.7873 17 14.7854C17 14.7835 17 14.7815 17 14.7796C17 14.7776 17 14.7757 17 14.7737C17 14.7718 17 14.7698 17 14.7679C17 14.7659 17 14.764 17 14.762C17 14.7601 17 14.7581 17 14.7562C17 14.7542 17 14.7522 17 14.7503C17 14.7483 17 14.7464 17 14.7444C17 14.7424 17 14.7405 17 14.7385C17 14.7365 17 14.7345 17 14.7326C17 14.7306 17 14.7286 17 14.7266C17 14.7247 17 14.7227 17 14.7207C17 14.7187 17 14.7167 17 14.7147C17 14.7127 17 14.7108 17 14.7088C17 14.7068 17 14.7048 17 14.7028C17 14.7008 17 14.6988 17 14.6968C17 14.6948 17 14.6928 17 14.6908C17 14.6888 17 14.6868 17 14.6848C17 14.6828 17 14.6808 17 14.6788C17 14.6768 17 14.6747 17 14.6727C17 14.6707 17 14.6687 17 14.6667C17 14.6647 17 14.6627 17 14.6606C17 14.6586 17 14.6566 17 14.6546C17 14.6525 17 14.6505 17 14.6485C17 14.6465 17 14.6444 17 14.6424C17 14.6404 17 14.6383 17 14.6363C17 14.6343 17 14.6322 17 14.6302C17 14.6281 17 14.6261 17 14.6241C17 14.622 17 14.62 17 14.6179C17 14.6159 17 14.6138 17 14.6118C17 14.6097 17 14.6077 17 14.6056C17 14.6036 17 14.6015 17 14.5995C17 14.5974 17 14.5954 17 14.5933C17 14.5912 17 14.5892 17 14.5871C17 14.585 17 14.583 17 14.5809C17 14.5788 17 14.5768 17 14.5747C17 14.5726 17 14.5706 17 14.5685C17 14.5664 17 14.5643 17 14.5623C17 14.5602 17 14.5581 17 14.556C17 14.554 17 14.5519 17 14.5498C17 14.5477 17 14.5456 17 14.5435C17 14.5415 17 14.5394 17 14.5373C17 14.5352 17 14.5331 17 14.531C17 14.5289 17 14.5268 17 14.5247C17 14.5226 17 14.5205 17 14.5184C17 14.5163 17 14.5142 17 14.5121C17 14.51 17 14.5079 17 14.5058C17 14.5037 17 14.5016 17 14.4995C17 14.4974 17 14.4953 17 14.4932C17 14.4911 17 14.4889 17 14.4868C17 14.4847 17 14.4826 17 14.4805C17 14.4784 17 14.4762 17 14.4741C17 14.472 17 14.4699 17 14.4678C17 14.4656 17 14.4635 17 14.4614C17 14.4593 17 14.4571 17 14.455C17 14.4529 17 14.4507 17 14.4486C17 14.4465 17 14.4444 17 14.4422C17 14.4401 17 14.4379 17 14.4358C17 14.4337 17 14.4315 17 14.4294C17 14.4273 17 14.4251 17 14.423C17 14.4208 17 14.4187 17 14.4165C17 14.4144 17 14.4122 17 14.4101C17 14.4079 17 14.4058 17 14.4036C17 14.4015 17 14.3993 17 14.3972C17 14.395 17 14.3929 17 14.3907C17 14.3886 17 14.3864 17 14.3842C17 14.3821 17 14.3799 17 14.3778C17 14.3756 17 14.3734 17 14.3713C17 14.3691 17 14.3669 17 14.3648C17 14.3626 17 14.3604 17 14.3583C17 14.3561 17 14.3539 17 14.3518C17 14.3496 17 14.3474 17 14.3452C17 14.3431 17 14.3409 17 14.3387C17 14.3365 17 14.3344 17 14.3322C17 14.33 17 14.3278 17 14.3256C17 14.3235 17 14.3213 17 14.3191C17 14.3169 17 14.3147 17 14.3125C17 14.3104 17 14.3082 17 14.306C17 14.3038 17 14.3016 17 14.2994C17 14.2972 17 14.295 17 14.2928C17 14.2906 17 14.2884 17 14.2862C17 14.2841 17 14.2819 17 14.2797C17 14.2775 17 14.2753 17 14.2731C17 14.2709 17 14.2687 17 14.2665C17 14.2643 17 14.2621 17 14.2598C17 14.2576 17 14.2554 17 14.2532C17 14.251 17 14.2488 17 14.2466C17 14.2444 17 14.2422 17 14.24C17 14.2378 17 14.2356 17 14.2333C17 14.2311 17 14.2289 17 14.2267C17 14.2245 17 14.2223 17 14.2201C17 14.2178 17 14.2156 17 14.2134C17 14.2112 17 14.209 17 14.2067C17 14.2045 17 14.2023 17 14.2001C17 14.1979 17 14.1956 17 14.1934C17 14.1912 17 14.189 17 14.1867C17 14.1845 17 14.1823 17 14.18C17 14.1778 17 14.1756 17 14.1734C17 14.1711 17 14.1689 17 14.1667C17 14.1644 17 14.1622 17 14.16C17 14.1577 17 14.1555 17 14.1533C17 14.151 17 14.1488 17 14.1466C17 14.1443 17 14.1421 17 14.1398C17 14.1376 17 14.1354 17 14.1331C17 14.1309 17 14.1286 17 14.1264C17 14.1242 17 14.1219 17 14.1197C17 14.1174 17 14.1152 17 14.1129C17 14.1107 17 14.1084 17 14.1062C17 14.1039 17 14.1017 17 14.0994C17 14.0972 17 14.0949 17 14.0927C17 14.0904 17 14.0882 17 14.0859C17 14.0837 17 14.0814 17 14.0792C17 14.0769 17 14.0747 17 14.0724C17 14.0702 17 14.0679 17 14.0656C17 14.0634 17 14.0611 17 14.0589C17 14.0566 17 14.0544 17 14.0521C17 14.0498 17 14.0476 17 14.0453C17 14.0431 17 14.0408 17 14.0385C17 14.0363 17 14.034 17 14.0317C17 14.0295 17 14.0272 17 14.025C17 14.0227 17 14.0204 17 14.0182C17 14.0159 17 14.0136 17 14.0114C17 14.0091 17 14.0068 17 14.0045C17 14.0023 17 14 17 13.9977C17 13.9955 17 13.9932 17 13.9909C17 13.9887 17 13.9864 17 13.9841C17 13.9818 17 13.9796 17 13.9773C17 13.975 17 13.9727 17 13.9705C17 13.9682 17 13.9659 17 13.9636C17 13.9614 17 13.9591 17 13.9568C17 13.9545 17 13.9523 17 13.95C17 13.9477 17 13.9454 17 13.9432C17 13.9409 17 13.9386 17 13.9363C17 13.934 17 13.9318 17 13.9295C17 13.9272 17 13.9249 17 13.9226C17 13.9203 17 13.9181 17 13.9158C17 13.9135 17 13.9112 17 13.9089C17 13.9066 17 13.9044 17 13.9021C17 13.8998 17 13.8975 17 13.8952C17 13.8929 17 13.8907 17 13.8884C17 13.8861 17 13.8838 17 13.8815C17 13.8792 17 13.8769 17 13.8746C17 13.8724 17 13.8701 17 13.8678C17 13.8655 17 13.8632 17 13.8609C17 13.8586 17 13.8563 17 13.854C17 13.8517 17 13.8495 17 13.8472C17 13.8449 17 13.8426 17 13.8403C17 13.838 17 13.8357 17 13.8334C17 13.8311 17 13.8288 17 13.8265C17 13.8242 17 13.822 17 13.8197C17 13.8174 17 13.8151 17 13.8128C17 13.8105 17 13.8082 17 13.8059C17 13.8036 17 13.8013 17 13.799C17 13.7967 17 13.7944 17 13.7921C17 13.7898 17 13.7875 17 13.7852C17 13.7829 17 13.7806 17 13.7784C17 13.7761 17 13.7738 17 13.7715C17 13.7692 17 13.7669 17 13.7646C17 13.7623 17 13.76 17 13.7577C17 13.7554 17 13.7531 17 13.7508C17 13.7485 17 13.7462 17 13.7439C17 13.7416 17 13.7393 17 13.737C17 13.7347 17 13.7324 17 13.7301C17 13.7278 17 13.7255 17 13.7232C17 13.7209 17 13.7186 17 13.7163C17 13.714 17 13.7117 17 13.7094C17 13.7071 17 13.7048 17 13.7025C17 13.7002 17 13.6979 17 13.6956C17 13.6933 17 13.691 17 13.6887C17 13.6864 17 13.6841 17 13.6818C17 13.6795 17 13.6772 17 13.6749C17 13.6726 17 13.6703 17 13.668C17 13.6657 17 13.6634 17 13.6611C17 13.6588 17 13.6565 17 13.6542C17 13.6519 17 13.6496 17 13.6473C17 13.645 17 13.6427 17 13.6404C17 13.6381 17 13.6358 17 13.6335C17 13.6312 17 13.6289 17 13.6266C17 13.6243 17 13.622 17 13.6197C17 13.6174 17 13.6151 17 13.6128C17 13.6105 17 13.6082 17 13.6059C17 13.6036 17 13.6013 17 13.599C17 13.5967 17 13.5944 17 13.5921C17 13.5898 17 13.5875 17 13.5852C17 13.5829 17 13.5806 17 13.5783C17 13.576 17 13.5737 17 13.5714C17 13.5691 17 13.5668 17 13.5645C17 13.5622 17 13.5599 17 13.5576C17 13.5553 17 13.553 17 13.5507C17 13.5484 17 13.5461 17 13.5438C17 13.5415 17 13.5392 17 13.5369C17 13.5346 17 13.5323 17 13.53C17 13.5277 17 13.5254 17 13.5231C17 13.5208 17 13.5186 17 13.5163C17 13.514 17 13.5117 17 13.5094C17 13.5071 17 13.5048 17 13.5025C17 13.5002 17 13.4979 17 13.4956C17 13.4933 17 13.491 17 13.4887C17 13.4864 17 13.4841 17 13.4818C17 13.4795 17 13.4773 17 13.475C17 13.4727 17 13.4704 17 13.4681C17 13.4658 17 13.4635 17 13.4612C17 13.4589 17 13.4566 17 13.4543C17 13.452 17 13.4498 17 13.4475C17 13.4452 17 13.4429 17 13.4406C17 13.4383 17 13.436 17 13.4337C17 13.4314 17 13.4292 17 13.4269C17 13.4246 17 13.4223 17 13.42C17 13.4177 17 13.4154 17 13.4131C17 13.4109 17 13.4086 17 13.4063C17 13.404 17 13.4017 17 13.3994C17 13.3972 17 13.3949 17 13.3926C17 13.3903 17 13.388 17 13.3857C17 13.3835 17 13.3812 17 13.3789C17 13.3766 17 13.3743 17 13.372C17 13.3698 17 13.3675 17 13.3652C17 13.3629 17 13.3606 17 13.3584C17 13.3561 17 13.3538 17 13.3515C17 13.3493 17 13.347 17 13.3447C17 13.3424 17 13.3402 17 13.3379C17 13.3356 17 13.3333 17 13.3311C17 13.3288 17 13.3265 17 13.3242C17 13.322 17 13.3197 17 13.3174C17 13.3151 17 13.3129 17 13.3106C17 13.3083 17 13.3061 17 13.3038C17 13.3015 17 13.2992 17 13.297C17 13.2947 17 13.2924 17 13.2902C17 13.2879 17 13.2856 17 13.2834C17 13.2811 17 13.2788 17 13.2766C17 13.2743 17 13.2721 17 13.2698C17 13.2675 17 13.2653 17 13.263C17 13.2607 17 13.2585 17 13.2562C17 13.254 17 13.2517 17 13.2494C17 13.2472 17 13.2449 17 13.2427C17 13.2404 17 13.2382 17 13.2359C17 13.2336 17 13.2314 17 13.2291C17 13.2269 17 13.2246 17 13.2224C17 13.2201 17 13.2179 17 13.2156C17 13.2134 17 13.2111 17 13.2089C17 13.2066 17 13.2044 17 13.2021C17 13.1999 17 13.1976 17 13.1954C17 13.1931 17 13.1909 17 13.1886C17 13.1864 17 13.1841 17 13.1819C17 13.1797 17 13.1774 17 13.1752C17 13.1729 17 13.1707 17 13.1684C17 13.1662 17 13.164 17 13.1617C17 13.1595 17 13.1573 17 13.155C17 13.1528 17 13.1505 17 13.1483C17 13.1461 17 13.1438 17 13.1416C17 13.1394 17 13.1371 17 13.1349C17 13.1327 17 13.1304 17 13.1282C17 13.126 17 13.1238 17 13.1215C17 13.1193 17 13.1171 17 13.1149C17 13.1126 17 13.1104 17 13.1082C17 13.106 17 13.1037 17 13.1015C17 13.0993 17 13.0971 17 13.0948C17 13.0926 17 13.0904 17 13.0882C17 13.086 17 13.0838 17 13.0815C17 13.0793 17 13.0771 17 13.0749C17 13.0727 17 13.0705 17 13.0683C17 13.066 17 13.0638 17 13.0616C17 13.0594 17 13.0572 17 13.055C17 13.0528 17 13.0506 17 13.0484C17 13.0462 17 13.044 17 13.0418C17 13.0396 17 13.0374 17 13.0352C17 13.033 17 13.0308 17 13.0286C17 13.0264 17 13.0242 17 13.022C17 13.0198 17 13.0176 17 13.0154C17 13.0132 17 13.011 17 13.0088C17 13.0066 17 13.0044 17 13.0022C17 13 17 12.9978 17 12.9957C17 12.9935 17 12.9913 17 12.9891C17 12.9869 17 12.9847 17 12.9825C17 12.9804 17 12.9782 17 12.976C17 12.9738 17 12.9716 17 12.9695C17 12.9673 17 12.9651 17 12.9629C17 12.9607 17 12.9586 17 12.9564C17 12.9542 17 12.9521 17 12.9499C17 12.9477 17 12.9455 17 12.9434C17 12.9412 17 12.939 17 12.9369C17 12.9347 17 12.9325 17 12.9304C17 12.9282 17 12.9261 17 12.9239C17 12.9217 17 12.9196 17 12.9174C17 12.9153 17 12.9131 17 12.9109C17 12.9088 17 12.9066 17 12.9045C17 12.9023 17 12.9002 17 12.898C17 12.8959 17 12.8937 17 12.8916C17 12.8894 17 12.8873 17 12.8851C17 12.883 17 12.8809 17 12.8787C17 12.8766 17 12.8744 17 12.8723C17 12.8702 17 12.868 17 12.8659C17 12.8637 17 12.8616 17 12.8595C17 12.8573 17 12.8552 17 12.8531C17 12.851 17 12.8488 17 12.8467C17 12.8446 17 12.8424 17 12.8403C17 12.8382 17 12.8361 17 12.8339C17 12.8318 17 12.8297 17 12.8276C17 12.8255 17 12.8234 17 12.8212C17 12.8191 17 12.817 17 12.8149C17 12.8128 17 12.8107 17 12.8086C17 12.8064 17 12.8043 17 12.8022C17 12.8001 17 12.798 17 12.7959C17 12.7938 17 12.7917 17 12.7896C17 12.7875 17 12.7854 17 12.7833C17 12.7812 17 12.7791 17 12.777C17 12.7749 17 12.7728 17 12.7707C17 12.7687 17 12.7666 17 12.7645C17 12.7624 17 12.7603 17 12.7582C17 12.7561 17 12.754 17 12.752C17 12.7499 17 12.7478 17 12.7457C17 12.7436 17 12.7416 17 12.7395C17 12.7374 17 12.7353 17 12.7333C17 12.7312 17 12.7291 17 12.7271C17 12.725 17 12.7229 17 12.7209C17 12.7188 17 12.7167 17 12.7147C17 12.7126 17 12.7106 17 12.7085C17 12.7064 17 12.7044 17 12.7023C17 12.7003 17 12.6982 17 12.6962C17 12.6941 17 12.6921 17 12.69C17 12.688 17 12.6859 17 12.6839C17 12.6818 17 12.6798 17 12.6778C17 12.6757 17 12.6737 17 12.6716C17 12.6696 17 12.6676 17 12.6655C17 12.6635 17 12.6615 17 12.6594C17 12.6574 17 12.6554 17 12.6533C17 12.6513 17 12.6493 17 12.6473C17 12.6452 17 12.6432 17 12.6412C17 12.6392 17 12.6372 17 12.6352C17 12.6331 17 12.6311 17 12.6291C17 12.6271 17 12.6251 17 12.6231C17 12.6211 17 12.6191 17 12.6171C17 12.6151 17 12.6131 17 12.6111C17 12.6091 17 12.6071 17 12.6051C17 12.6031 17 12.6011 17 12.5991C17 12.5971 17 12.5951 17 12.5931C17 12.5911 17 12.5891 17 12.5871C17 12.5852 17 12.5832 17 12.5812C17 12.5792 17 12.5772 17 12.5753C17 12.5733 17 12.5713 17 12.5693C17 12.5674 17 12.5654 17 12.5634C17 12.5614 17 12.5595 17 12.5575C17 12.5556 17 12.5536 17 12.5516C17 12.5497 17 12.5477 17 12.5457C17 12.5438 17 12.5418 17 12.5399C17 12.5379 17 12.536 17 12.534C17 12.5321 17 12.5301 17 12.5282C17 12.5262 17 12.5243 17 12.5224C17 12.5204 17 12.5185 17 12.5165C17 12.5146 17 12.5127 17 12.5107C17 12.5088 17 12.5069 17 12.505C17 12.503 17 12.5011 17 12.4992C17 12.4973 17 12.4953 17 12.4934C17 12.4915 17 12.4896 17 12.4877C17 12.4857 17 12.4838 17 12.4819C17 12.48 17 12.4781 17 12.4762H16C16 12.4781 16 12.48 16 12.4819C16 12.4838 16 12.4857 16 12.4877C16 12.4896 16 12.4915 16 12.4934C16 12.4953 16 12.4973 16 12.4992C16 12.5011 16 12.503 16 12.505C16 12.5069 16 12.5088 16 12.5107C16 12.5127 16 12.5146 16 12.5165C16 12.5185 16 12.5204 16 12.5224C16 12.5243 16 12.5262 16 12.5282C16 12.5301 16 12.5321 16 12.534C16 12.536 16 12.5379 16 12.5399C16 12.5418 16 12.5438 16 12.5457C16 12.5477 16 12.5497 16 12.5516C16 12.5536 16 12.5556 16 12.5575C16 12.5595 16 12.5614 16 12.5634C16 12.5654 16 12.5674 16 12.5693C16 12.5713 16 12.5733 16 12.5753C16 12.5772 16 12.5792 16 12.5812C16 12.5832 16 12.5852 16 12.5871C16 12.5891 16 12.5911 16 12.5931C16 12.5951 16 12.5971 16 12.5991C16 12.6011 16 12.6031 16 12.6051C16 12.6071 16 12.6091 16 12.6111C16 12.6131 16 12.6151 16 12.6171C16 12.6191 16 12.6211 16 12.6231C16 12.6251 16 12.6271 16 12.6291C16 12.6311 16 12.6331 16 12.6352C16 12.6372 16 12.6392 16 12.6412C16 12.6432 16 12.6452 16 12.6473C16 12.6493 16 12.6513 16 12.6533C16 12.6554 16 12.6574 16 12.6594C16 12.6615 16 12.6635 16 12.6655C16 12.6676 16 12.6696 16 12.6716C16 12.6737 16 12.6757 16 12.6778C16 12.6798 16 12.6818 16 12.6839C16 12.6859 16 12.688 16 12.69C16 12.6921 16 12.6941 16 12.6962C16 12.6982 16 12.7003 16 12.7023C16 12.7044 16 12.7064 16 12.7085C16 12.7106 16 12.7126 16 12.7147C16 12.7167 16 12.7188 16 12.7209C16 12.7229 16 12.725 16 12.7271C16 12.7291 16 12.7312 16 12.7333C16 12.7353 16 12.7374 16 12.7395C16 12.7416 16 12.7436 16 12.7457C16 12.7478 16 12.7499 16 12.752C16 12.754 16 12.7561 16 12.7582C16 12.7603 16 12.7624 16 12.7645C16 12.7666 16 12.7687 16 12.7707C16 12.7728 16 12.7749 16 12.777C16 12.7791 16 12.7812 16 12.7833C16 12.7854 16 12.7875 16 12.7896C16 12.7917 16 12.7938 16 12.7959C16 12.798 16 12.8001 16 12.8022C16 12.8043 16 12.8064 16 12.8086C16 12.8107 16 12.8128 16 12.8149C16 12.817 16 12.8191 16 12.8212C16 12.8234 16 12.8255 16 12.8276C16 12.8297 16 12.8318 16 12.8339C16 12.8361 16 12.8382 16 12.8403C16 12.8424 16 12.8446 16 12.8467C16 12.8488 16 12.851 16 12.8531C16 12.8552 16 12.8573 16 12.8595C16 12.8616 16 12.8637 16 12.8659C16 12.868 16 12.8702 16 12.8723C16 12.8744 16 12.8766 16 12.8787C16 12.8809 16 12.883 16 12.8851C16 12.8873 16 12.8894 16 12.8916C16 12.8937 16 12.8959 16 12.898C16 12.9002 16 12.9023 16 12.9045C16 12.9066 16 12.9088 16 12.9109C16 12.9131 16 12.9153 16 12.9174C16 12.9196 16 12.9217 16 12.9239C16 12.9261 16 12.9282 16 12.9304C16 12.9325 16 12.9347 16 12.9369C16 12.939 16 12.9412 16 12.9434C16 12.9455 16 12.9477 16 12.9499C16 12.9521 16 12.9542 16 12.9564C16 12.9586 16 12.9607 16 12.9629C16 12.9651 16 12.9673 16 12.9695C16 12.9716 16 12.9738 16 12.976C16 12.9782 16 12.9804 16 12.9825C16 12.9847 16 12.9869 16 12.9891C16 12.9913 16 12.9935 16 12.9957C16 12.9978 16 13 16 13.0022C16 13.0044 16 13.0066 16 13.0088C16 13.011 16 13.0132 16 13.0154C16 13.0176 16 13.0198 16 13.022C16 13.0242 16 13.0264 16 13.0286C16 13.0308 16 13.033 16 13.0352C16 13.0374 16 13.0396 16 13.0418C16 13.044 16 13.0462 16 13.0484C16 13.0506 16 13.0528 16 13.055C16 13.0572 16 13.0594 16 13.0616C16 13.0638 16 13.066 16 13.0683C16 13.0705 16 13.0727 16 13.0749C16 13.0771 16 13.0793 16 13.0815C16 13.0838 16 13.086 16 13.0882C16 13.0904 16 13.0926 16 13.0948C16 13.0971 16 13.0993 16 13.1015C16 13.1037 16 13.106 16 13.1082C16 13.1104 16 13.1126 16 13.1149C16 13.1171 16 13.1193 16 13.1215C16 13.1238 16 13.126 16 13.1282C16 13.1304 16 13.1327 16 13.1349C16 13.1371 16 13.1394 16 13.1416C16 13.1438 16 13.1461 16 13.1483C16 13.1505 16 13.1528 16 13.155C16 13.1573 16 13.1595 16 13.1617C16 13.164 16 13.1662 16 13.1684C16 13.1707 16 13.1729 16 13.1752C16 13.1774 16 13.1797 16 13.1819C16 13.1841 16 13.1864 16 13.1886C16 13.1909 16 13.1931 16 13.1954C16 13.1976 16 13.1999 16 13.2021C16 13.2044 16 13.2066 16 13.2089C16 13.2111 16 13.2134 16 13.2156C16 13.2179 16 13.2201 16 13.2224C16 13.2246 16 13.2269 16 13.2291C16 13.2314 16 13.2336 16 13.2359C16 13.2382 16 13.2404 16 13.2427C16 13.2449 16 13.2472 16 13.2494C16 13.2517 16 13.254 16 13.2562C16 13.2585 16 13.2607 16 13.263C16 13.2653 16 13.2675 16 13.2698C16 13.2721 16 13.2743 16 13.2766C16 13.2788 16 13.2811 16 13.2834C16 13.2856 16 13.2879 16 13.2902C16 13.2924 16 13.2947 16 13.297C16 13.2992 16 13.3015 16 13.3038C16 13.3061 16 13.3083 16 13.3106C16 13.3129 16 13.3151 16 13.3174C16 13.3197 16 13.322 16 13.3242C16 13.3265 16 13.3288 16 13.3311C16 13.3333 16 13.3356 16 13.3379C16 13.3402 16 13.3424 16 13.3447C16 13.347 16 13.3493 16 13.3515C16 13.3538 16 13.3561 16 13.3584C16 13.3606 16 13.3629 16 13.3652C16 13.3675 16 13.3698 16 13.372C16 13.3743 16 13.3766 16 13.3789C16 13.3812 16 13.3835 16 13.3857C16 13.388 16 13.3903 16 13.3926C16 13.3949 16 13.3972 16 13.3994C16 13.4017 16 13.404 16 13.4063C16 13.4086 16 13.4109 16 13.4131C16 13.4154 16 13.4177 16 13.42C16 13.4223 16 13.4246 16 13.4269C16 13.4292 16 13.4314 16 13.4337C16 13.436 16 13.4383 16 13.4406C16 13.4429 16 13.4452 16 13.4475C16 13.4498 16 13.452 16 13.4543C16 13.4566 16 13.4589 16 13.4612C16 13.4635 16 13.4658 16 13.4681C16 13.4704 16 13.4727 16 13.475C16 13.4773 16 13.4795 16 13.4818C16 13.4841 16 13.4864 16 13.4887C16 13.491 16 13.4933 16 13.4956C16 13.4979 16 13.5002 16 13.5025C16 13.5048 16 13.5071 16 13.5094C16 13.5117 16 13.514 16 13.5163C16 13.5186 16 13.5208 16 13.5231C16 13.5254 16 13.5277 16 13.53C16 13.5323 16 13.5346 16 13.5369C16 13.5392 16 13.5415 16 13.5438C16 13.5461 16 13.5484 16 13.5507C16 13.553 16 13.5553 16 13.5576C16 13.5599 16 13.5622 16 13.5645C16 13.5668 16 13.5691 16 13.5714C16 13.5737 16 13.576 16 13.5783C16 13.5806 16 13.5829 16 13.5852C16 13.5875 16 13.5898 16 13.5921C16 13.5944 16 13.5967 16 13.599C16 13.6013 16 13.6036 16 13.6059C16 13.6082 16 13.6105 16 13.6128C16 13.6151 16 13.6174 16 13.6197C16 13.622 16 13.6243 16 13.6266C16 13.6289 16 13.6312 16 13.6335C16 13.6358 16 13.6381 16 13.6404C16 13.6427 16 13.645 16 13.6473C16 13.6496 16 13.6519 16 13.6542C16 13.6565 16 13.6588 16 13.6611C16 13.6634 16 13.6657 16 13.668C16 13.6703 16 13.6726 16 13.6749C16 13.6772 16 13.6795 16 13.6818C16 13.6841 16 13.6864 16 13.6887C16 13.691 16 13.6933 16 13.6956C16 13.6979 16 13.7002 16 13.7025C16 13.7048 16 13.7071 16 13.7094C16 13.7117 16 13.714 16 13.7163C16 13.7186 16 13.7209 16 13.7232C16 13.7255 16 13.7278 16 13.7301C16 13.7324 16 13.7347 16 13.737C16 13.7393 16 13.7416 16 13.7439C16 13.7462 16 13.7485 16 13.7508C16 13.7531 16 13.7554 16 13.7577C16 13.76 16 13.7623 16 13.7646C16 13.7669 16 13.7692 16 13.7715C16 13.7738 16 13.7761 16 13.7784C16 13.7806 16 13.7829 16 13.7852C16 13.7875 16 13.7898 16 13.7921C16 13.7944 16 13.7967 16 13.799C16 13.8013 16 13.8036 16 13.8059C16 13.8082 16 13.8105 16 13.8128C16 13.8151 16 13.8174 16 13.8197C16 13.822 16 13.8242 16 13.8265C16 13.8288 16 13.8311 16 13.8334C16 13.8357 16 13.838 16 13.8403C16 13.8426 16 13.8449 16 13.8472C16 13.8495 16 13.8517 16 13.854C16 13.8563 16 13.8586 16 13.8609C16 13.8632 16 13.8655 16 13.8678C16 13.8701 16 13.8724 16 13.8746C16 13.8769 16 13.8792 16 13.8815C16 13.8838 16 13.8861 16 13.8884C16 13.8907 16 13.8929 16 13.8952C16 13.8975 16 13.8998 16 13.9021C16 13.9044 16 13.9066 16 13.9089C16 13.9112 16 13.9135 16 13.9158C16 13.9181 16 13.9203 16 13.9226C16 13.9249 16 13.9272 16 13.9295C16 13.9318 16 13.934 16 13.9363C16 13.9386 16 13.9409 16 13.9432C16 13.9454 16 13.9477 16 13.95C16 13.9523 16 13.9545 16 13.9568C16 13.9591 16 13.9614 16 13.9636C16 13.9659 16 13.9682 16 13.9705C16 13.9727 16 13.975 16 13.9773C16 13.9796 16 13.9818 16 13.9841C16 13.9864 16 13.9887 16 13.9909C16 13.9932 16 13.9955 16 13.9977C16 14 16 14.0023 16 14.0045C16 14.0068 16 14.0091 16 14.0114C16 14.0136 16 14.0159 16 14.0182C16 14.0204 16 14.0227 16 14.025C16 14.0272 16 14.0295 16 14.0317C16 14.034 16 14.0363 16 14.0385C16 14.0408 16 14.0431 16 14.0453C16 14.0476 16 14.0498 16 14.0521C16 14.0544 16 14.0566 16 14.0589C16 14.0611 16 14.0634 16 14.0656C16 14.0679 16 14.0702 16 14.0724C16 14.0747 16 14.0769 16 14.0792C16 14.0814 16 14.0837 16 14.0859C16 14.0882 16 14.0904 16 14.0927C16 14.0949 16 14.0972 16 14.0994C16 14.1017 16 14.1039 16 14.1062C16 14.1084 16 14.1107 16 14.1129C16 14.1152 16 14.1174 16 14.1197C16 14.1219 16 14.1242 16 14.1264C16 14.1286 16 14.1309 16 14.1331C16 14.1354 16 14.1376 16 14.1398C16 14.1421 16 14.1443 16 14.1466C16 14.1488 16 14.151 16 14.1533C16 14.1555 16 14.1577 16 14.16C16 14.1622 16 14.1644 16 14.1667C16 14.1689 16 14.1711 16 14.1734C16 14.1756 16 14.1778 16 14.18C16 14.1823 16 14.1845 16 14.1867C16 14.189 16 14.1912 16 14.1934C16 14.1956 16 14.1979 16 14.2001C16 14.2023 16 14.2045 16 14.2067C16 14.209 16 14.2112 16 14.2134C16 14.2156 16 14.2178 16 14.2201C16 14.2223 16 14.2245 16 14.2267C16 14.2289 16 14.2311 16 14.2333C16 14.2356 16 14.2378 16 14.24C16 14.2422 16 14.2444 16 14.2466C16 14.2488 16 14.251 16 14.2532C16 14.2554 16 14.2576 16 14.2598C16 14.2621 16 14.2643 16 14.2665C16 14.2687 16 14.2709 16 14.2731C16 14.2753 16 14.2775 16 14.2797C16 14.2819 16 14.2841 16 14.2862C16 14.2884 16 14.2906 16 14.2928C16 14.295 16 14.2972 16 14.2994C16 14.3016 16 14.3038 16 14.306C16 14.3082 16 14.3104 16 14.3125C16 14.3147 16 14.3169 16 14.3191C16 14.3213 16 14.3235 16 14.3256C16 14.3278 16 14.33 16 14.3322C16 14.3344 16 14.3365 16 14.3387C16 14.3409 16 14.3431 16 14.3452C16 14.3474 16 14.3496 16 14.3518C16 14.3539 16 14.3561 16 14.3583C16 14.3604 16 14.3626 16 14.3648C16 14.3669 16 14.3691 16 14.3713C16 14.3734 16 14.3756 16 14.3778C16 14.3799 16 14.3821 16 14.3842C16 14.3864 16 14.3886 16 14.3907C16 14.3929 16 14.395 16 14.3972C16 14.3993 16 14.4015 16 14.4036C16 14.4058 16 14.4079 16 14.4101C16 14.4122 16 14.4144 16 14.4165C16 14.4187 16 14.4208 16 14.423C16 14.4251 16 14.4273 16 14.4294C16 14.4315 16 14.4337 16 14.4358C16 14.4379 16 14.4401 16 14.4422C16 14.4444 16 14.4465 16 14.4486C16 14.4507 16 14.4529 16 14.455C16 14.4571 16 14.4593 16 14.4614C16 14.4635 16 14.4656 16 14.4678C16 14.4699 16 14.472 16 14.4741C16 14.4762 16 14.4784 16 14.4805C16 14.4826 16 14.4847 16 14.4868C16 14.4889 16 14.4911 16 14.4932C16 14.4953 16 14.4974 16 14.4995C16 14.5016 16 14.5037 16 14.5058C16 14.5079 16 14.51 16 14.5121C16 14.5142 16 14.5163 16 14.5184C16 14.5205 16 14.5226 16 14.5247C16 14.5268 16 14.5289 16 14.531C16 14.5331 16 14.5352 16 14.5373C16 14.5394 16 14.5415 16 14.5435C16 14.5456 16 14.5477 16 14.5498C16 14.5519 16 14.554 16 14.556C16 14.5581 16 14.5602 16 14.5623C16 14.5643 16 14.5664 16 14.5685C16 14.5706 16 14.5726 16 14.5747C16 14.5768 16 14.5788 16 14.5809C16 14.583 16 14.585 16 14.5871C16 14.5892 16 14.5912 16 14.5933C16 14.5954 16 14.5974 16 14.5995C16 14.6015 16 14.6036 16 14.6056C16 14.6077 16 14.6097 16 14.6118C16 14.6138 16 14.6159 16 14.6179C16 14.62 16 14.622 16 14.6241C16 14.6261 16 14.6281 16 14.6302C16 14.6322 16 14.6343 16 14.6363C16 14.6383 16 14.6404 16 14.6424C16 14.6444 16 14.6465 16 14.6485C16 14.6505 16 14.6525 16 14.6546C16 14.6566 16 14.6586 16 14.6606C16 14.6627 16 14.6647 16 14.6667C16 14.6687 16 14.6707 16 14.6727C16 14.6747 16 14.6768 16 14.6788C16 14.6808 16 14.6828 16 14.6848C16 14.6868 16 14.6888 16 14.6908C16 14.6928 16 14.6948 16 14.6968C16 14.6988 16 14.7008 16 14.7028C16 14.7048 16 14.7068 16 14.7088C16 14.7108 16 14.7127 16 14.7147C16 14.7167 16 14.7187 16 14.7207C16 14.7227 16 14.7247 16 14.7266C16 14.7286 16 14.7306 16 14.7326C16 14.7345 16 14.7365 16 14.7385C16 14.7405 16 14.7424 16 14.7444C16 14.7464 16 14.7483 16 14.7503C16 14.7522 16 14.7542 16 14.7562C16 14.7581 16 14.7601 16 14.762C16 14.764 16 14.7659 16 14.7679C16 14.7698 16 14.7718 16 14.7737C16 14.7757 16 14.7776 16 14.7796C16 14.7815 16 14.7835 16 14.7854C16 14.7873 16 14.7893 16 14.7912C16 14.7931 16 14.7951 16 14.797C16 14.7989 16 14.8009 16 14.8028C16 14.8047 16 14.8066 16 14.8086C16 14.8105 16 14.8124 16 14.8143C16 14.8162 16 14.8181 16 14.8201C16 14.822 16 14.8239 16 14.8258C16 14.8277 16 14.8296 16 14.8315C16 14.8334 16 14.8353 16 14.8372C16 14.8391 16 14.841 16 14.8429C16 14.8448 16 14.8467 16 14.8486C16 14.8505 16 14.8524 16 14.8542C16 14.8561 16 14.858 16 14.8599C16 14.8618 16 14.8637 16 14.8655C16 14.8674 16 14.8693 16 14.8712C16 14.873 16 14.8749 16 14.8768C16 14.8786 16 14.8805 16 14.8824C16 14.8842 16 14.8861 16 14.888C16 14.8898 16 14.8917 16 14.8935C16 14.8954 16 14.8972 16 14.8991C16 14.9009 16 14.9028 16 14.9046C16 14.9065 16 14.9083 16 14.9102C16 14.912 16 14.9138 16 14.9157C16 14.9175 16 14.9193 16 14.9212C16 14.923 16 14.9248 16 14.9267C16 14.9285 16 14.9303 16 14.9321C16 14.9339 16 14.9358 16 14.9376C16 14.9394 16 14.9412 16 14.943C16 14.9448 16 14.9466 16 14.9485C16 14.9503 16 14.9521 16 14.9539C16 14.9557 16 14.9575 16 14.9593C16 14.9611 16 14.9629 16 14.9647C16 14.9664 16 14.9682 16 14.97C16 14.9718 16 14.9736 16 14.9754C16 14.9772 16 14.9789 16 14.9807C16 14.9825 16 14.9843 16 14.986C16 14.9878 16 14.9896 16 14.9913C16 14.9931 16 14.9949 16 14.9966C16 14.9984 16 15.0002 16 15.0019C16 15.0037 16 15.0054 16 15.0072C16 15.0089 16 15.0107 16 15.0124C16 15.0142 16 15.0159 16 15.0177C16 15.0194 16 15.0211 16 15.0229C16 15.0246 16 15.0263 16 15.0281C16 15.0298 16 15.0315 16 15.0333C16 15.035 16 15.0367 16 15.0384C16 15.0402 16 15.0419 16 15.0436C16 15.0453 16 15.047 16 15.0487C16 15.0504 16 15.0521 16 15.0538C16 15.0555 16 15.0573 16 15.0589C16 15.0606 16 15.0623 16 15.064C16 15.0657 16 15.0674 16 15.0691C16 15.0708 16 15.0725 16 15.0742C16 15.0759 16 15.0775 16 15.0792C16 15.0809 16 15.0826 16 15.0842C16 15.0859 16 15.0876 16 15.0892C16 15.0909 16 15.0926 16 15.0942C16 15.0959 16 15.0975 16 15.0992C16 15.1009 16 15.1025 16 15.1042C16 15.1058 16 15.1075 16 15.1091C16 15.1107 16 15.1124 16 15.114C16 15.1157 16 15.1173 16 15.1189C16 15.1206 16 15.1222 16 15.1238C16 15.1254 16 15.1271 16 15.1287C16 15.1303 16 15.1319 16 15.1335C16 15.1352 16 15.1368 16 15.1384C16 15.14 16 15.1416 16 15.1432C16 15.1448 16 15.1464 16 15.148C16 15.1496 16 15.1512 16 15.1528C16 15.1544 16 15.156 16 15.1576C16 15.1592 16 15.1607 16 15.1623C16 15.1639 16 15.1655 16 15.167C16 15.1686 16 15.1702 16 15.1718C16 15.1733 16 15.1749 16 15.1765C16 15.178 16 15.1796 16 15.1811C16 15.1827 16 15.1843 16 15.1858C16 15.1874 16 15.1889 16 15.1904C16 15.192 16 15.1935 16 15.1951C16 15.1966 16 15.1981 16 15.1997C16 15.2012 16 15.2027 16 15.2043C16 15.2058 16 15.2073 16 15.2088C16 15.2104 16 15.2119 16 15.2134C16 15.2149 16 15.2164 16 15.2179C16 15.2194 16 15.2209 16 15.2224C16 15.2239 16 15.2254 16 15.2269C16 15.2284 16 15.2299 16 15.2314C16 15.2329 16 15.2344 16 15.2359C16 15.2374 16 15.2388 16 15.2403C16 15.2418 16 15.2433 16 15.2447C16 15.2462 16 15.2477 16 15.2491C16 15.2506 16 15.2521 16 15.2535C16 15.255 16 15.2564 16 15.2579C16 15.2593 16 15.2608 16 15.2622C16 15.2637 16 15.2651 16 15.2666C16 15.268 16 15.2694 16 15.2709C16 15.2723 16 15.2737 16 15.2751C16 15.2766 16 15.278 16 15.2794C16 15.2808 16 15.2823 16 15.2837C16 15.2851 16 15.2865 16 15.2879C16 15.2893 16 15.2907 16 15.2921C16 15.2935 16 15.2949 16 15.2963C16 15.2977 16 15.2991 16 15.3005C16 15.3018 16 15.3032 16 15.3046C16 15.306 16 15.3074 16 15.3087C16 15.3101 16 15.3115 16 15.3128C16 15.3142 16 15.3156 16 15.3169C16 15.3183 16 15.3196 16 15.321C16 15.3224 16 15.3237 16 15.3251C16 15.3264 16 15.3277 16 15.3291C16 15.3304 16 15.3318 16 15.3331C16 15.3344 16 15.3357 16 15.3371C16 15.3384 16 15.3397 16 15.341C16 15.3424 16 15.3437 16 15.345C16 15.3463 16 15.3476 16 15.3489C16 15.3502 16 15.3515 16 15.3528C16 15.3541 16 15.3554 16 15.3567C16 15.358 16 15.3593 16 15.3606C16 15.3618 16 15.3631 16 15.3644C16 15.3657 16 15.367 16 15.3682C16 15.3695 16 15.3708 16 15.372C16 15.3733 16 15.3745 16 15.3758C16 15.3771 16 15.3783 16 15.3796C16 15.3808 16 15.3821 16 15.3833C16 15.3845 16 15.3858 16 15.387C16 15.3882 16 15.3895 16 15.3907C16 15.3919 16 15.3931 16 15.3944C16 15.3956 16 15.3968 16 15.398C16 15.3992 16 15.4004 16 15.4016C16 15.4029 16 15.4041 16 15.4053C16 15.4064 16 15.4076 16 15.4088C16 15.41 16 15.4112 16 15.4124C16 15.4136 16 15.4148 16 15.4159C16 15.4171 16 15.4183 16 15.4195C16 15.4206 16 15.4218 16 15.4229C16 15.4241 16 15.4253 16 15.4264C16 15.4276 16 15.4287 16 15.4299C16 15.431 16 15.4322 16 15.4333C16 15.4344 16 15.4356 16 15.4367C16 15.4378 16 15.439 16 15.4401C16 15.4412 16 15.4423 16 15.4435C16 15.4446 16 15.4457 16 15.4468C16 15.4479 16 15.449 16 15.4501C16 15.4512 16 15.4523 16 15.4534C16 15.4545 16 15.4556 16 15.4567C16 15.4578 16 15.4588 16 15.4599C16 15.461 16 15.4621 16 15.4631C16 15.4642 16 15.4653 16 15.4663C16 15.4674 16 15.4685 16 15.4695C16 15.4706 16 15.4716 16 15.4727C16 15.4737 16 15.4748 16 15.4758C16 15.4768 16 15.4779 16 15.4789C16 15.4799 16 15.481 16 15.482C16 15.483 16 15.484 16 15.4851C16 15.4861 16 15.4871 16 15.4881C16 15.4891 16 15.4901 16 15.4911C16 15.4921 16 15.4931 16 15.4941C16 15.4951 16 15.4961 16 15.4971C16 15.498 16 15.499 16 15.5H17ZM15.6101 6.62127L15.9851 5.12127L15.0149 4.87873L14.6399 6.37873L15.6101 6.62127ZM13.562 3.00386L11.562 2.75386L11.438 3.74614L13.438 3.99614L13.562 3.00386ZM15.4588 6.12772L11.8338 2.87772L11.1662 3.62228L14.7912 6.87228L15.4588 6.12772ZM11.562 2.75386L10.562 2.62886L10.438 3.62114L11.438 3.74614L11.562 2.75386ZM10.562 2.62886L9.56202 2.50386L9.43798 3.49614L10.438 3.62114L10.562 2.62886ZM10.6491 2.64776L8.64914 2.02276L8.35086 2.97724L10.3509 3.60224L10.6491 2.64776ZM8.65811 2.02566L7.15811 1.52566L6.84189 2.47434L8.34189 2.97434L8.65811 2.02566ZM6.52566 1.84189C6.43284 2.12035 6.3219 2.56163 6.28891 2.99997C6.2724 3.21932 6.27382 3.45728 6.3166 3.68241C6.35865 3.90369 6.44909 4.15619 6.64645 4.35355L7.35355 3.64645C7.35091 3.64381 7.32051 3.60881 7.29902 3.49572C7.27826 3.38647 7.27343 3.24318 7.28609 3.07503C7.31143 2.73837 7.4005 2.37965 7.47434 2.15811L6.52566 1.84189ZM6.64645 4.35355C6.73903 4.44613 6.86612 4.54659 7.0312 4.59281C7.22023 4.64574 7.40433 4.61237 7.55412 4.5225C7.68351 4.44486 7.76756 4.33741 7.81776 4.26358C7.87071 4.1857 7.91419 4.10216 7.94721 4.03611C8.0262 3.87814 8.06191 3.79543 8.10999 3.72812C8.15354 3.66715 8.11684 3.75 8 3.75V2.75C7.63316 2.75 7.40896 2.9891 7.29626 3.14688C7.18809 3.29832 7.0988 3.49686 7.05279 3.58889C7.02331 3.64784 7.00429 3.68148 6.99083 3.70127C6.97463 3.72509 6.98836 3.69576 7.03963 3.665C7.1113 3.622 7.20946 3.60426 7.30083 3.62985C7.36826 3.64873 7.38597 3.67887 7.35355 3.64645L6.64645 4.35355ZM8 3.75C8.16075 3.75 8.50214 3.78637 8.89589 3.83929C9.27716 3.89054 9.67185 3.95221 9.9178 3.9932L10.0822 3.0068C9.82815 2.96446 9.42284 2.90113 9.02911 2.84821C8.64786 2.79696 8.23925 2.75 8 2.75V3.75ZM10.4839 9.22768L12.2224 7.97601L11.6381 7.16447L9.89963 8.41615L10.4839 9.22768ZM12.2224 7.97601L15.7922 5.40577L15.2078 4.59423L11.6381 7.16447L12.2224 7.97601ZM11.0178 6.13212C11.0895 6.39383 11.197 6.78639 11.2867 7.11352C11.3315 7.27709 11.3718 7.4243 11.4009 7.53062C11.4155 7.58378 11.4273 7.62671 11.4354 7.65636C11.4395 7.67118 11.4426 7.68268 11.4447 7.69048C11.4458 7.69438 11.4466 7.69735 11.4472 7.69934C11.4474 7.70034 11.4476 7.70109 11.4478 7.7016C11.4479 7.70186 11.4479 7.70204 11.4479 7.70217C11.448 7.70224 11.448 7.70228 11.448 7.70232C11.448 7.70233 11.448 7.70234 11.448 7.70235C11.448 7.70236 11.448 7.70236 11.9302 7.57024C12.4125 7.43812 12.4124 7.43811 12.4124 7.4381C12.4124 7.4381 12.4124 7.43808 12.4124 7.43807C12.4124 7.43804 12.4124 7.43799 12.4124 7.43793C12.4124 7.4378 12.4123 7.43761 12.4122 7.43736C12.4121 7.43685 12.4119 7.43609 12.4116 7.4351C12.4111 7.4331 12.4103 7.43013 12.4092 7.42623C12.4071 7.41844 12.4039 7.40694 12.3998 7.39211C12.3917 7.36247 12.38 7.31953 12.3654 7.26637C12.3363 7.16005 12.2959 7.01284 12.2511 6.84928C12.1615 6.52214 12.0539 6.12958 11.9822 5.86788L11.0178 6.13212ZM5.51493 10.1213L5.76493 11.1213L6.73507 10.8787L6.48507 9.87873L5.51493 10.1213ZM5.76493 11.1213L6.01493 12.1213L6.98507 11.8787L6.73507 10.8787L5.76493 11.1213ZM8.95682 7.84196C8.5736 8.10633 7.96556 8.56093 7.37213 9.07553C6.78837 9.58176 6.17816 10.1804 5.82792 10.732L6.67208 11.268C6.93959 10.8468 7.455 10.3273 8.02728 9.83103C8.58991 9.34314 9.16836 8.9109 9.52466 8.6651L8.95682 7.84196ZM10.4644 5.00127L9.15314 5.09493L9.22438 6.09239L10.5356 5.99873L10.4644 5.00127ZM8.69232 5.53409L8.50356 7.10709L9.49644 7.22624L9.6852 5.65323L8.69232 5.53409ZM8.59423 7.45882L9.01569 8.04417L9.82722 7.45987L9.40577 6.87451L8.59423 7.45882ZM9.45759 8.25071L11.9664 8.06893L11.8941 7.07155L9.38532 7.25333L9.45759 8.25071ZM12.4125 7.43812L11.9822 5.86788L11.0178 6.13212L11.448 7.70236L12.4125 7.43812ZM11.9287 5.74275L11.4287 4.90942L10.5713 5.42391L11.0713 6.25725L11.9287 5.74275ZM10.7226 4.75064L10.2226 5.08397L10.7774 5.91603L11.2774 5.58269L10.7226 4.75064ZM9.57125 3.75725L10.5713 5.42391L11.4287 4.90942L10.4287 3.24275L9.57125 3.75725ZM11.2774 5.58269L13.7774 3.91603L13.2226 3.08397L10.7226 4.75064L11.2774 5.58269ZM9.01569 8.04417L9.19012 8.28644L10.0017 7.70214L9.82722 7.45987L9.01569 8.04417ZM9.38532 7.25333L2.46387 7.75484L2.53613 8.75222L9.45759 8.25071L9.38532 7.25333ZM9.00356 2.94043L8.69232 5.53409L9.6852 5.65323L9.99644 3.05957L9.00356 2.94043ZM3.53562 6.49873L9.22438 6.09239L9.15314 5.09493L3.46438 5.50127L3.53562 6.49873ZM11.6102 9.68274L11.0883 10.2046L11.7954 10.9117L12.3173 10.3898L11.6102 9.68274ZM11.0361 10.8503L12.5849 13.0015L13.3965 12.4172L11.8476 10.266L11.0361 10.8503ZM12.9907 13.2093H14.7258V12.2093H12.9907V13.2093ZM15.2182 12.6227L14.444 8.21961L13.4591 8.39278L14.2333 12.7959L15.2182 12.6227ZM13.6233 7.92904L11.6355 9.65913L12.292 10.4135L14.2798 8.68336L13.6233 7.92904ZM9.88786 17.3155L13.3786 13.0249L12.6029 12.3938L9.11214 16.6845L9.88786 17.3155ZM15.1566 12.9631L17.9308 8.25378L17.0692 7.74622L14.295 12.4555L15.1566 12.9631ZM9.78601 9.11407L11.0361 10.8503L11.8476 10.266L10.5975 8.52977L9.78601 9.11407ZM12.5849 13.0015L14.5942 15.7922L15.4058 15.2078L13.3965 12.4172L12.5849 13.0015ZM12.9438 17.2302L15.1696 12.9396L14.2819 12.4791L12.0562 16.7698L12.9438 17.2302ZM16.7451 6.06984L13.6967 7.87603L14.2064 8.73636L17.2549 6.93016L16.7451 6.06984ZM11.6764 9.62709L9.21268 11.357L9.78732 12.1754L12.251 10.4455L11.6764 9.62709ZM11.3536 11.3536L11.7954 10.9117L11.0883 10.2046L10.6464 10.6464L11.3536 11.3536ZM12.3173 10.3898L12.8536 9.85355L12.1464 9.14645L11.6102 9.68274L12.3173 10.3898ZM14.3037 8.66121L15.2635 7.70924L14.5594 6.99921L13.5995 7.95118L14.3037 8.66121ZM14.8753 6.85553L11.8941 7.07155L11.9664 8.06893L14.9476 7.85292L14.8753 6.85553ZM15.3965 7.4755L15.6101 6.62127L14.6399 6.37873L14.4264 7.23296L15.3965 7.4755ZM17.621 7.51487L15.0325 6.8691L14.7904 7.83936L17.379 8.48513L17.621 7.51487Z" fill="#2D2F77"/>
<path d="M3.5 5.5L5.5 2L12 1.5L16.5 4L18.5 8.5L18 12.5L15.5 16.5L9.5 18.5L3.5 16L1.5 11V6L3.5 5.5Z" fill="#2D2F77" stroke="#2D2F77"/>
</svg>
