<svg width="20" height="22" viewBox="0 0 20 22" fill="none" xmlns="http://www.w3.org/2000/svg">
<path d="M13.0833 10.201C14.491 9.17434 15.4077 7.51283 15.4077 5.64102C15.4077 2.53056 12.8771 0 9.76666 0C6.6562 0 4.12564 2.53056 4.12564 5.64102C4.12564 7.51283 5.04229 9.17434 6.45003 10.201C2.95066 11.5401 0.458984 14.933 0.458984 18.8974C0.458984 20.6082 1.85079 22 3.56154 22H15.9718C17.6825 22 19.0743 20.6082 19.0743 18.8974C19.0743 14.933 16.5827 11.5401 13.0833 10.201ZM5.81796 5.64102C5.81796 3.46371 7.58935 1.69232 9.76666 1.69232C11.944 1.69232 13.7154 3.46371 13.7154 5.64102C13.7154 7.81834 11.944 9.58977 9.76666 9.58977C7.58935 9.58977 5.81796 7.81834 5.81796 5.64102ZM15.9718 20.3077H3.56154C2.78394 20.3077 2.15131 19.675 2.15131 18.8974C2.15131 14.6982 5.5675 11.282 9.7667 11.282C13.9659 11.282 17.3821 14.6982 17.3821 18.8974C17.3821 19.675 16.7494 20.3077 15.9718 20.3077Z" fill="#2D2F77"/>
</svg>
