<svg width="19" height="22" viewBox="0 0 19 22" fill="none" xmlns="http://www.w3.org/2000/svg">
<path d="M12.6243 10.201C14.032 9.17434 14.9487 7.51283 14.9487 5.64102C14.9487 2.53056 12.4181 0 9.30768 0C6.19721 0 3.66665 2.53056 3.66665 5.64102C3.66665 7.51283 4.5833 9.17434 5.99105 10.201C2.49167 11.5401 0 14.933 0 18.8974C0 20.6082 1.3918 22 3.10256 22H15.5128C17.2236 22 18.6154 20.6082 18.6154 18.8974C18.6154 14.933 16.1237 11.5401 12.6243 10.201ZM5.35898 5.64102C5.35898 3.46371 7.13036 1.69232 9.30768 1.69232C11.485 1.69232 13.2564 3.46371 13.2564 5.64102C13.2564 7.81834 11.485 9.58977 9.30768 9.58977C7.13036 9.58977 5.35898 7.81834 5.35898 5.64102ZM15.5128 20.3077H3.10256C2.32495 20.3077 1.69232 19.675 1.69232 18.8974C1.69232 14.6982 5.10851 11.282 9.30772 11.282C13.5069 11.282 16.9231 14.6982 16.9231 18.8974C16.9231 19.675 16.2904 20.3077 15.5128 20.3077Z" fill="#2D2F77"/>
<path d="M5.5 8L4.5 4L6.5 1.5L10 1L13 3L14 5.5L13 9L8.5 10.5L5.5 8Z" fill="#2D2F77"/>
<path d="M8.5 10.5L13 9L14 5.5L13 3L10 1L6.5 1.5L4.5 4L5.5 8L8.5 10.5ZM8.5 10.5L3 13L1 17.5C1.16667 18.1667 1.5 19.6 1.5 20L2.5 21H16.5L18 18.5L15 12.5" stroke="#2D2F77"/>
<path d="M2.5 14L7 10.5L12.5 11L16.5 14L17.5 17.5V20L16 21L2 20.5L1 19L1.5 16L2.5 14Z" fill="#2D2F77" stroke="#2D2F77"/>
</svg>
